<?xml version="1.0" encoding="UTF-8" standalone="no"?><!DOCTYPE svg PUBLIC "-//W3C//DTD SVG 1.1//EN" "http://www.w3.org/Graphics/SVG/1.1/DTD/svg11.dtd"><svg width="100%" height="100%" viewBox="0 0 500 500" version="1.1" xmlns="http://www.w3.org/2000/svg" xmlns:xlink="http://www.w3.org/1999/xlink" xml:space="preserve" xmlns:serif="http://www.serif.com/" style="fill-rule:evenodd;clip-rule:evenodd;stroke-linejoin:round;stroke-miterlimit:2;"><path d="M198.046,136.603c113.008,-34.79 223.78,-1.244 247.211,74.866c23.431,76.11 -49.295,166.147 -162.303,200.938c-113.008,34.79 -223.779,1.243 -247.21,-74.867c-23.431,-76.11 49.294,-166.147 162.302,-200.937Zm28.941,77.722c54.81,-16.874 107.127,-5.18 116.756,26.098c9.629,31.277 -27.053,70.37 -81.863,87.244c-54.81,16.873 -107.127,5.179 -116.756,-26.098c-9.629,-31.278 27.053,-70.37 81.863,-87.244Z" style="fill:#e6d19a;"/><path d="M193.507,119.11c109.101,-33.588 215.971,-1.436 238.503,71.754c22.532,73.19 -47.752,159.879 -156.853,193.467c-109.101,33.587 -215.97,1.435 -238.502,-71.755c-22.532,-73.189 47.751,-159.879 156.852,-193.466Zm18.935,67.504c59.762,-18.398 116.831,-5.566 127.361,28.639c10.53,34.205 -29.44,76.912 -89.203,95.31c-59.762,18.398 -116.831,5.566 -127.361,-28.639c-10.53,-34.205 29.44,-76.912 89.203,-95.31Z" style="fill:#854a1b;"/><path d="M304.737,358.148c11.277,-3.472 22.014,-1.153 23.962,5.175c1.948,6.329 -5.625,14.285 -16.903,17.757c-11.277,3.471 -22.014,1.152 -23.962,-5.176c-1.948,-6.328 5.626,-14.285 16.903,-17.756Z" style="fill:#e6d19a;"/><path d="M328.772,363.616l-40.81,12.563l7.338,23.834l40.809,-12.563l-7.337,-23.834Z" style="fill:#e6d19a;"/><path d="M223.433,383.324c11.278,-3.471 22.015,-1.152 23.963,5.176c1.948,6.328 -5.626,14.285 -16.903,17.756c-11.277,3.472 -22.014,1.153 -23.962,-5.175c-1.949,-6.328 5.625,-14.285 16.902,-17.757Z" style="fill:#e6d19a;"/><path d="M247.469,388.793l-40.81,12.563l6.923,22.488l40.81,-12.563l-6.923,-22.488Z" style="fill:#e6d19a;"/><path d="M158.656,360.809c1.729,-0.939 5.127,0.673 7.599,3.613c0.06,0.071 0.119,0.142 0.176,0.213l8.755,10.409l-0.01,0.006c0.143,0.156 0.285,0.317 0.424,0.482c2.472,2.94 3.094,6.104 1.396,7.081l-0.02,0.012c-1.723,0.963 -5.137,-0.65 -7.619,-3.602c-0.139,-0.165 -0.272,-0.33 -0.399,-0.496l-0.007,0.004l-8.65,-10.284c-0.097,-0.109 -0.194,-0.22 -0.289,-0.334c-2.473,-2.939 -3.094,-6.104 -1.396,-7.081l0.02,-0.011l0.02,-0.012Z" style="fill:#f900e1;"/><path d="M196.093,352.926c1.934,-0.034 2.875,3.042 2.1,6.886c-0.018,0.093 -0.038,0.185 -0.058,0.277l-2.742,13.611l-0.012,0c-0.033,0.21 -0.071,0.424 -0.114,0.639c-0.775,3.844 -2.974,7.015 -4.918,7.099l-0.023,0c-1.949,0.06 -2.9,-3.025 -2.123,-6.884c0.043,-0.216 0.091,-0.429 0.143,-0.64l-0.007,0l2.709,-13.447c0.025,-0.146 0.052,-0.293 0.082,-0.441c0.774,-3.844 2.974,-7.015 4.917,-7.098l0.023,-0.001l0.023,-0.001Z" style="fill:#ffe500;"/><path d="M145.78,333.476c0.998,-1.4 5.371,-1.543 9.786,-0.316c0.107,0.029 0.213,0.06 0.317,0.09l15.633,4.345l-0.006,0.009c0.246,0.06 0.494,0.125 0.742,0.194c4.414,1.227 7.216,3.364 6.274,4.78l-0.012,0.017c-0.975,1.415 -5.365,1.565 -9.797,0.333c-0.248,-0.069 -0.491,-0.141 -0.727,-0.215l-0.004,0.005l-15.445,-4.293c-0.17,-0.043 -0.34,-0.088 -0.51,-0.135c-4.415,-1.227 -7.216,-3.365 -6.274,-4.781l0.011,-0.016l0.012,-0.017Z" style="fill:#ffe500;"/><path d="M144.499,354.043c0.668,1.275 -2.625,3.947 -7.373,5.978c-0.115,0.049 -0.229,0.097 -0.343,0.145l-16.812,7.191l-0.004,-0.008c-0.256,0.118 -0.518,0.234 -0.785,0.348c-4.747,2.031 -9.17,2.659 -9.898,1.41l-0.008,-0.015c-0.701,-1.268 2.599,-3.953 7.365,-5.992c0.267,-0.114 0.532,-0.224 0.795,-0.329l-0.002,-0.005l16.609,-7.105c0.178,-0.079 0.359,-0.159 0.542,-0.237c4.748,-2.031 9.171,-2.659 9.898,-1.41l0.008,0.014l0.008,0.015Z" style="fill:#fff;"/><path d="M279.831,319.793c1.934,-0.035 2.875,3.041 2.101,6.885c-0.019,0.093 -0.039,0.185 -0.059,0.277l-2.742,13.611l-0.012,0.001c-0.033,0.21 -0.071,0.423 -0.114,0.639c-0.774,3.844 -2.974,7.015 -4.918,7.098l-0.023,0.001c-1.949,0.059 -2.9,-3.026 -2.123,-6.885c0.044,-0.215 0.092,-0.429 0.144,-0.64l-0.008,0.001l2.709,-13.448c0.025,-0.145 0.052,-0.292 0.082,-0.441c0.774,-3.843 2.974,-7.015 4.918,-7.098l0.022,-0.001l0.023,-0Z" style="fill:#ffe500;"/><path d="M240.951,324.846c0.667,1.274 -2.626,3.947 -7.374,5.977c-0.114,0.05 -0.229,0.098 -0.343,0.145l-16.812,7.192l-0.004,-0.008c-0.256,0.117 -0.518,0.233 -0.784,0.347c-4.748,2.031 -9.171,2.659 -9.898,1.411l-0.009,-0.015c-0.701,-1.269 2.599,-3.954 7.366,-5.993c0.266,-0.114 0.531,-0.223 0.795,-0.328l-0.003,-0.005l16.609,-7.105c0.179,-0.08 0.359,-0.159 0.542,-0.238c4.748,-2.03 9.171,-2.659 9.898,-1.41l0.009,0.015l0.008,0.015Z" style="fill:#fff;"/><path d="M275.546,146.321c1.729,-0.94 5.126,0.673 7.599,3.612c0.059,0.071 0.118,0.143 0.176,0.213l8.755,10.41l-0.011,0.006c0.144,0.156 0.286,0.316 0.425,0.481c2.472,2.94 3.093,6.105 1.395,7.082l-0.02,0.011c-1.723,0.964 -5.137,-0.65 -7.619,-3.601c-0.139,-0.165 -0.271,-0.331 -0.398,-0.496l-0.007,0.003l-8.65,-10.284c-0.098,-0.109 -0.194,-0.22 -0.29,-0.333c-2.472,-2.94 -3.093,-6.105 -1.395,-7.082l0.02,-0.011l0.02,-0.011Z" style="fill:#f900e1;"/><path d="M324.758,138.926c1.934,-0.035 2.875,3.041 2.101,6.885c-0.019,0.093 -0.039,0.185 -0.059,0.277l-2.742,13.611l-0.012,0.001c-0.032,0.21 -0.071,0.423 -0.114,0.639c-0.774,3.843 -2.974,7.015 -4.918,7.098l-0.022,0.001c-1.95,0.059 -2.901,-3.026 -2.124,-6.885c0.044,-0.216 0.092,-0.429 0.144,-0.64l-0.008,0l2.709,-13.447c0.025,-0.146 0.052,-0.293 0.082,-0.441c0.775,-3.844 2.974,-7.015 4.918,-7.098l0.023,-0.001l0.022,-0Z" style="fill:#ffe500;"/><path d="M278.536,126.624c-0.656,1.47 -5.074,2.252 -9.889,1.746c-0.116,-0.012 -0.232,-0.025 -0.346,-0.039l-17.048,-1.791l0.004,-0.009c-0.266,-0.02 -0.535,-0.044 -0.806,-0.073c-4.814,-0.506 -8.219,-2.109 -7.624,-3.585l0.007,-0.018c0.629,-1.48 5.063,-2.27 9.897,-1.763c0.27,0.029 0.536,0.061 0.796,0.096l0.002,-0.006l16.843,1.769c0.184,0.016 0.369,0.034 0.554,0.053c4.815,0.506 8.22,2.11 7.625,3.586l-0.007,0.017l-0.008,0.017Z" style="fill:#fff;"/><path d="M360.697,144.419c1.73,-0.94 5.127,0.673 7.599,3.612c0.06,0.071 0.119,0.143 0.176,0.214l8.755,10.409l-0.01,0.006c0.144,0.156 0.285,0.317 0.424,0.481c2.472,2.94 3.094,6.105 1.396,7.082l-0.02,0.011c-1.723,0.964 -5.137,-0.65 -7.619,-3.601c-0.139,-0.165 -0.272,-0.331 -0.399,-0.496l-0.007,0.003l-8.65,-10.284c-0.097,-0.109 -0.194,-0.22 -0.289,-0.333c-2.473,-2.94 -3.094,-6.105 -1.396,-7.082l0.02,-0.011l0.02,-0.011Z" style="fill:#f900e1;"/><path d="M407.267,200.173c1.729,-0.939 5.127,0.673 7.599,3.613c0.06,0.071 0.119,0.142 0.176,0.213l8.755,10.409l-0.01,0.006c0.143,0.156 0.285,0.317 0.424,0.482c2.472,2.94 3.094,6.104 1.396,7.081l-0.02,0.012c-1.723,0.963 -5.137,-0.651 -7.619,-3.602c-0.139,-0.165 -0.272,-0.33 -0.399,-0.496l-0.007,0.004l-8.65,-10.284c-0.097,-0.109 -0.194,-0.22 -0.289,-0.334c-2.473,-2.939 -3.094,-6.104 -1.396,-7.081l0.02,-0.011l0.02,-0.012Z" style="fill:#f900e1;"/><path d="M387.272,174.332c1.934,-0.035 2.874,3.041 2.1,6.885c-0.019,0.093 -0.038,0.185 -0.058,0.277l-2.743,13.611l-0.011,0.001c-0.033,0.21 -0.071,0.423 -0.115,0.639c-0.774,3.843 -2.974,7.015 -4.917,7.098l-0.023,0.001c-1.949,0.059 -2.901,-3.026 -2.123,-6.885c0.043,-0.216 0.091,-0.429 0.143,-0.64l-0.008,0.001l2.71,-13.448c0.024,-0.145 0.052,-0.293 0.081,-0.441c0.775,-3.843 2.974,-7.015 4.918,-7.098l0.023,-0.001l0.023,-0Z" style="fill:#ffe500;"/><path d="M365.834,184.557c-0.656,1.47 -5.075,2.252 -9.89,1.746c-0.116,-0.012 -0.232,-0.025 -0.346,-0.039l-17.048,-1.791l0.004,-0.009c-0.266,-0.02 -0.535,-0.044 -0.805,-0.073c-4.815,-0.505 -8.22,-2.109 -7.625,-3.585l0.007,-0.018c0.629,-1.48 5.064,-2.27 9.897,-1.762c0.27,0.028 0.536,0.06 0.796,0.095l0.002,-0.006l16.843,1.769c0.184,0.016 0.369,0.034 0.555,0.053c4.814,0.506 8.219,2.11 7.624,3.586l-0.007,0.017l-0.007,0.017Z" style="fill:#fff;"/><path d="M401.466,244.128c1.729,-0.939 5.126,0.673 7.598,3.613c0.06,0.071 0.119,0.142 0.176,0.213l8.756,10.409l-0.011,0.006c0.144,0.156 0.286,0.317 0.424,0.482c2.473,2.94 3.094,6.105 1.396,7.081l-0.02,0.012c-1.723,0.963 -5.137,-0.65 -7.619,-3.601c-0.139,-0.165 -0.272,-0.331 -0.398,-0.497l-0.007,0.004l-8.65,-10.284c-0.098,-0.109 -0.195,-0.22 -0.29,-0.334c-2.472,-2.939 -3.094,-6.104 -1.396,-7.081l0.02,-0.011l0.021,-0.012Z" style="fill:#f900e1;"/><path d="M401.466,244.128c1.729,-0.939 5.126,0.673 7.598,3.613c0.06,0.071 0.119,0.142 0.176,0.213l8.756,10.409l-0.011,0.006c0.144,0.156 0.286,0.317 0.424,0.482c2.473,2.94 3.094,6.105 1.396,7.081l-0.02,0.012c-1.723,0.963 -5.137,-0.65 -7.619,-3.601c-0.139,-0.165 -0.272,-0.331 -0.398,-0.497l-0.007,0.004l-8.65,-10.284c-0.098,-0.109 -0.195,-0.22 -0.29,-0.334c-2.472,-2.939 -3.094,-6.104 -1.396,-7.081l0.02,-0.011l0.021,-0.012Z" style="fill:#f900e1;"/><path d="M372.096,250.109c1.933,-0.035 2.874,3.041 2.1,6.885c-0.019,0.093 -0.038,0.186 -0.059,0.277l-2.742,13.611l-0.012,0.001c-0.032,0.21 -0.07,0.423 -0.114,0.639c-0.774,3.844 -2.974,7.015 -4.917,7.098l-0.023,0.001c-1.949,0.059 -2.901,-3.026 -2.123,-6.885c0.043,-0.215 0.091,-0.429 0.143,-0.64l-0.008,0.001l2.709,-13.448c0.025,-0.145 0.052,-0.292 0.082,-0.441c0.775,-3.843 2.974,-7.015 4.918,-7.098l0.023,-0.001l0.023,-0Z" style="fill:#ffe500;"/><path d="M404.354,230.907c-0.656,1.47 -5.075,2.251 -9.889,1.746c-0.117,-0.013 -0.232,-0.025 -0.347,-0.039l-17.047,-1.791l0.004,-0.009c-0.267,-0.02 -0.536,-0.045 -0.806,-0.073c-4.814,-0.506 -8.22,-2.109 -7.625,-3.585l0.007,-0.018c0.629,-1.481 5.064,-2.27 9.897,-1.763c0.27,0.029 0.536,0.061 0.796,0.096l0.003,-0.006l16.842,1.769c0.184,0.016 0.369,0.033 0.555,0.053c4.814,0.506 8.22,2.109 7.624,3.585l-0.007,0.018l-0.007,0.017Z" style="fill:#fff;"/><path d="M302.507,310.819c1.729,-0.94 5.126,0.673 7.599,3.612c0.06,0.071 0.118,0.143 0.176,0.214l8.755,10.409l-0.01,0.006c0.143,0.156 0.285,0.316 0.424,0.481c2.472,2.94 3.094,6.105 1.396,7.082l-0.02,0.011c-1.723,0.964 -5.137,-0.65 -7.619,-3.601c-0.139,-0.165 -0.272,-0.331 -0.399,-0.496l-0.007,0.003l-8.65,-10.284c-0.097,-0.109 -0.194,-0.22 -0.289,-0.333c-2.473,-2.94 -3.094,-6.105 -1.396,-7.082l0.02,-0.011l0.02,-0.011Z" style="fill:#f900e1;"/><path d="M231.166,339.403c1.729,-0.94 5.126,0.672 7.599,3.612c0.06,0.071 0.119,0.142 0.176,0.213l8.755,10.409l-0.01,0.006c0.143,0.156 0.285,0.317 0.424,0.482c2.472,2.94 3.094,6.105 1.396,7.081l-0.02,0.012c-1.723,0.963 -5.137,-0.65 -7.619,-3.601c-0.139,-0.165 -0.272,-0.331 -0.399,-0.497l-0.007,0.004l-8.65,-10.284c-0.097,-0.109 -0.194,-0.22 -0.289,-0.334c-2.473,-2.939 -3.094,-6.104 -1.396,-7.081l0.02,-0.011l0.02,-0.011Z" style="fill:#f900e1;"/><path d="M359.751,299.512c1.934,-0.034 2.875,3.042 2.101,6.885c-0.019,0.093 -0.039,0.186 -0.059,0.278l-2.742,13.611l-0.012,0c-0.033,0.21 -0.071,0.424 -0.114,0.639c-0.775,3.844 -2.974,7.015 -4.918,7.099l-0.023,0c-1.949,0.06 -2.9,-3.025 -2.123,-6.884c0.044,-0.216 0.091,-0.429 0.144,-0.64l-0.008,0l2.709,-13.447c0.025,-0.146 0.052,-0.293 0.082,-0.441c0.774,-3.844 2.974,-7.015 4.917,-7.098l0.023,-0.001l0.023,-0.001Z" style="fill:#ffe500;"/><path d="M351.586,297.497c-0.656,1.469 -5.075,2.251 -9.889,1.745c-0.117,-0.012 -0.233,-0.025 -0.347,-0.038l-17.047,-1.791l0.003,-0.009c-0.266,-0.02 -0.535,-0.045 -0.805,-0.073c-4.815,-0.506 -8.22,-2.11 -7.625,-3.586l0.007,-0.017c0.629,-1.481 5.064,-2.271 9.897,-1.763c0.27,0.028 0.536,0.06 0.796,0.095l0.003,-0.006l16.842,1.77c0.184,0.016 0.369,0.033 0.555,0.053c4.814,0.505 8.219,2.109 7.624,3.585l-0.007,0.017l-0.007,0.018Z" style="fill:#fff;"/><path d="M202.055,143.54c1.729,-0.939 5.126,0.673 7.598,3.613c0.06,0.071 0.119,0.142 0.176,0.213l8.756,10.409l-0.011,0.006c0.144,0.156 0.286,0.317 0.424,0.482c2.473,2.939 3.094,6.104 1.396,7.081l-0.02,0.012c-1.723,0.963 -5.137,-0.651 -7.619,-3.602c-0.139,-0.165 -0.272,-0.33 -0.398,-0.496l-0.007,0.004l-8.65,-10.284c-0.098,-0.109 -0.195,-0.221 -0.29,-0.334c-2.472,-2.939 -3.094,-6.104 -1.396,-7.081l0.02,-0.012l0.021,-0.011Z" style="fill:#f900e1;"/><path d="M247.169,145.455c1.934,-0.035 2.875,3.041 2.1,6.885c-0.018,0.093 -0.038,0.185 -0.058,0.277l-2.742,13.611l-0.012,0c-0.033,0.21 -0.071,0.424 -0.114,0.639c-0.775,3.844 -2.974,7.015 -4.918,7.099l-0.023,0.001c-1.949,0.059 -2.9,-3.026 -2.123,-6.885c0.044,-0.216 0.091,-0.429 0.144,-0.64l-0.008,0l2.709,-13.447c0.025,-0.146 0.052,-0.293 0.082,-0.441c0.774,-3.844 2.974,-7.015 4.917,-7.098l0.023,-0.001l0.023,-0Z" style="fill:#ffe500;"/><path d="M93.223,219.49c1.729,-0.939 5.126,0.673 7.599,3.613c0.06,0.071 0.118,0.142 0.176,0.213l8.755,10.409l-0.011,0.006c0.144,0.156 0.286,0.317 0.425,0.482c2.472,2.939 3.093,6.104 1.395,7.081l-0.02,0.012c-1.723,0.963 -5.136,-0.651 -7.619,-3.602c-0.138,-0.165 -0.271,-0.33 -0.398,-0.496l-0.007,0.004l-8.65,-10.284c-0.098,-0.109 -0.194,-0.221 -0.29,-0.334c-2.472,-2.939 -3.093,-6.104 -1.395,-7.081l0.02,-0.012l0.02,-0.011Z" style="fill:#f900e1;"/><path d="M122.828,180.386c1.934,-0.034 2.875,3.041 2.101,6.885c-0.019,0.093 -0.039,0.186 -0.059,0.278l-2.742,13.611l-0.012,0c-0.033,0.21 -0.071,0.423 -0.114,0.639c-0.775,3.844 -2.974,7.015 -4.918,7.098l-0.023,0.001c-1.949,0.059 -2.9,-3.025 -2.123,-6.884c0.044,-0.216 0.092,-0.43 0.144,-0.64l-0.008,-0l2.709,-13.448c0.025,-0.145 0.052,-0.292 0.082,-0.44c0.774,-3.844 2.974,-7.015 4.918,-7.098l0.022,-0.001l0.023,-0.001Z" style="fill:#ffe500;"/><path d="M85.992,254.958c1.934,-0.035 2.875,3.041 2.1,6.885c-0.018,0.093 -0.038,0.186 -0.058,0.277l-2.742,13.611l-0.012,0.001c-0.033,0.21 -0.071,0.423 -0.114,0.639c-0.775,3.844 -2.974,7.015 -4.918,7.098l-0.023,0.001c-1.949,0.059 -2.9,-3.026 -2.123,-6.885c0.043,-0.215 0.091,-0.429 0.143,-0.64l-0.007,0.001l2.709,-13.448c0.025,-0.145 0.052,-0.292 0.082,-0.441c0.774,-3.843 2.974,-7.015 4.917,-7.098l0.023,-0.001l0.023,-0Z" style="fill:#ffe500;"/><path d="M182.471,141.016c0.667,1.275 -2.626,3.947 -7.374,5.978c-0.114,0.049 -0.229,0.097 -0.343,0.145l-16.812,7.191l-0.004,-0.008c-0.256,0.118 -0.518,0.234 -0.784,0.348c-4.748,2.031 -9.171,2.659 -9.898,1.41l-0.009,-0.015c-0.701,-1.268 2.599,-3.953 7.366,-5.992c0.266,-0.114 0.532,-0.224 0.795,-0.329l-0.003,-0.005l16.61,-7.105c0.178,-0.079 0.359,-0.159 0.542,-0.237c4.747,-2.031 9.17,-2.659 9.897,-1.41l0.009,0.014l0.008,0.015Z" style="fill:#fff;"/><path d="M184.429,167.074c0.667,1.275 -2.626,3.947 -7.373,5.978c-0.115,0.049 -0.23,0.097 -0.344,0.144l-16.811,7.192l-0.005,-0.008c-0.256,0.118 -0.518,0.234 -0.784,0.348c-4.748,2.03 -9.171,2.659 -9.898,1.41l-0.009,-0.015c-0.701,-1.269 2.6,-3.954 7.366,-5.993c0.266,-0.113 0.532,-0.223 0.795,-0.328l-0.003,-0.005l16.61,-7.105c0.178,-0.08 0.359,-0.159 0.542,-0.237c4.747,-2.031 9.17,-2.659 9.897,-1.411l0.009,0.015l0.008,0.015Z" style="fill:#fff;"/><path d="M97.529,289.645c1.729,-0.939 5.126,0.673 7.598,3.613c0.06,0.071 0.119,0.142 0.176,0.213l8.756,10.409l-0.011,0.006c0.144,0.156 0.286,0.317 0.424,0.482c2.473,2.94 3.094,6.104 1.396,7.081l-0.02,0.012c-1.723,0.963 -5.137,-0.65 -7.619,-3.602c-0.139,-0.164 -0.272,-0.33 -0.398,-0.496l-0.007,0.004l-8.65,-10.284c-0.098,-0.109 -0.195,-0.22 -0.29,-0.334c-2.472,-2.939 -3.094,-6.104 -1.396,-7.081l0.02,-0.011l0.021,-0.012Z" style="fill:#f900e1;"/><path d="M103.342,332.06c1.934,-0.035 2.875,3.041 2.1,6.885c-0.019,0.093 -0.038,0.185 -0.058,0.277l-2.742,13.611l-0.012,0.001c-0.033,0.21 -0.071,0.423 -0.115,0.639c-0.774,3.844 -2.973,7.015 -4.917,7.098l-0.023,0.001c-1.949,0.059 -2.901,-3.026 -2.123,-6.885c0.043,-0.215 0.091,-0.429 0.143,-0.64l-0.007,0.001l2.709,-13.448c0.024,-0.145 0.052,-0.292 0.082,-0.441c0.774,-3.843 2.973,-7.015 4.917,-7.098l0.023,-0.001l0.023,-0Z" style="fill:#ffe500;"/><path d="M88.455,313.405c0.667,1.274 -2.626,3.947 -7.374,5.978c-0.114,0.049 -0.229,0.097 -0.343,0.144l-16.812,7.192l-0.004,-0.008c-0.256,0.117 -0.518,0.233 -0.784,0.347c-4.748,2.031 -9.171,2.66 -9.898,1.411l-0.009,-0.015c-0.701,-1.269 2.599,-3.954 7.366,-5.993c0.266,-0.114 0.531,-0.223 0.795,-0.328l-0.003,-0.005l16.61,-7.105c0.178,-0.08 0.358,-0.159 0.541,-0.237c4.748,-2.031 9.171,-2.66 9.898,-1.411l0.009,0.015l0.008,0.015Z" style="fill:#fff;"/><path d="M93.14,235.924c0.668,1.275 -2.626,3.947 -7.373,5.978c-0.115,0.049 -0.23,0.097 -0.343,0.145l-16.812,7.191l-0.004,-0.008c-0.257,0.118 -0.519,0.234 -0.785,0.348c-4.748,2.031 -9.17,2.659 -9.898,1.41l-0.008,-0.015c-0.701,-1.268 2.599,-3.953 7.365,-5.992c0.266,-0.114 0.532,-0.224 0.795,-0.329l-0.003,-0.005l16.61,-7.105c0.178,-0.079 0.359,-0.159 0.542,-0.237c4.747,-2.031 9.17,-2.659 9.898,-1.41l0.008,0.014l0.008,0.015Z" style="fill:#fff;"/><path d="M277.414,413.752c-11.281,3.459 -22.223,0.427 -24.419,-6.765c-2.196,-7.192 5.18,-15.839 16.461,-19.298c11.281,-3.458 22.223,-0.427 24.419,6.765c2.196,7.192 -5.179,15.839 -16.461,19.298Z" style="fill:#854a1b;"/><path d="M354.342,372.453c-11.391,3.493 -22.422,0.489 -24.618,-6.703c-2.196,-7.193 5.269,-15.867 16.66,-19.359c11.391,-3.493 22.422,-0.489 24.619,6.703c2.196,7.193 -5.269,15.867 -16.661,19.359Z" style="fill:#854a1b;"/><path d="M252.448,405.137l40.824,-12.516l-7.283,-23.851l-40.824,12.516l7.283,23.851Z" style="fill:#854a1b;"/><path d="M192.149,424.122c-11.281,3.458 -22.377,-0.078 -24.763,-7.892c-2.386,-7.814 4.835,-16.966 16.116,-20.425c11.282,-3.459 22.378,0.078 24.764,7.892c2.386,7.814 -4.836,16.966 -16.117,20.425Z" style="fill:#854a1b;"/><path d="M167.182,415.507l40.824,-12.516l-6.484,-21.235l-40.824,12.516l6.484,21.235Z" style="fill:#854a1b;"/><path d="M329.235,365.073l41.32,-12.668l-5.232,-17.136l-41.321,12.668l5.233,17.136Z" style="fill:#854a1b;"/><path d="M48.875,246.269c28.994,67.949 74.095,92.714 148.369,124.609c39.799,11.478 101.889,28.69 134.28,22.064c-15.125,7.603 -31.381,14.173 -48.57,19.465c-113.008,34.79 -223.779,1.243 -247.21,-74.867c-9.136,-29.675 -3.654,-61.467 13.131,-91.271Z" style="fill-opacity:0.04;"/></svg>