<?xml version="1.0" encoding="UTF-8" standalone="no"?><!DOCTYPE svg PUBLIC "-//W3C//DTD SVG 1.1//EN" "http://www.w3.org/Graphics/SVG/1.1/DTD/svg11.dtd"><svg width="100%" height="100%" viewBox="0 0 1140 1146" version="1.1" xmlns="http://www.w3.org/2000/svg" xmlns:xlink="http://www.w3.org/1999/xlink" xml:space="preserve" xmlns:serif="http://www.serif.com/" style="fill-rule:evenodd;clip-rule:evenodd;stroke-linejoin:round;stroke-miterlimit:2;"><path d="M569.641,67.466c314.397,-0 569.643,241.597 569.643,539.178c0,297.581 -255.246,539.181 -569.643,539.181c-314.394,0 -569.641,-241.6 -569.641,-539.181c-0,-297.582 255.247,-539.178 569.641,-539.178Zm12.74,309.396c152.488,0 276.285,99.285 276.285,221.575c-0,122.291 -123.797,221.575 -276.285,221.575c-152.484,0 -276.281,-99.284 -276.281,-221.575c-0,-122.29 123.797,-221.575 276.281,-221.575Z" style="fill:#e6d19a;"/><path d="M571.794,0c303.525,0 549.947,232.328 549.947,518.491c-0,286.162 -246.422,518.49 -549.947,518.49c-303.525,0 -549.947,-232.328 -549.947,-518.49c-0,-286.163 246.422,-518.491 549.947,-518.491Zm-4.694,261.903c166.262,0 301.244,108.575 301.244,242.313c-0,133.737 -134.982,242.312 -301.244,242.312c-166.263,0 -301.247,-108.575 -301.247,-242.312c0,-133.738 134.984,-242.313 301.247,-242.313Z" style="fill:#ff7c8c;"/><ellipse cx="667.444" cy="1020.83" rx="56.844" ry="44.831" style="fill:#e6d19a;"/><rect x="610.709" y="1021.95" width="113.534" height="93.188" style="fill:#e6d19a;"/><ellipse cx="441.138" cy="1021.35" rx="56.844" ry="44.831" style="fill:#e6d19a;"/><rect x="384.406" y="1022.47" width="113.534" height="87.928" style="fill:#e6d19a;"/><path d="M294.141,824.887c5.131,-1.456 12.5,8.038 16.484,21.257c0.097,0.318 0.191,0.637 0.281,0.953l14.103,46.803l-0.031,0.009c0.244,0.716 0.478,1.447 0.703,2.188c3.982,13.215 3.085,25.203 -1.993,26.825l-0.06,0.019c-5.131,1.546 -12.547,-7.972 -16.544,-21.238c-0.225,-0.744 -0.431,-1.481 -0.625,-2.212l-0.018,0.006l-13.938,-46.238c-0.162,-0.497 -0.322,-1.003 -0.475,-1.512c-3.984,-13.216 -3.087,-25.2 1.994,-26.825l0.059,-0.016l0.06,-0.019Z" style="fill:#f900e1;"/><path d="M395.444,837.894c4.94,2.003 4.925,14.025 -0.05,26.9c-0.119,0.312 -0.244,0.622 -0.366,0.925l-17.615,45.597l-0.032,-0.013c-0.247,0.716 -0.512,1.435 -0.79,2.156c-4.975,12.879 -13.044,21.785 -18.05,19.944l-0.06,-0.022c-5,-1.931 -5.003,-13.993 -0.009,-26.922c0.281,-0.721 0.569,-1.431 0.866,-2.128l-0.019,-0.006l17.403,-45.047c0.178,-0.494 0.362,-0.987 0.553,-1.484c4.975,-12.878 13.047,-21.785 18.05,-19.944l0.119,0.044Z" style="fill:#ffe500;"/><path d="M282.803,713.112c3.631,-3.903 14.856,0.394 25.116,9.629c0.25,0.225 0.494,0.45 0.734,0.672l36.328,32.706l-0.022,0.025c0.579,0.487 1.157,0.987 1.735,1.506c10.256,9.238 15.703,19.953 12.203,23.972l-0.044,0.047c-3.584,3.984 -14.859,-0.31 -25.156,-9.585c-0.575,-0.515 -1.138,-1.04 -1.681,-1.565l-0.013,0.015l-35.89,-32.312c-0.397,-0.341 -0.794,-0.691 -1.191,-1.047c-10.256,-9.234 -15.703,-19.95 -12.203,-23.969l0.043,-0.047l0.041,-0.046Z" style="fill:#ffe500;"/><path d="M263.459,785.159c0.7,5.285 -9.759,11.207 -23.412,13.241c-0.331,0.05 -0.66,0.097 -0.988,0.138l-48.346,7.199l-0.007,-0.031c-0.743,0.138 -1.497,0.263 -2.265,0.378c-13.653,2.032 -25.385,-0.584 -26.257,-5.847l-0.009,-0.062c-0.787,-5.3 9.7,-11.263 23.406,-13.303c0.766,-0.113 1.525,-0.213 2.278,-0.297l-0.003,-0.022l47.766,-7.112c0.516,-0.091 1.037,-0.175 1.562,-0.254c13.654,-2.031 25.385,0.588 26.257,5.847l0.018,0.125Z" style="fill:#fff;"/><path d="M634.159,811.631c4.941,2.003 4.929,14.022 -0.046,26.897c-0.122,0.313 -0.244,0.622 -0.366,0.925l-17.619,45.597l-0.031,-0.013c-0.247,0.716 -0.509,1.435 -0.788,2.16c-4.975,12.875 -13.046,21.781 -18.05,19.944l-0.059,-0.025c-5,-1.932 -5.003,-13.994 -0.009,-26.919c0.278,-0.725 0.568,-1.434 0.865,-2.128l-0.022,-0.01l17.407,-45.046c0.175,-0.494 0.359,-0.988 0.553,-1.485c4.975,-12.875 13.043,-21.784 18.05,-19.944l0.056,0.022l0.059,0.025Z" style="fill:#ffe500;"/><path d="M531.403,786.928c0.7,5.284 -9.759,11.209 -23.412,13.241c-0.332,0.05 -0.66,0.097 -0.988,0.14l-48.347,7.2l-0.006,-0.034c-0.741,0.137 -1.497,0.266 -2.263,0.378c-13.656,2.034 -25.384,-0.584 -26.256,-5.844l-0.009,-0.062c-0.791,-5.303 9.697,-11.263 23.403,-13.303c0.766,-0.116 1.528,-0.216 2.278,-0.3l-0.003,-0.022l47.766,-7.113c0.515,-0.087 1.037,-0.172 1.562,-0.25c13.653,-2.034 25.385,0.585 26.256,5.844l0.019,0.125Z" style="fill:#fff;"/><path d="M758.981,187.381c5.132,-1.456 12.5,8.041 16.485,21.257c0.096,0.318 0.19,0.637 0.281,0.956l14.103,46.8l-0.031,0.009c0.243,0.716 0.478,1.447 0.703,2.188c3.981,13.215 3.084,25.203 -1.994,26.825l-0.059,0.018c-5.131,1.547 -12.547,-7.968 -16.544,-21.237c-0.225,-0.744 -0.431,-1.481 -0.625,-2.213l-0.019,0.007l-13.937,-46.238c-0.163,-0.497 -0.322,-1 -0.475,-1.509c-3.985,-13.219 -3.088,-25.203 1.994,-26.825l0.118,-0.038Z" style="fill:#f900e1;"/><path d="M889.825,215.078c4.944,2.003 4.928,14.022 -0.047,26.9c-0.122,0.31 -0.244,0.619 -0.365,0.925l-17.619,45.597l-0.028,-0.012c-0.25,0.712 -0.513,1.434 -0.791,2.156c-4.975,12.878 -13.047,21.784 -18.05,19.944l-0.059,-0.022c-5,-1.932 -5.003,-13.994 -0.01,-26.922c0.278,-0.722 0.569,-1.432 0.866,-2.128l-0.019,-0.007l17.403,-45.05c0.178,-0.49 0.363,-0.984 0.553,-1.481c4.975,-12.878 13.044,-21.784 18.05,-19.944l0.06,0.022l0.056,0.022Z" style="fill:#ffe500;"/><path d="M781.991,120.325c-2.816,4.528 -14.657,2.462 -26.497,-4.637c-0.285,-0.172 -0.569,-0.347 -0.85,-0.519l-41.919,-25.141l0.016,-0.028c-0.663,-0.366 -1.325,-0.747 -1.991,-1.147c-11.837,-7.1 -19.237,-16.572 -16.569,-21.187l0.032,-0.053c2.756,-4.597 14.643,-2.544 26.528,4.584c0.665,0.397 1.315,0.803 1.946,1.216l0.013,-0.019l41.416,24.837c0.456,0.26 0.912,0.525 1.368,0.797c11.838,7.1 19.238,16.572 16.572,21.191l-0.034,0.053l-0.031,0.053Z" style="fill:#fff;"/><path d="M976.856,274.213c5.132,-1.457 12.5,8.037 16.485,21.253c0.097,0.322 0.19,0.64 0.281,0.956l14.103,46.803l-0.031,0.009c0.243,0.716 0.478,1.444 0.703,2.188c3.984,13.215 3.084,25.2 -1.994,26.822l-0.059,0.018c-5.131,1.547 -12.547,-7.968 -16.544,-21.237c-0.225,-0.741 -0.431,-1.478 -0.625,-2.209l-0.019,0.006l-13.937,-46.241c-0.163,-0.497 -0.322,-1 -0.475,-1.509c-3.985,-13.216 -3.088,-25.203 1.994,-26.825l0.059,-0.019l0.059,-0.015Z" style="fill:#f900e1;"/><path d="M1051.58,524.534c5.132,-1.453 12.503,8.041 16.485,21.257c0.097,0.318 0.19,0.637 0.281,0.956l14.106,46.8l-0.031,0.009c0.241,0.716 0.475,1.447 0.7,2.188c3.984,13.218 3.087,25.203 -1.994,26.825l-0.059,0.019c-5.131,1.546 -12.544,-7.969 -16.544,-21.238c-0.225,-0.744 -0.431,-1.481 -0.625,-2.212l-0.019,0.006l-13.937,-46.238c-0.163,-0.497 -0.322,-1 -0.475,-1.509c-3.985,-13.219 -3.085,-25.203 1.994,-26.825l0.118,-0.038Z" style="fill:#f900e1;"/><path d="M1020.99,410.259c4.94,2.003 4.925,14.022 -0.051,26.9c-0.121,0.31 -0.243,0.619 -0.365,0.925l-17.616,45.597l-0.031,-0.012c-0.247,0.712 -0.513,1.434 -0.791,2.156c-4.975,12.875 -13.043,21.784 -18.05,19.944l-0.059,-0.022c-5,-1.931 -5.003,-13.994 -0.009,-26.922c0.281,-0.722 0.568,-1.434 0.865,-2.128l-0.019,-0.006l17.404,-45.05c0.178,-0.491 0.362,-0.988 0.553,-1.482c4.975,-12.878 13.047,-21.784 18.05,-19.943l0.119,0.043Z" style="fill:#ffe500;"/><path d="M958.506,423.209c-2.815,4.525 -14.656,2.46 -26.493,-4.64c-0.288,-0.172 -0.572,-0.344 -0.85,-0.519l-41.922,-25.138l0.018,-0.028c-0.662,-0.365 -1.328,-0.75 -1.99,-1.146c-11.838,-7.1 -19.238,-16.572 -16.572,-21.191l0.031,-0.053c2.76,-4.597 14.644,-2.541 26.528,4.584c0.666,0.4 1.316,0.806 1.95,1.216l0.013,-0.016l41.415,24.838c0.454,0.256 0.91,0.522 1.366,0.797c11.841,7.099 19.241,16.571 16.572,21.187l-0.031,0.056l-0.035,0.053Z" style="fill:#fff;"/><path d="M1002.45,675.138c5.128,-1.457 12.5,8.037 16.481,21.256c0.097,0.318 0.191,0.637 0.282,0.953l14.106,46.803l-0.031,0.009c0.243,0.716 0.478,1.447 0.7,2.188c3.984,13.215 3.087,25.203 -1.991,26.825l-0.063,0.019c-5.131,1.546 -12.543,-7.972 -16.543,-21.241c-0.222,-0.741 -0.431,-1.478 -0.625,-2.209l-0.019,0.006l-13.937,-46.238c-0.163,-0.497 -0.319,-1.003 -0.475,-1.512c-3.982,-13.216 -3.085,-25.2 1.993,-26.825l0.06,-0.016l0.062,-0.019Z" style="fill:#f900e1;"/><path d="M1002.45,675.138c5.128,-1.457 12.5,8.037 16.481,21.256c0.097,0.318 0.191,0.637 0.282,0.953l14.106,46.803l-0.031,0.009c0.243,0.716 0.478,1.447 0.7,2.188c3.984,13.215 3.087,25.203 -1.991,26.825l-0.063,0.019c-5.131,1.546 -12.543,-7.972 -16.543,-21.241c-0.222,-0.741 -0.431,-1.478 -0.625,-2.209l-0.019,0.006l-13.937,-46.238c-0.163,-0.497 -0.319,-1.003 -0.475,-1.512c-3.982,-13.216 -3.085,-25.2 1.993,-26.825l0.06,-0.016l0.062,-0.019Z" style="fill:#f900e1;"/><path d="M923.137,664.203c4.941,2.003 4.929,14.022 -0.046,26.9c-0.122,0.309 -0.244,0.619 -0.366,0.925l-17.619,45.597l-0.031,-0.012c-0.247,0.712 -0.509,1.434 -0.788,2.156c-4.974,12.878 -13.046,21.784 -18.049,19.944l-0.06,-0.022c-5,-1.932 -5.003,-13.994 -0.009,-26.922c0.278,-0.722 0.568,-1.432 0.865,-2.128l-0.022,-0.007l17.407,-45.05c0.175,-0.49 0.359,-0.984 0.553,-1.481c4.975,-12.878 13.044,-21.784 18.05,-19.944l0.056,0.022l0.059,0.022Z" style="fill:#ffe500;"/><path d="M1020.13,631.094c-2.815,4.528 -14.656,2.462 -26.496,-4.638c-0.285,-0.172 -0.569,-0.347 -0.847,-0.519l-41.922,-25.14l0.015,-0.028c-0.659,-0.366 -1.325,-0.747 -1.99,-1.147c-11.838,-7.1 -19.238,-16.572 -16.569,-21.188l0.031,-0.053c2.757,-4.597 14.644,-2.543 26.528,4.585c0.666,0.397 1.316,0.803 1.95,1.215l0.01,-0.018l41.418,24.837c0.454,0.259 0.91,0.525 1.366,0.797c11.838,7.1 19.238,16.572 16.572,21.191l-0.031,0.053l-0.035,0.053Z" style="fill:#fff;"/><path d="M698.806,804.512c5.128,-1.456 12.5,8.038 16.482,21.257c0.096,0.318 0.19,0.637 0.281,0.953l14.106,46.803l-0.031,0.009c0.244,0.716 0.478,1.444 0.7,2.188c3.984,13.215 3.087,25.203 -1.994,26.825l-0.059,0.019c-5.132,1.546 -12.544,-7.972 -16.544,-21.241c-0.222,-0.741 -0.431,-1.478 -0.625,-2.209l-0.019,0.006l-13.937,-46.238c-0.163,-0.497 -0.322,-1.003 -0.475,-1.512c-3.982,-13.216 -3.085,-25.203 1.993,-26.825l0.06,-0.019l0.062,-0.016Z" style="fill:#f900e1;"/><path d="M495.15,828.159c5.131,-1.456 12.5,8.038 16.484,21.253c0.097,0.322 0.191,0.641 0.282,0.957l14.106,46.803l-0.031,0.009c0.24,0.716 0.475,1.444 0.7,2.188c3.984,13.215 3.087,25.2 -1.994,26.822l-0.06,0.018c-5.131,1.547 -12.543,-7.968 -16.543,-21.237c-0.225,-0.741 -0.432,-1.478 -0.625,-2.21l-0.019,0.007l-13.938,-46.241c-0.162,-0.497 -0.321,-1 -0.475,-1.509c-3.984,-13.216 -3.087,-25.203 1.994,-26.825l0.06,-0.019l0.059,-0.016Z" style="fill:#f900e1;"/><path d="M853.119,827.072c4.94,2.003 4.925,14.022 -0.05,26.897c-0.119,0.312 -0.241,0.622 -0.366,0.925l-17.616,45.597l-0.031,-0.01c-0.247,0.713 -0.509,1.432 -0.79,2.157c-4.975,12.875 -13.044,21.781 -18.05,19.943l-0.057,-0.022c-5,-1.934 -5.006,-13.996 -0.009,-26.921c0.278,-0.726 0.566,-1.435 0.863,-2.129l-0.019,-0.009l17.406,-45.047c0.175,-0.494 0.359,-0.987 0.553,-1.484c4.975,-12.875 13.044,-21.785 18.047,-19.944l0.059,0.022l0.06,0.025Z" style="fill:#ffe500;"/><path d="M833.944,810.894c-2.816,4.528 -14.657,2.462 -26.494,-4.638c-0.287,-0.172 -0.572,-0.344 -0.85,-0.519l-41.922,-25.14l0.019,-0.028c-0.663,-0.366 -1.328,-0.747 -1.991,-1.147c-11.837,-7.097 -19.237,-16.572 -16.572,-21.188l0.032,-0.053c2.759,-4.597 14.643,-2.544 26.531,4.585c0.662,0.396 1.312,0.803 1.947,1.215l0.012,-0.019l41.416,24.838c0.453,0.259 0.909,0.525 1.365,0.8c11.841,7.097 19.241,16.569 16.572,21.187l-0.031,0.054l-0.034,0.053Z" style="fill:#fff;"/><path d="M574.4,96.65c5.131,-1.456 12.5,8.038 16.484,21.256c0.097,0.319 0.191,0.638 0.282,0.953l14.106,46.804l-0.031,0.009c0.24,0.716 0.475,1.444 0.7,2.187c3.984,13.216 3.087,25.204 -1.994,26.825l-0.06,0.019c-5.131,1.547 -12.543,-7.972 -16.543,-21.24c-0.225,-0.741 -0.432,-1.479 -0.625,-2.21l-0.019,0.006l-13.938,-46.237c-0.162,-0.497 -0.321,-1.003 -0.475,-1.513c-3.984,-13.215 -3.084,-25.203 1.994,-26.825l0.06,-0.018l0.059,-0.016Z" style="fill:#f900e1;"/><path d="M687.547,153.088c4.944,2.003 4.928,14.021 -0.047,26.9c-0.122,0.309 -0.244,0.618 -0.366,0.925l-17.618,45.596l-0.028,-0.012c-0.25,0.715 -0.513,1.434 -0.791,2.156c-4.975,12.878 -13.047,21.784 -18.05,19.944l-0.059,-0.022c-5,-1.931 -5.004,-13.994 -0.01,-26.922c0.278,-0.722 0.569,-1.431 0.866,-2.128l-0.019,-0.006l17.403,-45.047c0.178,-0.494 0.363,-0.988 0.553,-1.484c4.975,-12.879 13.047,-21.785 18.05,-19.944l0.06,0.022l0.056,0.022Z" style="fill:#ffe500;"/><path d="M238.419,248.238c5.131,-1.454 12.5,8.04 16.484,21.256c0.097,0.322 0.191,0.64 0.281,0.956l14.103,46.803l-0.031,0.01c0.244,0.715 0.478,1.443 0.703,2.184c3.985,13.219 3.085,25.203 -1.993,26.825l-0.06,0.019c-5.131,1.547 -12.547,-7.969 -16.544,-21.238c-0.225,-0.74 -0.431,-1.478 -0.625,-2.209l-0.018,0.006l-13.938,-46.241c-0.162,-0.496 -0.322,-1 -0.475,-1.509c-3.984,-13.216 -3.087,-25.203 1.994,-26.825l0.119,-0.037Z" style="fill:#f900e1;"/><path d="M344.244,141.134c4.94,2 4.928,14.022 -0.047,26.897c-0.122,0.313 -0.244,0.622 -0.366,0.925l-17.618,45.597l-0.029,-0.012c-0.25,0.715 -0.512,1.434 -0.79,2.156c-4.975,12.878 -13.047,21.784 -18.05,19.944l-0.06,-0.022c-5,-1.932 -5.003,-13.994 -0.009,-26.922c0.278,-0.722 0.569,-1.431 0.866,-2.125l-0.022,-0.01l17.406,-45.046c0.178,-0.494 0.363,-0.988 0.553,-1.485c4.975,-12.875 13.044,-21.784 18.05,-19.944l0.06,0.022l0.056,0.025Z" style="fill:#ffe500;"/><path d="M192.297,366.956c4.941,2.003 4.925,14.022 -0.05,26.9c-0.119,0.313 -0.241,0.622 -0.366,0.925l-17.615,45.597l-0.032,-0.012c-0.246,0.715 -0.509,1.434 -0.79,2.156c-4.975,12.878 -13.044,21.784 -18.05,19.944l-0.056,-0.022c-5,-1.931 -5.007,-13.994 -0.01,-26.922c0.278,-0.722 0.566,-1.431 0.863,-2.128l-0.019,-0.007l17.406,-45.046c0.175,-0.494 0.36,-0.988 0.553,-1.485c4.975,-12.878 13.044,-21.784 18.047,-19.944l0.119,0.044Z" style="fill:#ffe500;"/><path d="M526.609,66.103c0.697,5.288 -9.759,11.21 -23.415,13.241c-0.328,0.05 -0.66,0.097 -0.985,0.14l-48.347,7.2l-0.006,-0.034c-0.744,0.141 -1.5,0.266 -2.265,0.378c-13.654,2.035 -25.385,-0.584 -26.257,-5.844l-0.009,-0.062c-0.788,-5.3 9.7,-11.263 23.406,-13.303c0.766,-0.116 1.525,-0.216 2.275,-0.3l-0.003,-0.019l47.769,-7.116c0.516,-0.087 1.037,-0.171 1.562,-0.25c13.654,-2.034 25.385,0.585 26.257,5.844l0.018,0.125Z" style="fill:#fff;"/><path d="M511.2,161.319c0.697,5.284 -9.762,11.209 -23.416,13.24c-0.328,0.05 -0.659,0.097 -0.984,0.141l-48.347,7.2l-0.006,-0.034c-0.744,0.137 -1.5,0.265 -2.266,0.378c-13.653,2.034 -25.384,-0.585 -26.256,-5.844l-0.009,-0.063c-0.791,-5.303 9.697,-11.262 23.406,-13.303c0.766,-0.115 1.525,-0.215 2.275,-0.3l-0.003,-0.022l47.769,-7.112c0.515,-0.088 1.034,-0.172 1.562,-0.25c13.653,-2.034 25.384,0.584 26.256,5.844l0.019,0.125Z" style="fill:#fff;"/><path d="M194.478,503.525c5.128,-1.456 12.5,8.037 16.481,21.256c0.097,0.319 0.191,0.638 0.282,0.953l14.106,46.803l-0.031,0.01c0.243,0.715 0.478,1.444 0.7,2.187c3.984,13.216 3.087,25.203 -1.991,26.825l-0.063,0.019c-5.131,1.547 -12.543,-7.972 -16.543,-21.241c-0.222,-0.74 -0.432,-1.478 -0.625,-2.209l-0.019,0.006l-13.937,-46.237c-0.163,-0.497 -0.319,-1.003 -0.475,-1.513c-3.982,-13.215 -3.085,-25.203 1.993,-26.825l0.06,-0.018l0.062,-0.016Z" style="fill:#f900e1;"/><path d="M176.066,661.394c4.943,2.003 4.928,14.022 -0.047,26.9c-0.122,0.309 -0.244,0.618 -0.366,0.925l-17.615,45.597l-0.032,-0.013c-0.247,0.713 -0.512,1.435 -0.79,2.156c-4.975,12.879 -13.047,21.785 -18.05,19.944l-0.06,-0.022c-5,-1.931 -5.003,-13.993 -0.009,-26.922c0.281,-0.721 0.569,-1.431 0.865,-2.128l-0.018,-0.006l17.403,-45.05c0.178,-0.491 0.362,-0.984 0.553,-1.481c4.975,-12.878 13.047,-21.785 18.05,-19.944l0.059,0.022l0.057,0.022Z" style="fill:#ffe500;"/><path d="M152.831,578.403c0.697,5.284 -9.759,11.206 -23.415,13.241c-0.329,0.05 -0.66,0.097 -0.985,0.14l-48.347,7.197l-0.006,-0.031c-0.744,0.137 -1.5,0.266 -2.265,0.378c-13.654,2.034 -25.385,-0.584 -26.257,-5.847l-0.009,-0.059c-0.788,-5.303 9.7,-11.263 23.406,-13.306c0.766,-0.113 1.525,-0.213 2.275,-0.297l-0.003,-0.022l47.769,-7.113c0.515,-0.09 1.037,-0.175 1.562,-0.253c13.653,-2.031 25.385,0.588 26.256,5.847l0.019,0.125Z" style="fill:#fff;"/><path d="M225.353,306.841c0.697,5.284 -9.762,11.209 -23.415,13.24c-0.329,0.05 -0.66,0.097 -0.985,0.141l-48.347,7.2l-0.006,-0.035c-0.744,0.138 -1.5,0.266 -2.266,0.379c-13.653,2.034 -25.384,-0.585 -26.256,-5.844l-0.009,-0.063c-0.788,-5.303 9.697,-11.262 23.406,-13.303c0.766,-0.115 1.525,-0.215 2.275,-0.3l-0.003,-0.022l47.769,-7.112c0.515,-0.088 1.034,-0.172 1.562,-0.25c13.653,-2.035 25.385,0.584 26.256,5.844l0.019,0.125Z" style="fill:#fff;"/><path d="M554.513,1144.54c-31.375,-0.051 -56.81,-22.907 -56.763,-51.007c0.047,-28.103 25.553,-50.875 56.928,-50.822c31.372,0.05 56.806,22.907 56.763,51.007c-0.047,28.1 -25.557,50.871 -56.929,50.822Z" style="fill:#ff7c8c;"/><path d="M782.309,1081.62c-31.678,-0.053 -57.359,-22.909 -57.315,-51.009c0.047,-28.1 25.803,-50.872 57.484,-50.822c31.678,0.053 57.36,22.909 57.316,51.009c-0.047,28.1 -25.803,50.872 -57.485,50.822Z" style="fill:#ff7c8c;"/><path d="M497.806,1086.32l113.535,0.184l0.15,-93.187l-113.532,-0.188l-0.153,93.191Z" style="fill:#ff7c8c;"/><path d="M329.722,1087.83c-31.375,-0.053 -56.803,-24.881 -56.753,-55.413c0.05,-30.531 25.559,-55.274 56.934,-55.225c31.372,0.054 56.803,24.882 56.753,55.413c-0.05,30.531 -25.562,55.275 -56.934,55.225Z" style="fill:#ff7c8c;"/><path d="M273.016,1029.61l113.534,0.185l0.134,-82.966l-113.534,-0.184l-0.134,82.965Z" style="fill:#ff7c8c;"/><path d="M724.281,1027.66l114.913,0.188l0.109,-66.953l-114.912,-0.188l-0.11,66.953Z" style="fill:#ff7c8c;"/><path d="M104.772,295.116c20.522,274.553 115.759,412.584 279.55,608.156c92.159,84.75 236.478,214.487 323.972,226.44c-44.381,10.522 -90.831,16.113 -138.653,16.113c-314.394,0 -569.641,-241.6 -569.641,-539.181c0,-116.025 38.803,-223.541 104.772,-311.528Z" style="fill-opacity:0.04;"/></svg>