<?xml version="1.0" encoding="UTF-8" standalone="no"?><!DOCTYPE svg PUBLIC "-//W3C//DTD SVG 1.1//EN" "http://www.w3.org/Graphics/SVG/1.1/DTD/svg11.dtd"><svg width="100%" height="100%" viewBox="0 0 2084 2084" version="1.1" xmlns="http://www.w3.org/2000/svg" xmlns:xlink="http://www.w3.org/1999/xlink" xml:space="preserve" xmlns:serif="http://www.serif.com/" style="fill-rule:evenodd;clip-rule:evenodd;stroke-linejoin:round;stroke-miterlimit:2;"><path d="M998.067,269.254c419.196,0 759.525,322.129 759.525,718.904c-0,396.775 -340.329,718.909 -759.525,718.909c-419.192,-0 -759.521,-322.134 -759.521,-718.909c-0,-396.775 340.329,-718.904 759.521,-718.904Zm16.987,412.529c203.317,0 368.379,132.38 368.379,295.434c0,163.054 -165.062,295.433 -368.379,295.433c-203.312,0 -368.375,-132.379 -368.375,-295.433c0,-163.055 165.063,-295.434 368.375,-295.434Z" style="fill:#e6d19a;"/><path d="M1000.94,179.3c404.7,0 733.262,309.771 733.262,691.321c0,381.55 -328.563,691.321 -733.263,691.321c-404.7,-0 -733.262,-309.771 -733.262,-691.321c-0,-381.55 328.563,-691.321 733.262,-691.321Zm-6.258,349.204c221.683,0 401.659,144.767 401.659,323.084c-0,178.316 -179.976,323.083 -401.659,323.083c-221.683,-0 -401.662,-144.767 -401.662,-323.084c-0,-178.316 179.979,-323.083 401.662,-323.083Z" style="fill:#ff7c8c;"/><ellipse cx="1128.47" cy="1540.4" rx="75.792" ry="59.775" style="fill:#e6d19a;"/><rect x="1052.83" y="1541.9" width="151.379" height="124.25" style="fill:#e6d19a;"/><ellipse cx="826.729" cy="1541.1" rx="75.792" ry="59.775" style="fill:#e6d19a;"/><rect x="751.088" y="1542.6" width="151.379" height="117.237" style="fill:#e6d19a;"/><path d="M630.733,1279.15c6.842,-1.942 16.667,10.717 21.98,28.342c0.129,0.425 0.254,0.85 0.375,1.27l18.804,62.405l-0.042,0.012c0.325,0.954 0.638,1.929 0.938,2.917c5.308,17.621 4.112,33.604 -2.659,35.766l-0.079,0.025c-6.842,2.063 -16.729,-10.629 -22.058,-28.316c-0.3,-0.992 -0.575,-1.975 -0.834,-2.95l-0.025,0.008l-18.583,-61.65c-0.217,-0.662 -0.429,-1.337 -0.633,-2.017c-5.313,-17.62 -4.117,-33.6 2.658,-35.766l0.079,-0.021l0.079,-0.025Z" style="fill:#f900e1;"/><path d="M765.804,1296.49c6.588,2.671 6.567,18.7 -0.066,35.866c-0.159,0.417 -0.325,0.83 -0.488,1.234l-23.487,60.796l-0.042,-0.017c-0.329,0.954 -0.683,1.912 -1.054,2.875c-6.634,17.171 -17.392,29.046 -24.067,26.592l-0.079,-0.03c-6.667,-2.575 -6.671,-18.658 -0.013,-35.895c0.375,-0.963 0.759,-1.909 1.155,-2.838l-0.025,-0.008l23.204,-60.063c0.237,-0.658 0.483,-1.316 0.737,-1.979c6.634,-17.171 17.396,-29.046 24.067,-26.592l0.158,0.059Z" style="fill:#ffe500;"/><path d="M615.617,1130.12c4.841,-5.205 19.808,0.525 33.487,12.837c0.334,0.3 0.659,0.6 0.979,0.896l48.438,43.608l-0.029,0.034c0.771,0.65 1.541,1.316 2.312,2.008c13.675,12.317 20.938,26.604 16.271,31.963l-0.058,0.062c-4.779,5.313 -19.813,-0.412 -33.542,-12.779c-0.767,-0.688 -1.517,-1.388 -2.242,-2.088l-0.016,0.021l-47.854,-43.083c-0.53,-0.454 -1.059,-0.921 -1.588,-1.396c-13.675,-12.312 -20.937,-26.6 -16.271,-31.958l0.059,-0.063l0.054,-0.062Z" style="fill:#ffe500;"/><path d="M589.825,1226.18c0.933,7.046 -13.013,14.942 -31.217,17.654c-0.441,0.067 -0.879,0.13 -1.316,0.184l-64.463,9.6l-0.008,-0.042c-0.992,0.183 -1.996,0.35 -3.021,0.504c-18.204,2.708 -33.846,-0.779 -35.008,-7.796l-0.013,-0.083c-1.05,-7.067 12.933,-15.017 31.208,-17.737c1.021,-0.15 2.034,-0.284 3.038,-0.396l-0.004,-0.029l63.687,-9.484c0.688,-0.121 1.384,-0.233 2.084,-0.337c18.204,-2.709 33.846,0.783 35.008,7.795l0.025,0.167Z" style="fill:#fff;"/><path d="M1084.09,1261.48c6.587,2.671 6.571,18.696 -0.063,35.862c-0.162,0.417 -0.325,0.83 -0.487,1.234l-23.492,60.796l-0.042,-0.017c-0.329,0.954 -0.679,1.912 -1.05,2.879c-6.633,17.167 -17.396,29.042 -24.066,26.592l-0.08,-0.034c-6.666,-2.574 -6.67,-18.658 -0.012,-35.891c0.371,-0.967 0.758,-1.913 1.154,-2.838l-0.029,-0.012l23.208,-60.063c0.234,-0.658 0.479,-1.316 0.738,-1.979c6.633,-17.166 17.391,-29.046 24.066,-26.591l0.075,0.029l0.08,0.033Z" style="fill:#ffe500;"/><path d="M947.083,1228.54c0.934,7.045 -13.012,14.945 -31.216,17.654c-0.442,0.066 -0.879,0.129 -1.317,0.187l-64.462,9.6l-0.009,-0.046c-0.987,0.184 -1.996,0.355 -3.016,0.505c-18.209,2.712 -33.846,-0.78 -35.009,-7.792l-0.012,-0.083c-1.054,-7.071 12.929,-15.017 31.204,-17.738c1.021,-0.154 2.037,-0.287 3.037,-0.4l-0.004,-0.029l63.688,-9.483c0.687,-0.117 1.383,-0.23 2.083,-0.334c18.204,-2.712 33.846,0.779 35.008,7.792l0.025,0.167Z" style="fill:#fff;"/><path d="M1250.52,429.142c6.842,-1.942 16.667,10.721 21.979,28.341c0.129,0.425 0.254,0.85 0.375,1.275l18.804,62.4l-0.042,0.013c0.325,0.954 0.638,1.929 0.938,2.916c5.308,17.621 4.112,33.605 -2.658,35.767l-0.08,0.025c-6.841,2.063 -16.729,-10.625 -22.058,-28.317c-0.3,-0.991 -0.575,-1.975 -0.833,-2.95l-0.025,0.009l-18.583,-61.65c-0.217,-0.663 -0.43,-1.334 -0.634,-2.013c-5.312,-17.625 -4.116,-33.604 2.659,-35.766l0.158,-0.05Z" style="fill:#f900e1;"/><path d="M1424.98,466.071c6.592,2.671 6.571,18.696 -0.062,35.867c-0.163,0.412 -0.325,0.825 -0.488,1.233l-23.491,60.796l-0.038,-0.017c-0.333,0.95 -0.683,1.913 -1.054,2.875c-6.633,17.171 -17.396,29.046 -24.067,26.592l-0.079,-0.029c-6.667,-2.575 -6.671,-18.659 -0.012,-35.896c0.37,-0.963 0.758,-1.909 1.154,-2.838l-0.025,-0.008l23.204,-60.067c0.237,-0.654 0.483,-1.312 0.737,-1.975c6.634,-17.171 17.392,-29.046 24.067,-26.592l0.079,0.03l0.075,0.029Z" style="fill:#ffe500;"/><path d="M1281.2,339.733c-3.754,6.038 -19.542,3.284 -35.329,-6.183c-0.379,-0.229 -0.758,-0.462 -1.133,-0.692l-55.892,-33.52l0.021,-0.038c-0.884,-0.487 -1.767,-0.996 -2.654,-1.529c-15.784,-9.467 -25.65,-22.096 -22.092,-28.25l0.042,-0.071c3.675,-6.129 19.525,-3.392 35.37,6.113c0.888,0.529 1.755,1.07 2.596,1.62l0.017,-0.025l55.221,33.117c0.608,0.346 1.216,0.7 1.825,1.063c15.783,9.466 25.65,22.095 22.096,28.254l-0.046,0.07l-0.042,0.071Z" style="fill:#fff;"/><path d="M1541.02,544.917c6.842,-1.942 16.667,10.716 21.979,28.337c0.129,0.429 0.254,0.854 0.375,1.275l18.804,62.404l-0.042,0.013c0.325,0.954 0.638,1.925 0.938,2.916c5.312,17.621 4.112,33.6 -2.658,35.763l-0.08,0.025c-6.841,2.062 -16.729,-10.625 -22.058,-28.317c-0.3,-0.987 -0.575,-1.971 -0.833,-2.946l-0.025,0.009l-18.583,-61.654c-0.217,-0.663 -0.43,-1.334 -0.634,-2.013c-5.312,-17.621 -4.116,-33.604 2.659,-35.767l0.079,-0.024l0.079,-0.021Z" style="fill:#f900e1;"/><path d="M1640.65,878.679c6.842,-1.937 16.671,10.721 21.979,28.342c0.13,0.425 0.255,0.85 0.375,1.275l18.809,62.4l-0.042,0.012c0.321,0.955 0.633,1.93 0.933,2.917c5.313,17.625 4.117,33.604 -2.658,35.767l-0.079,0.025c-6.842,2.062 -16.725,-10.625 -22.059,-28.317c-0.3,-0.992 -0.574,-1.975 -0.833,-2.95l-0.025,0.008l-18.583,-61.65c-0.217,-0.662 -0.429,-1.333 -0.633,-2.012c-5.313,-17.625 -4.113,-33.604 2.658,-35.767l0.158,-0.05Z" style="fill:#f900e1;"/><path d="M1599.86,726.313c6.587,2.67 6.566,18.695 -0.067,35.866c-0.163,0.413 -0.325,0.825 -0.488,1.234l-23.487,60.795l-0.042,-0.016c-0.329,0.95 -0.683,1.912 -1.054,2.875c-6.633,17.166 -17.392,29.046 -24.067,26.591l-0.079,-0.029c-6.667,-2.575 -6.671,-18.658 -0.012,-35.896c0.375,-0.962 0.758,-1.912 1.154,-2.837l-0.025,-0.009l23.204,-60.066c0.238,-0.654 0.483,-1.317 0.738,-1.975c6.633,-17.171 17.395,-29.046 24.066,-26.592l0.159,0.058Z" style="fill:#ffe500;"/><path d="M1516.55,743.579c-3.754,6.034 -19.541,3.279 -35.325,-6.187c-0.383,-0.23 -0.762,-0.459 -1.133,-0.692l-55.896,-33.517l0.025,-0.037c-0.883,-0.488 -1.771,-1 -2.654,-1.529c-15.784,-9.467 -25.65,-22.096 -22.096,-28.254l0.042,-0.071c3.679,-6.129 19.525,-3.388 35.37,6.112c0.888,0.534 1.755,1.075 2.601,1.621l0.016,-0.021l55.221,33.117c0.604,0.342 1.212,0.696 1.821,1.062c15.787,9.467 25.654,22.096 22.096,28.25l-0.042,0.075l-0.046,0.071Z" style="fill:#fff;"/><path d="M1575.15,1079.48c6.838,-1.941 16.667,10.717 21.975,28.342c0.129,0.425 0.254,0.85 0.375,1.271l18.808,62.404l-0.041,0.013c0.325,0.954 0.637,1.929 0.933,2.916c5.313,17.621 4.117,33.604 -2.654,35.767l-0.083,0.025c-6.842,2.062 -16.725,-10.629 -22.059,-28.321c-0.296,-0.988 -0.575,-1.971 -0.833,-2.946l-0.025,0.008l-18.583,-61.65c-0.217,-0.662 -0.425,-1.337 -0.634,-2.016c-5.308,-17.621 -4.112,-33.6 2.659,-35.767l0.079,-0.021l0.083,-0.025Z" style="fill:#f900e1;"/><path d="M1575.15,1079.48c6.838,-1.941 16.667,10.717 21.975,28.342c0.129,0.425 0.254,0.85 0.375,1.271l18.808,62.404l-0.041,0.013c0.325,0.954 0.637,1.929 0.933,2.916c5.313,17.621 4.117,33.604 -2.654,35.767l-0.083,0.025c-6.842,2.062 -16.725,-10.629 -22.059,-28.321c-0.296,-0.988 -0.575,-1.971 -0.833,-2.946l-0.025,0.008l-18.583,-61.65c-0.217,-0.662 -0.425,-1.337 -0.634,-2.016c-5.308,-17.621 -4.112,-33.6 2.659,-35.767l0.079,-0.021l0.083,-0.025Z" style="fill:#f900e1;"/><path d="M1469.4,1064.9c6.587,2.671 6.571,18.696 -0.063,35.867c-0.162,0.412 -0.325,0.825 -0.487,1.233l-23.492,60.796l-0.041,-0.017c-0.33,0.95 -0.68,1.913 -1.05,2.875c-6.634,17.171 -17.396,29.046 -24.067,26.592l-0.079,-0.029c-6.667,-2.575 -6.671,-18.659 -0.013,-35.896c0.371,-0.963 0.759,-1.908 1.154,-2.838l-0.029,-0.008l23.208,-60.067c0.234,-0.654 0.48,-1.312 0.738,-1.975c6.633,-17.17 17.392,-29.045 24.067,-26.591l0.075,0.029l0.079,0.029Z" style="fill:#ffe500;"/><path d="M1598.73,1020.76c-3.754,6.038 -19.542,3.284 -35.329,-6.183c-0.379,-0.229 -0.758,-0.462 -1.129,-0.692l-55.896,-33.52l0.021,-0.038c-0.88,-0.487 -1.767,-0.996 -2.655,-1.529c-15.783,-9.467 -25.65,-22.096 -22.091,-28.25l0.041,-0.071c3.675,-6.129 19.525,-3.392 35.371,6.113c0.888,0.529 1.754,1.07 2.6,1.62l0.013,-0.025l55.225,33.117c0.604,0.346 1.212,0.7 1.821,1.063c15.783,9.466 25.65,22.095 22.095,28.254l-0.041,0.071l-0.046,0.07Z" style="fill:#fff;"/><path d="M1170.29,1251.98c6.837,-1.941 16.666,10.717 21.975,28.342c0.129,0.425 0.254,0.85 0.375,1.271l18.808,62.404l-0.042,0.013c0.325,0.954 0.638,1.925 0.934,2.916c5.312,17.621 4.116,33.604 -2.659,35.767l-0.079,0.025c-6.842,2.062 -16.725,-10.629 -22.058,-28.321c-0.296,-0.988 -0.575,-1.971 -0.834,-2.946l-0.025,0.008l-18.583,-61.65c-0.217,-0.662 -0.429,-1.337 -0.633,-2.016c-5.309,-17.621 -4.113,-33.604 2.658,-35.767l0.079,-0.025l0.084,-0.021Z" style="fill:#f900e1;"/><path d="M898.746,1283.51c6.842,-1.942 16.667,10.716 21.979,28.337c0.129,0.429 0.254,0.854 0.375,1.275l18.808,62.404l-0.041,0.013c0.321,0.954 0.633,1.925 0.933,2.916c5.313,17.621 4.117,33.6 -2.658,35.763l-0.079,0.025c-6.842,2.062 -16.725,-10.625 -22.059,-28.317c-0.3,-0.987 -0.575,-1.971 -0.833,-2.946l-0.025,0.009l-18.583,-61.655c-0.217,-0.662 -0.43,-1.333 -0.634,-2.012c-5.312,-17.621 -4.116,-33.604 2.659,-35.767l0.079,-0.025l0.079,-0.021Z" style="fill:#f900e1;"/><path d="M1376.04,1282.06c6.587,2.67 6.566,18.695 -0.067,35.862c-0.159,0.417 -0.321,0.829 -0.488,1.233l-23.487,60.796l-0.042,-0.012c-0.329,0.95 -0.679,1.908 -1.054,2.875c-6.633,17.166 -17.392,29.041 -24.067,26.591l-0.075,-0.029c-6.666,-2.579 -6.675,-18.662 -0.012,-35.896c0.371,-0.966 0.754,-1.912 1.15,-2.837l-0.025,-0.013l23.208,-60.062c0.234,-0.659 0.479,-1.317 0.738,-1.979c6.633,-17.167 17.391,-29.046 24.062,-26.592l0.079,0.029l0.08,0.033Z" style="fill:#ffe500;"/><path d="M1350.47,1260.49c-3.754,6.037 -19.542,3.283 -35.325,-6.184c-0.383,-0.229 -0.763,-0.458 -1.133,-0.691l-55.896,-33.521l0.025,-0.038c-0.884,-0.487 -1.771,-0.995 -2.655,-1.529c-15.783,-9.462 -25.65,-22.096 -22.095,-28.25l0.041,-0.071c3.679,-6.129 19.525,-3.391 35.375,6.113c0.884,0.529 1.75,1.071 2.596,1.621l0.017,-0.025l55.221,33.116c0.604,0.346 1.212,0.7 1.82,1.067c15.788,9.462 25.655,22.092 22.096,28.25l-0.041,0.071l-0.046,0.071Z" style="fill:#fff;"/><path d="M1004.41,308.167c6.841,-1.942 16.666,10.716 21.979,28.341c0.129,0.425 0.254,0.85 0.375,1.271l18.808,62.404l-0.042,0.013c0.321,0.954 0.634,1.925 0.934,2.917c5.312,17.62 4.116,33.604 -2.659,35.766l-0.079,0.025c-6.841,2.063 -16.725,-10.629 -22.058,-28.321c-0.3,-0.987 -0.575,-1.97 -0.833,-2.945l-0.025,0.008l-18.584,-61.65c-0.217,-0.663 -0.429,-1.338 -0.633,-2.017c-5.313,-17.621 -4.113,-33.604 2.658,-35.766l0.079,-0.025l0.08,-0.021Z" style="fill:#f900e1;"/><path d="M1155.28,383.417c6.592,2.671 6.571,18.695 -0.062,35.866c-0.163,0.413 -0.325,0.825 -0.488,1.234l-23.492,60.796l-0.037,-0.017c-0.333,0.954 -0.683,1.912 -1.054,2.875c-6.634,17.171 -17.396,29.046 -24.067,26.592l-0.079,-0.03c-6.667,-2.575 -6.671,-18.658 -0.013,-35.895c0.371,-0.963 0.759,-1.909 1.155,-2.838l-0.025,-0.008l23.204,-60.063c0.237,-0.658 0.483,-1.317 0.737,-1.979c6.634,-17.171 17.396,-29.046 24.067,-26.592l0.079,0.029l0.075,0.03Z" style="fill:#ffe500;"/><path d="M556.438,510.283c6.841,-1.937 16.666,10.721 21.979,28.342c0.129,0.429 0.254,0.854 0.375,1.275l18.804,62.404l-0.042,0.013c0.325,0.954 0.638,1.925 0.938,2.912c5.312,17.625 4.112,33.604 -2.659,35.767l-0.079,0.025c-6.841,2.062 -16.729,-10.625 -22.058,-28.317c-0.3,-0.987 -0.575,-1.971 -0.833,-2.946l-0.026,0.009l-18.583,-61.654c-0.217,-0.663 -0.429,-1.334 -0.633,-2.013c-5.313,-17.621 -4.117,-33.604 2.658,-35.767l0.159,-0.05Z" style="fill:#f900e1;"/><path d="M697.538,367.479c6.587,2.667 6.57,18.696 -0.063,35.863c-0.162,0.416 -0.325,0.829 -0.487,1.233l-23.492,60.796l-0.038,-0.017c-0.333,0.954 -0.683,1.913 -1.054,2.875c-6.633,17.171 -17.396,29.046 -24.066,26.592l-0.08,-0.029c-6.666,-2.575 -6.67,-18.659 -0.012,-35.896c0.371,-0.963 0.758,-1.908 1.154,-2.834l-0.029,-0.012l23.208,-60.063c0.238,-0.658 0.484,-1.316 0.738,-1.979c6.633,-17.166 17.391,-29.046 24.066,-26.591l0.079,0.029l0.076,0.033Z" style="fill:#ffe500;"/><path d="M494.942,668.575c6.587,2.671 6.566,18.696 -0.067,35.867c-0.158,0.416 -0.321,0.829 -0.488,1.233l-23.487,60.796l-0.042,-0.017c-0.329,0.954 -0.679,1.913 -1.054,2.875c-6.633,17.171 -17.392,29.046 -24.067,26.592l-0.075,-0.029c-6.666,-2.575 -6.675,-18.659 -0.012,-35.896c0.371,-0.963 0.754,-1.908 1.15,-2.838l-0.025,-0.008l23.208,-60.063c0.234,-0.658 0.479,-1.316 0.738,-1.979c6.633,-17.17 17.392,-29.045 24.062,-26.591l0.159,0.058Z" style="fill:#ffe500;"/><path d="M940.692,267.438c0.929,7.05 -13.013,14.945 -31.221,17.654c-0.438,0.066 -0.879,0.129 -1.313,0.187l-64.462,9.6l-0.009,-0.046c-0.991,0.188 -2,0.354 -3.02,0.505c-18.205,2.712 -33.846,-0.78 -35.009,-7.792l-0.012,-0.084c-1.05,-7.066 12.933,-15.016 31.208,-17.737c1.021,-0.154 2.034,-0.288 3.034,-0.4l-0.005,-0.025l63.692,-9.488c0.688,-0.116 1.383,-0.229 2.083,-0.333c18.205,-2.712 33.846,0.779 35.009,7.792l0.025,0.166Z" style="fill:#fff;"/><path d="M920.146,394.392c0.929,7.046 -13.017,14.946 -31.221,17.654c-0.437,0.067 -0.879,0.129 -1.312,0.187l-64.463,9.6l-0.008,-0.046c-0.992,0.184 -2,0.355 -3.021,0.505c-18.204,2.712 -33.846,-0.78 -35.008,-7.792l-0.013,-0.083c-1.054,-7.071 12.929,-15.017 31.208,-17.738c1.021,-0.154 2.034,-0.287 3.034,-0.4l-0.004,-0.029l63.691,-9.483c0.688,-0.117 1.379,-0.23 2.084,-0.334c18.204,-2.712 33.845,0.779 35.008,7.792l0.025,0.167Z" style="fill:#fff;"/><path d="M497.85,850.667c6.838,-1.942 16.667,10.716 21.975,28.341c0.129,0.425 0.254,0.85 0.375,1.271l18.808,62.404l-0.041,0.013c0.325,0.954 0.637,1.925 0.933,2.916c5.313,17.621 4.117,33.605 -2.654,35.767l-0.083,0.025c-6.842,2.063 -16.726,-10.629 -22.059,-28.321c-0.296,-0.987 -0.575,-1.971 -0.833,-2.946l-0.025,0.009l-18.584,-61.65c-0.216,-0.663 -0.425,-1.338 -0.633,-2.017c-5.308,-17.621 -4.112,-33.604 2.658,-35.767l0.08,-0.024l0.083,-0.021Z" style="fill:#f900e1;"/><path d="M473.3,1061.16c6.592,2.671 6.571,18.696 -0.063,35.867c-0.162,0.412 -0.325,0.825 -0.487,1.233l-23.488,60.796l-0.041,-0.017c-0.329,0.95 -0.684,1.913 -1.054,2.875c-6.634,17.171 -17.396,29.046 -24.067,26.592l-0.079,-0.029c-6.667,-2.575 -6.671,-18.658 -0.013,-35.896c0.375,-0.962 0.759,-1.908 1.154,-2.837l-0.025,-0.009l23.205,-60.066c0.237,-0.655 0.483,-1.313 0.737,-1.975c6.633,-17.171 17.396,-29.046 24.067,-26.592l0.079,0.029l0.075,0.029Z" style="fill:#ffe500;"/><path d="M442.321,950.504c0.929,7.046 -13.013,14.942 -31.221,17.654c-0.438,0.067 -0.879,0.13 -1.313,0.188l-64.462,9.596l-0.008,-0.042c-0.992,0.183 -2,0.354 -3.021,0.504c-18.204,2.713 -33.846,-0.779 -35.008,-7.796l-0.013,-0.079c-1.05,-7.071 12.933,-15.017 31.208,-17.741c1.021,-0.15 2.034,-0.284 3.034,-0.396l-0.005,-0.03l63.692,-9.483c0.688,-0.121 1.383,-0.233 2.083,-0.337c18.205,-2.709 33.846,0.783 35.009,7.795l0.025,0.167Z" style="fill:#fff;"/><path d="M539.017,588.421c0.929,7.046 -13.017,14.946 -31.221,17.654c-0.438,0.067 -0.879,0.129 -1.313,0.187l-64.462,9.6l-0.008,-0.045c-0.992,0.183 -2.001,0.354 -3.021,0.504c-18.204,2.712 -33.846,-0.779 -35.009,-7.792l-0.012,-0.083c-1.05,-7.071 12.929,-15.017 31.208,-17.738c1.021,-0.154 2.034,-0.287 3.033,-0.4l-0.004,-0.029l63.692,-9.483c0.688,-0.117 1.379,-0.229 2.083,-0.334c18.204,-2.712 33.846,0.78 35.009,7.792l0.025,0.167Z" style="fill:#fff;"/><path d="M977.896,1705.35c-41.833,-0.067 -75.746,-30.542 -75.683,-68.008c0.062,-37.471 34.07,-67.834 75.904,-67.763c41.829,0.067 75.741,30.542 75.683,68.008c-0.063,37.467 -34.075,67.83 -75.904,67.763Z" style="fill:#ff7c8c;"/><path d="M1281.62,1621.47c-42.237,-0.071 -76.479,-30.546 -76.421,-68.013c0.063,-37.467 34.404,-67.829 76.646,-67.762c42.237,0.071 76.479,30.546 76.421,68.012c-0.063,37.467 -34.404,67.829 -76.646,67.763Z" style="fill:#ff7c8c;"/><path d="M902.288,1627.73l151.379,0.246l0.2,-124.25l-151.375,-0.25l-0.204,124.254Z" style="fill:#ff7c8c;"/><path d="M678.175,1629.73c-41.833,-0.07 -75.737,-33.175 -75.671,-73.883c0.067,-40.708 34.079,-73.7 75.913,-73.633c41.829,0.071 75.737,33.175 75.67,73.883c-0.066,40.708 -34.083,73.7 -75.912,73.633Z" style="fill:#ff7c8c;"/><path d="M602.567,1552.11l151.379,0.245l0.179,-110.62l-151.379,-0.246l-0.179,110.621Z" style="fill:#ff7c8c;"/><path d="M1204.25,1549.52l153.217,0.25l0.146,-89.271l-153.217,-0.25l-0.146,89.271Z" style="fill:#ff7c8c;"/><path d="M378.242,572.788c27.362,366.07 154.345,550.112 372.733,810.875c122.879,113 315.304,285.983 431.963,301.92c-59.175,14.03 -121.109,21.484 -184.871,21.484c-419.192,-0 -759.521,-322.134 -759.521,-718.909c-0,-154.7 51.737,-298.054 139.696,-415.37Z" style="fill-opacity:0.04;"/></svg>