<?xml version="1.0" encoding="UTF-8" standalone="no"?><!DOCTYPE svg PUBLIC "-//W3C//DTD SVG 1.1//EN" "http://www.w3.org/Graphics/SVG/1.1/DTD/svg11.dtd"><svg width="100%" height="100%" viewBox="0 0 500 500" version="1.1" xmlns="http://www.w3.org/2000/svg" xmlns:xlink="http://www.w3.org/1999/xlink" xml:space="preserve" xmlns:serif="http://www.serif.com/" style="fill-rule:evenodd;clip-rule:evenodd;stroke-linejoin:round;stroke-miterlimit:2;"><path d="M239.536,64.621c100.607,0 182.286,77.311 182.286,172.537c-0,95.226 -81.679,172.538 -182.286,172.538c-100.606,-0 -182.285,-77.312 -182.285,-172.538c-0,-95.226 81.679,-172.537 182.285,-172.537Zm4.077,99.007c48.796,-0 88.411,31.771 88.411,70.904c0,39.133 -39.615,70.904 -88.411,70.904c-48.795,0 -88.41,-31.771 -88.41,-70.904c-0,-39.133 39.615,-70.904 88.41,-70.904Z" style="fill:#e6d19a;"/><path d="M240.225,43.032c97.128,0 175.983,74.345 175.983,165.917c0,91.572 -78.855,165.917 -175.983,165.917c-97.128,-0 -175.983,-74.345 -175.983,-165.917c-0,-91.572 78.855,-165.917 175.983,-165.917Zm-1.502,83.809c53.204,-0 96.398,34.744 96.398,77.54c0,42.796 -43.194,77.54 -96.398,77.54c-53.204,0 -96.399,-34.744 -96.399,-77.54c0,-42.796 43.195,-77.54 96.399,-77.54Z" style="fill:#ff7c8c;"/><ellipse cx="270.833" cy="369.696" rx="18.19" ry="14.346" style="fill:#e6d19a;"/><rect x="252.678" y="370.055" width="36.331" height="29.82" style="fill:#e6d19a;"/><ellipse cx="198.415" cy="369.864" rx="18.19" ry="14.346" style="fill:#e6d19a;"/><rect x="180.261" y="370.223" width="36.331" height="28.137" style="fill:#e6d19a;"/><path d="M151.376,306.996c1.642,-0.466 4,2.572 5.275,6.802c0.031,0.102 0.061,0.204 0.09,0.305l4.513,14.977l-0.01,0.003c0.078,0.229 0.153,0.463 0.225,0.7c1.274,4.229 0.987,8.065 -0.638,8.584l-0.019,0.006c-1.642,0.495 -4.015,-2.551 -5.294,-6.796c-0.072,-0.238 -0.138,-0.474 -0.2,-0.708l-0.006,0.002l-4.46,-14.796c-0.052,-0.159 -0.103,-0.321 -0.152,-0.484c-1.275,-4.229 -0.988,-8.064 0.638,-8.584l0.019,-0.005l0.019,-0.006Z" style="fill:#f900e1;"/><path d="M183.793,311.158c1.581,0.641 1.576,4.488 -0.016,8.608c-0.038,0.1 -0.078,0.199 -0.117,0.296l-5.637,14.591l-0.01,-0.004c-0.079,0.229 -0.164,0.459 -0.253,0.69c-1.592,4.121 -4.174,6.971 -5.776,6.382l-0.019,-0.007c-1.6,-0.618 -1.601,-4.478 -0.003,-8.615c0.09,-0.231 0.182,-0.458 0.277,-0.681l-0.006,-0.002l5.569,-14.415c0.057,-0.158 0.116,-0.316 0.177,-0.475c1.592,-4.121 4.175,-6.971 5.776,-6.382l0.019,0.007l0.019,0.007Z" style="fill:#ffe500;"/><path d="M147.748,271.228c1.162,-1.249 4.754,0.126 8.037,3.081c0.08,0.072 0.158,0.144 0.235,0.215l11.625,10.466l-0.007,0.008c0.185,0.156 0.37,0.316 0.555,0.482c3.282,2.956 5.025,6.385 3.905,7.671l-0.014,0.015c-1.147,1.275 -4.755,-0.099 -8.05,-3.067c-0.184,-0.165 -0.364,-0.333 -0.538,-0.501l-0.004,0.005l-11.485,-10.34c-0.127,-0.109 -0.254,-0.221 -0.381,-0.335c-3.282,-2.955 -5.025,-6.384 -3.905,-7.67l0.014,-0.015l0.013,-0.015Z" style="fill:#ffe500;"/><path d="M141.558,294.283c0.224,1.691 -3.123,3.586 -7.492,4.237c-0.106,0.016 -0.211,0.031 -0.316,0.044l-15.471,2.304l-0.002,-0.01c-0.238,0.044 -0.479,0.084 -0.725,0.121c-4.369,0.65 -8.123,-0.187 -8.402,-1.871l-0.003,-0.02c-0.252,-1.696 3.104,-3.604 7.49,-4.257c0.245,-0.036 0.488,-0.068 0.729,-0.095l-0.001,-0.007l15.285,-2.276c0.165,-0.029 0.332,-0.056 0.5,-0.081c4.369,-0.65 8.123,0.188 8.402,1.871l0.003,0.02l0.003,0.02Z" style="fill:#fff;"/><path d="M260.182,302.754c1.581,0.641 1.577,4.487 -0.015,8.607c-0.039,0.1 -0.078,0.199 -0.117,0.296l-5.638,14.591l-0.01,-0.004c-0.079,0.229 -0.163,0.459 -0.252,0.691c-1.592,4.12 -4.175,6.97 -5.776,6.382l-0.019,-0.008c-1.6,-0.618 -1.601,-4.478 -0.003,-8.614c0.089,-0.232 0.182,-0.459 0.277,-0.681l-0.007,-0.003l5.57,-14.415c0.056,-0.158 0.115,-0.316 0.177,-0.475c1.592,-4.12 4.174,-6.971 5.776,-6.382l0.018,0.007l0.019,0.008Z" style="fill:#ffe500;"/><path d="M227.3,294.849c0.224,1.691 -3.123,3.587 -7.492,4.237c-0.106,0.016 -0.211,0.031 -0.316,0.045l-15.471,2.304l-0.002,-0.011c-0.237,0.044 -0.479,0.085 -0.724,0.121c-4.37,0.651 -8.123,-0.187 -8.402,-1.87l-0.003,-0.02c-0.253,-1.697 3.103,-3.604 7.489,-4.257c0.245,-0.037 0.489,-0.069 0.729,-0.096l-0.001,-0.007l15.285,-2.276c0.165,-0.028 0.332,-0.055 0.5,-0.08c4.369,-0.651 8.123,0.187 8.402,1.87l0.003,0.02l0.003,0.02Z" style="fill:#fff;"/><path d="M300.125,102.994c1.642,-0.466 4,2.573 5.275,6.802c0.031,0.102 0.061,0.204 0.09,0.306l4.513,14.976l-0.01,0.003c0.078,0.229 0.153,0.463 0.225,0.7c1.274,4.229 0.987,8.065 -0.638,8.584l-0.019,0.006c-1.642,0.495 -4.015,-2.55 -5.294,-6.796c-0.072,-0.238 -0.138,-0.474 -0.2,-0.708l-0.006,0.002l-4.46,-14.796c-0.052,-0.159 -0.103,-0.32 -0.152,-0.483c-1.275,-4.23 -0.988,-8.065 0.638,-8.584l0.019,-0.006l0.019,-0.006Z" style="fill:#f900e1;"/><path d="M341.995,111.857c1.582,0.641 1.577,4.487 -0.015,8.608c-0.039,0.099 -0.078,0.198 -0.117,0.296l-5.638,14.591l-0.009,-0.004c-0.08,0.228 -0.164,0.459 -0.253,0.69c-1.592,4.121 -4.175,6.971 -5.776,6.382l-0.019,-0.007c-1.6,-0.618 -1.601,-4.478 -0.003,-8.615c0.089,-0.231 0.182,-0.458 0.277,-0.681l-0.006,-0.002l5.569,-14.416c0.057,-0.157 0.116,-0.315 0.177,-0.474c1.592,-4.121 4.174,-6.971 5.776,-6.382l0.019,0.007l0.018,0.007Z" style="fill:#ffe500;"/><path d="M307.488,81.536c-0.901,1.449 -4.69,0.788 -8.479,-1.484c-0.091,-0.055 -0.182,-0.111 -0.272,-0.166l-13.414,-8.045l0.005,-0.009c-0.212,-0.117 -0.424,-0.239 -0.637,-0.367c-3.788,-2.272 -6.156,-5.303 -5.302,-6.78l0.01,-0.017c0.882,-1.471 4.686,-0.814 8.489,1.467c0.213,0.127 0.421,0.257 0.623,0.389l0.004,-0.006l13.253,7.948c0.146,0.083 0.292,0.168 0.438,0.255c3.788,2.272 6.156,5.303 5.303,6.781l-0.011,0.017l-0.01,0.017Z" style="fill:#fff;"/><path d="M369.845,130.78c1.642,-0.466 4,2.572 5.275,6.801c0.031,0.103 0.061,0.205 0.09,0.306l4.513,14.977l-0.01,0.003c0.078,0.229 0.153,0.462 0.225,0.7c1.275,4.229 0.987,8.064 -0.638,8.583l-0.019,0.006c-1.642,0.495 -4.015,-2.55 -5.294,-6.796c-0.072,-0.237 -0.138,-0.473 -0.2,-0.707l-0.006,0.002l-4.46,-14.797c-0.052,-0.159 -0.103,-0.32 -0.152,-0.483c-1.275,-4.229 -0.988,-8.065 0.638,-8.584l0.019,-0.006l0.019,-0.005Z" style="fill:#f900e1;"/><path d="M393.757,210.883c1.642,-0.465 4.001,2.573 5.275,6.802c0.031,0.102 0.061,0.204 0.09,0.306l4.514,14.976l-0.01,0.003c0.077,0.229 0.152,0.463 0.224,0.7c1.275,4.23 0.988,8.065 -0.638,8.584l-0.019,0.006c-1.642,0.495 -4.014,-2.55 -5.294,-6.796c-0.072,-0.238 -0.138,-0.474 -0.2,-0.708l-0.006,0.002l-4.46,-14.796c-0.052,-0.159 -0.103,-0.32 -0.152,-0.483c-1.275,-4.23 -0.987,-8.065 0.638,-8.584l0.019,-0.006l0.019,-0.006Z" style="fill:#f900e1;"/><path d="M383.967,174.315c1.581,0.641 1.576,4.487 -0.016,8.608c-0.039,0.099 -0.078,0.198 -0.117,0.296l-5.637,14.591l-0.01,-0.004c-0.079,0.228 -0.164,0.459 -0.253,0.69c-1.592,4.12 -4.174,6.971 -5.776,6.382l-0.019,-0.007c-1.6,-0.618 -1.601,-4.478 -0.003,-8.615c0.09,-0.231 0.182,-0.459 0.277,-0.681l-0.006,-0.002l5.569,-14.416c0.057,-0.157 0.116,-0.316 0.177,-0.474c1.592,-4.121 4.175,-6.971 5.776,-6.382l0.019,0.007l0.019,0.007Z" style="fill:#ffe500;"/><path d="M363.973,178.459c-0.901,1.448 -4.69,0.787 -8.478,-1.485c-0.092,-0.055 -0.183,-0.11 -0.272,-0.166l-13.415,-8.044l0.006,-0.009c-0.212,-0.117 -0.425,-0.24 -0.637,-0.367c-3.788,-2.272 -6.156,-5.303 -5.303,-6.781l0.01,-0.017c0.883,-1.471 4.686,-0.813 8.489,1.467c0.213,0.128 0.421,0.258 0.624,0.389l0.004,-0.005l13.253,7.948c0.145,0.082 0.291,0.167 0.437,0.255c3.789,2.272 6.157,5.303 5.303,6.78l-0.01,0.018l-0.011,0.017Z" style="fill:#fff;"/><path d="M378.036,259.076c1.641,-0.466 4,2.572 5.274,6.802c0.031,0.102 0.061,0.204 0.09,0.305l4.514,14.977l-0.01,0.003c0.078,0.229 0.153,0.463 0.224,0.7c1.275,4.229 0.988,8.065 -0.637,8.584l-0.02,0.006c-1.642,0.495 -4.014,-2.551 -5.294,-6.797c-0.071,-0.237 -0.138,-0.473 -0.2,-0.707l-0.006,0.002l-4.46,-14.796c-0.052,-0.159 -0.102,-0.321 -0.152,-0.484c-1.274,-4.229 -0.987,-8.064 0.638,-8.584l0.019,-0.005l0.02,-0.006Z" style="fill:#f900e1;"/><path d="M378.036,259.076c1.641,-0.466 4,2.572 5.274,6.802c0.031,0.102 0.061,0.204 0.09,0.305l4.514,14.977l-0.01,0.003c0.078,0.229 0.153,0.463 0.224,0.7c1.275,4.229 0.988,8.065 -0.637,8.584l-0.02,0.006c-1.642,0.495 -4.014,-2.551 -5.294,-6.797c-0.071,-0.237 -0.138,-0.473 -0.2,-0.707l-0.006,0.002l-4.46,-14.796c-0.052,-0.159 -0.102,-0.321 -0.152,-0.484c-1.274,-4.229 -0.987,-8.064 0.638,-8.584l0.019,-0.005l0.02,-0.006Z" style="fill:#f900e1;"/><path d="M352.655,255.577c1.581,0.641 1.577,4.487 -0.015,8.608c-0.039,0.099 -0.078,0.198 -0.117,0.296l-5.638,14.591l-0.01,-0.004c-0.079,0.228 -0.163,0.459 -0.252,0.69c-1.592,4.121 -4.175,6.971 -5.776,6.382l-0.019,-0.007c-1.6,-0.618 -1.601,-4.478 -0.003,-8.615c0.089,-0.231 0.182,-0.458 0.277,-0.681l-0.007,-0.002l5.57,-14.416c0.056,-0.157 0.115,-0.315 0.177,-0.474c1.592,-4.121 4.174,-6.971 5.776,-6.382l0.018,0.007l0.019,0.007Z" style="fill:#ffe500;"/><path d="M383.694,244.982c-0.901,1.449 -4.69,0.788 -8.479,-1.484c-0.091,-0.055 -0.182,-0.111 -0.271,-0.166l-13.415,-8.045l0.005,-0.009c-0.211,-0.117 -0.424,-0.239 -0.637,-0.367c-3.788,-2.272 -6.156,-5.303 -5.302,-6.78l0.01,-0.017c0.882,-1.471 4.686,-0.814 8.489,1.467c0.213,0.127 0.421,0.257 0.624,0.389l0.003,-0.006l13.254,7.948c0.145,0.083 0.291,0.168 0.437,0.255c3.788,2.272 6.156,5.303 5.303,6.781l-0.01,0.017l-0.011,0.017Z" style="fill:#fff;"/><path d="M280.869,300.476c1.641,-0.466 4,2.572 5.274,6.802c0.031,0.102 0.061,0.204 0.09,0.305l4.514,14.977l-0.01,0.003c0.078,0.229 0.153,0.462 0.224,0.7c1.275,4.229 0.988,8.065 -0.638,8.584l-0.019,0.006c-1.642,0.495 -4.014,-2.551 -5.294,-6.797c-0.071,-0.237 -0.138,-0.473 -0.2,-0.707l-0.006,0.002l-4.46,-14.796c-0.052,-0.159 -0.103,-0.321 -0.152,-0.484c-1.274,-4.229 -0.987,-8.065 0.638,-8.584l0.019,-0.006l0.02,-0.005Z" style="fill:#f900e1;"/><path d="M215.699,308.043c1.642,-0.466 4,2.572 5.275,6.801c0.031,0.103 0.061,0.205 0.09,0.306l4.514,14.977l-0.01,0.003c0.077,0.229 0.152,0.462 0.224,0.7c1.275,4.229 0.988,8.064 -0.638,8.583l-0.019,0.006c-1.642,0.495 -4.014,-2.55 -5.294,-6.796c-0.072,-0.237 -0.138,-0.473 -0.2,-0.707l-0.006,0.002l-4.46,-14.797c-0.052,-0.159 -0.103,-0.32 -0.152,-0.483c-1.275,-4.229 -0.988,-8.065 0.638,-8.584l0.019,-0.006l0.019,-0.005Z" style="fill:#f900e1;"/><path d="M330.249,307.695c1.581,0.641 1.576,4.487 -0.016,8.607c-0.038,0.1 -0.077,0.199 -0.117,0.296l-5.637,14.591l-0.01,-0.003c-0.079,0.228 -0.163,0.458 -0.253,0.69c-1.592,4.12 -4.174,6.97 -5.776,6.382l-0.018,-0.007c-1.6,-0.619 -1.602,-4.479 -0.003,-8.615c0.089,-0.232 0.181,-0.459 0.276,-0.681l-0.006,-0.003l5.57,-14.415c0.056,-0.158 0.115,-0.316 0.177,-0.475c1.592,-4.12 4.174,-6.971 5.775,-6.382l0.019,0.007l0.019,0.008Z" style="fill:#ffe500;"/><path d="M324.113,302.518c-0.901,1.449 -4.69,0.788 -8.478,-1.484c-0.092,-0.055 -0.183,-0.11 -0.272,-0.166l-13.415,-8.045l0.006,-0.009c-0.212,-0.117 -0.425,-0.239 -0.637,-0.367c-3.788,-2.271 -6.156,-5.303 -5.303,-6.78l0.01,-0.017c0.883,-1.471 4.686,-0.814 8.49,1.467c0.212,0.127 0.42,0.257 0.623,0.389l0.004,-0.006l13.253,7.948c0.145,0.083 0.291,0.168 0.437,0.256c3.789,2.271 6.157,5.302 5.303,6.78l-0.01,0.017l-0.011,0.017Z" style="fill:#fff;"/><path d="M241.059,73.96c1.642,-0.466 4,2.572 5.275,6.802c0.031,0.102 0.061,0.204 0.09,0.305l4.514,14.977l-0.01,0.003c0.077,0.229 0.152,0.462 0.224,0.7c1.275,4.229 0.988,8.065 -0.638,8.584l-0.019,0.006c-1.642,0.495 -4.014,-2.551 -5.294,-6.797c-0.072,-0.237 -0.138,-0.473 -0.2,-0.707l-0.006,0.002l-4.46,-14.796c-0.052,-0.159 -0.103,-0.321 -0.152,-0.484c-1.275,-4.229 -0.987,-8.065 0.638,-8.584l0.019,-0.006l0.019,-0.005Z" style="fill:#f900e1;"/><path d="M277.266,92.02c1.582,0.641 1.577,4.487 -0.015,8.608c-0.039,0.099 -0.078,0.198 -0.117,0.296l-5.638,14.591l-0.009,-0.004c-0.08,0.229 -0.164,0.459 -0.253,0.69c-1.592,4.121 -4.175,6.971 -5.776,6.382l-0.019,-0.007c-1.6,-0.618 -1.601,-4.478 -0.003,-8.615c0.089,-0.231 0.182,-0.458 0.277,-0.681l-0.006,-0.002l5.569,-14.415c0.057,-0.158 0.116,-0.316 0.177,-0.475c1.592,-4.121 4.175,-6.971 5.776,-6.382l0.019,0.007l0.018,0.007Z" style="fill:#ffe500;"/><path d="M133.545,122.468c1.642,-0.465 4,2.573 5.275,6.802c0.031,0.103 0.061,0.205 0.09,0.306l4.513,14.977l-0.01,0.003c0.078,0.229 0.153,0.462 0.225,0.699c1.275,4.23 0.987,8.065 -0.638,8.584l-0.019,0.006c-1.642,0.495 -4.015,-2.55 -5.294,-6.796c-0.072,-0.237 -0.138,-0.473 -0.2,-0.707l-0.006,0.002l-4.46,-14.797c-0.052,-0.159 -0.103,-0.32 -0.152,-0.483c-1.275,-4.229 -0.988,-8.065 0.638,-8.584l0.019,-0.006l0.019,-0.006Z" style="fill:#f900e1;"/><path d="M167.409,88.195c1.581,0.64 1.577,4.487 -0.015,8.607c-0.039,0.1 -0.078,0.199 -0.117,0.296l-5.638,14.591l-0.009,-0.004c-0.08,0.229 -0.164,0.459 -0.253,0.69c-1.592,4.121 -4.175,6.971 -5.776,6.382l-0.019,-0.007c-1.6,-0.618 -1.601,-4.478 -0.003,-8.615c0.089,-0.231 0.182,-0.458 0.277,-0.68l-0.007,-0.003l5.57,-14.415c0.057,-0.158 0.116,-0.316 0.177,-0.475c1.592,-4.12 4.174,-6.971 5.776,-6.382l0.019,0.007l0.018,0.008Z" style="fill:#ffe500;"/><path d="M118.786,160.458c1.581,0.641 1.576,4.487 -0.016,8.608c-0.038,0.1 -0.077,0.199 -0.117,0.296l-5.637,14.591l-0.01,-0.004c-0.079,0.229 -0.163,0.459 -0.253,0.69c-1.592,4.121 -4.174,6.971 -5.776,6.382l-0.018,-0.007c-1.6,-0.618 -1.602,-4.478 -0.003,-8.615c0.089,-0.231 0.181,-0.458 0.276,-0.681l-0.006,-0.002l5.57,-14.415c0.056,-0.158 0.115,-0.316 0.177,-0.475c1.592,-4.121 4.174,-6.971 5.775,-6.382l0.019,0.007l0.019,0.007Z" style="fill:#ffe500;"/><path d="M225.766,64.185c0.223,1.692 -3.123,3.587 -7.493,4.237c-0.105,0.016 -0.211,0.031 -0.315,0.045l-15.471,2.304l-0.002,-0.011c-0.238,0.045 -0.48,0.085 -0.725,0.121c-4.369,0.651 -8.123,-0.187 -8.402,-1.87l-0.003,-0.02c-0.252,-1.696 3.104,-3.604 7.49,-4.257c0.245,-0.037 0.488,-0.069 0.728,-0.096l-0.001,-0.006l15.286,-2.277c0.165,-0.028 0.332,-0.055 0.5,-0.08c4.369,-0.651 8.123,0.187 8.402,1.87l0.003,0.02l0.003,0.02Z" style="fill:#fff;"/><path d="M220.835,94.654c0.223,1.691 -3.124,3.587 -7.493,4.237c-0.105,0.016 -0.211,0.031 -0.315,0.045l-15.471,2.304l-0.002,-0.011c-0.238,0.044 -0.48,0.085 -0.725,0.121c-4.369,0.651 -8.123,-0.187 -8.402,-1.87l-0.003,-0.02c-0.253,-1.697 3.103,-3.604 7.49,-4.257c0.245,-0.037 0.488,-0.069 0.728,-0.096l-0.001,-0.007l15.286,-2.276c0.165,-0.028 0.331,-0.055 0.5,-0.08c4.369,-0.651 8.123,0.187 8.402,1.87l0.003,0.02l0.003,0.02Z" style="fill:#fff;"/><path d="M119.484,204.16c1.641,-0.466 4,2.572 5.274,6.802c0.031,0.102 0.061,0.204 0.09,0.305l4.514,14.977l-0.01,0.003c0.078,0.229 0.153,0.462 0.224,0.7c1.275,4.229 0.988,8.065 -0.637,8.584l-0.02,0.006c-1.642,0.495 -4.014,-2.551 -5.294,-6.797c-0.071,-0.237 -0.138,-0.473 -0.2,-0.707l-0.006,0.002l-4.46,-14.796c-0.052,-0.159 -0.102,-0.321 -0.152,-0.484c-1.274,-4.229 -0.987,-8.065 0.638,-8.584l0.019,-0.006l0.02,-0.005Z" style="fill:#f900e1;"/><path d="M113.592,254.678c1.582,0.641 1.577,4.487 -0.015,8.608c-0.039,0.099 -0.078,0.198 -0.117,0.296l-5.637,14.591l-0.01,-0.004c-0.079,0.228 -0.164,0.459 -0.253,0.69c-1.592,4.121 -4.175,6.971 -5.776,6.382l-0.019,-0.007c-1.6,-0.618 -1.601,-4.478 -0.003,-8.615c0.09,-0.231 0.182,-0.458 0.277,-0.681l-0.006,-0.002l5.569,-14.416c0.057,-0.157 0.116,-0.315 0.177,-0.474c1.592,-4.121 4.175,-6.971 5.776,-6.382l0.019,0.007l0.018,0.007Z" style="fill:#ffe500;"/><path d="M106.157,228.121c0.223,1.691 -3.123,3.586 -7.493,4.237c-0.105,0.016 -0.211,0.031 -0.315,0.045l-15.471,2.303l-0.002,-0.01c-0.238,0.044 -0.48,0.085 -0.725,0.121c-4.369,0.651 -8.123,-0.187 -8.402,-1.871l-0.003,-0.019c-0.252,-1.697 3.104,-3.604 7.49,-4.258c0.245,-0.036 0.488,-0.068 0.728,-0.095l-0.001,-0.007l15.286,-2.276c0.165,-0.029 0.332,-0.056 0.5,-0.081c4.369,-0.65 8.123,0.188 8.402,1.871l0.003,0.02l0.003,0.02Z" style="fill:#fff;"/><path d="M129.364,141.221c0.223,1.691 -3.124,3.587 -7.493,4.237c-0.105,0.016 -0.211,0.031 -0.315,0.045l-15.471,2.304l-0.002,-0.011c-0.238,0.044 -0.48,0.085 -0.725,0.121c-4.369,0.651 -8.123,-0.187 -8.402,-1.87l-0.003,-0.02c-0.252,-1.697 3.103,-3.604 7.49,-4.257c0.245,-0.037 0.488,-0.069 0.728,-0.096l-0.001,-0.007l15.286,-2.276c0.165,-0.028 0.331,-0.055 0.5,-0.08c4.369,-0.651 8.123,0.187 8.402,1.87l0.003,0.02l0.003,0.02Z" style="fill:#fff;"/><path d="M234.695,409.284c-10.04,-0.016 -18.179,-7.33 -18.164,-16.322c0.015,-8.993 8.177,-16.28 18.217,-16.263c10.039,0.016 18.178,7.33 18.164,16.322c-0.015,8.992 -8.178,16.279 -18.217,16.263Z" style="fill:#ff7c8c;"/><path d="M307.59,389.152c-10.137,-0.017 -18.355,-7.331 -18.341,-16.323c0.015,-8.992 8.257,-16.279 18.395,-16.263c10.137,0.017 18.355,7.331 18.341,16.323c-0.015,8.992 -8.257,16.279 -18.395,16.263Z" style="fill:#ff7c8c;"/><path d="M216.549,390.655l36.331,0.059l0.048,-29.82l-36.33,-0.06l-0.049,29.821Z" style="fill:#ff7c8c;"/><path d="M162.762,391.136c-10.04,-0.017 -18.177,-7.962 -18.161,-17.732c0.016,-9.77 8.179,-17.688 18.219,-17.672c10.039,0.017 18.177,7.962 18.161,17.732c-0.016,9.77 -8.18,17.688 -18.219,17.672Z" style="fill:#ff7c8c;"/><path d="M144.616,372.507l36.331,0.059l0.043,-26.549l-36.331,-0.059l-0.043,26.549Z" style="fill:#ff7c8c;"/><path d="M289.021,371.884l36.772,0.06l0.035,-21.425l-36.772,-0.06l-0.035,21.425Z" style="fill:#ff7c8c;"/><path d="M90.778,137.469c6.567,87.857 37.043,132.027 89.456,194.61c29.491,27.12 75.673,68.636 103.671,72.461c-14.202,3.367 -29.066,5.156 -44.369,5.156c-100.606,-0 -182.285,-77.312 -182.285,-172.538c-0,-37.128 12.417,-71.533 33.527,-99.689Z" style="fill-opacity:0.04;"/></svg>