<?xml version="1.0" encoding="UTF-8" standalone="no"?><!DOCTYPE svg PUBLIC "-//W3C//DTD SVG 1.1//EN" "http://www.w3.org/Graphics/SVG/1.1/DTD/svg11.dtd"><svg width="100%" height="100%" viewBox="0 0 2917 4167" version="1.1" xmlns="http://www.w3.org/2000/svg" xmlns:xlink="http://www.w3.org/1999/xlink" xml:space="preserve" xmlns:serif="http://www.serif.com/" style="fill-rule:evenodd;clip-rule:evenodd;stroke-linejoin:round;stroke-miterlimit:2;"><rect id="Artboard1" x="0" y="0" width="2916.67" height="4166.67" style="fill:none;"/><g id="Artboard11" serif:id="Artboard1"><rect x="570.619" y="2049.51" width="1660.19" height="1575.01" style="fill:#e4e4e4;"/><rect x="435.999" y="411.871" width="1959.91" height="44.272" style="fill:#dc8ec9;"/><rect x="435.999" y="1998.73" width="1959.91" height="47.366" style="fill:#dc8ec9;"/><rect x="435.999" y="3697.17" width="1959.91" height="47.366" style="fill:#dc8ec9;"/><rect x="2359.66" y="422.147" width="36.258" height="1604.7" style="fill:#dc8ec9;"/><rect x="435.917" y="444.316" width="36.258" height="3281.79" style="fill:#dc8ec9;"/><rect x="2359.97" y="2042.48" width="36.258" height="1667.57" style="fill:#dc8ec9;"/><rect x="472.017" y="2040.56" width="1886.55" height="113.841" style="fill:#eee;"/><rect x="471.815" y="3598.24" width="1888.93" height="99.558" style="fill:#f6f6f6;"/><path d="M2360.14,3697.71l-0,-1657.15l-0.046,0l-153.787,113.842l-0,1443.12l153.833,100.18Z" style="fill:#fff;"/><path d="M472.091,3697.71l-0,-1657.15l0.046,-0l153.787,113.842l0,1443.12l-153.833,100.181Z" style="fill:#fff;"/><rect x="570.619" y="464.22" width="1660.19" height="1472.13" style="fill:#e4e4e4;"/><rect x="472.017" y="455.853" width="1886.55" height="106.405" style="fill:#eee;"/><rect x="471.815" y="1911.78" width="1888.93" height="93.055" style="fill:#f6f6f6;"/><path d="M2360.14,2004.76l-0,-1548.9l-0.046,0l-153.787,106.406l-0,1348.86l153.833,93.637Z" style="fill:#fff;"/><path d="M472.091,2004.76l-0,-1548.9l0.046,-0l153.787,106.406l0,1348.86l-153.833,93.637Z" style="fill:#fff;"/><path d="M491.031,147.187l-55.049,263.632l-0,1.271l659.525,-0l-0,-264.903l-604.476,-0Z" style="fill:#f4b1e4;"/><path d="M939.159,147.725l-106.15,263.633l-0,1.27l1271.75,0l-0,-264.903l-1165.6,0Z" style="fill:#f4b1e4;"/><path d="M2340.81,148.01l55.049,263.633l0,1.27l-659.525,0l0,-264.903l604.476,0Z" style="fill:#f4b1e4;"/><path d="M491.031,4004.02l-55.049,-263.633l-0,-1.27l659.525,-0l-0,264.903l-604.476,-0Z" style="fill:#f4b1e4;"/><path d="M939.159,4003.48l-106.15,-263.632l-0,-1.271l1271.75,0l-0,264.903l-1165.6,0Z" style="fill:#f4b1e4;"/><path d="M2340.81,4003.19l55.049,-263.632l0,-1.271l-659.525,0l0,264.903l604.476,0Z" style="fill:#f4b1e4;"/><g transform="matrix(1,0,0,0.963838,4.54747e-13,-167.697)"><text x="1015.05px" y="521.375px" style="font-family:'Apple-Chancery', 'Apple Chancery', cursive;font-style:italic;font-size:237.235px;fill:#fff;">Donuts</text></g><g transform="matrix(1,0,0,0.978802,0,-8.72825)"><text x="968.623px" y="4042.81px" style="font-family:'Apple-Chancery', 'Apple Chancery', cursive;font-style:italic;font-size:204.85px;fill:#fff;">Delicious</text></g></g><g id="Layer1"></g></svg>