<?xml version="1.0" encoding="UTF-8" standalone="no"?><!DOCTYPE svg PUBLIC "-//W3C//DTD SVG 1.1//EN" "http://www.w3.org/Graphics/SVG/1.1/DTD/svg11.dtd"><svg width="100%" height="100%" viewBox="0 0 2084 2084" version="1.1" xmlns="http://www.w3.org/2000/svg" xmlns:xlink="http://www.w3.org/1999/xlink" xml:space="preserve" xmlns:serif="http://www.serif.com/" style="fill-rule:evenodd;clip-rule:evenodd;stroke-linejoin:round;stroke-miterlimit:2;"><path d="M825.192,569.179c470.866,-144.958 932.416,-5.183 1030.05,311.942c97.629,317.125 -205.396,692.279 -676.263,837.242c-470.867,144.958 -932.412,5.179 -1030.04,-311.946c-97.629,-317.125 205.392,-692.28 676.259,-837.238Zm120.587,323.842c228.375,-70.308 446.363,-21.583 486.484,108.742c40.12,130.32 -112.721,293.208 -341.096,363.516c-228.375,70.304 -446.363,21.579 -486.484,-108.741c-40.12,-130.325 112.721,-293.209 341.096,-363.517Z" style="fill:#4a390d;"/><path d="M806.279,496.292c454.588,-139.95 899.879,-5.984 993.763,298.975c93.883,304.958 -198.967,666.162 -653.555,806.112c-454.587,139.946 -899.874,5.979 -993.758,-298.979c-93.883,-304.954 198.963,-666.162 653.55,-806.108Zm78.896,281.266c249.008,-76.658 486.796,-23.191 530.671,119.33c43.875,142.52 -122.667,320.466 -371.679,397.125c-249.009,76.658 -486.796,23.191 -530.671,-119.33c-43.875,-142.52 122.667,-320.466 371.679,-397.125Z" style="fill:#391a01;"/><path d="M1269.74,1492.28c46.987,-14.466 91.725,-4.804 99.841,21.563c8.117,26.371 -23.437,59.521 -70.429,73.987c-46.987,14.463 -91.725,4.8 -99.842,-21.566c-8.116,-26.367 23.442,-59.521 70.43,-73.984Z" style="fill:#47370c;"/><path d="M1369.88,1515.07l-170.041,52.345l30.575,99.309l170.037,-52.346l-30.571,-99.308Z" style="fill:#47370c;"/><path d="M930.971,1597.18c46.991,-14.462 91.729,-4.8 99.846,21.567c8.116,26.367 -23.442,59.521 -70.429,73.983c-46.988,14.467 -91.726,4.805 -99.842,-21.562c-8.121,-26.367 23.437,-59.521 70.425,-73.988Z" style="fill:#47370c;"/><path d="M1031.12,1619.97l-170.042,52.346l28.846,93.7l170.042,-52.346l-28.846,-93.7Z" style="fill:#47370c;"/><path d="M661.067,1503.37c7.204,-3.913 21.362,2.804 31.662,15.054c0.25,0.296 0.496,0.592 0.733,0.888l36.48,43.37l-0.042,0.025c0.596,0.65 1.188,1.321 1.767,2.009c10.3,12.25 12.891,25.433 5.816,29.504l-0.083,0.05c-7.179,4.012 -21.404,-2.708 -31.746,-15.008c-0.579,-0.688 -1.133,-1.375 -1.662,-2.067l-0.03,0.017l-36.041,-42.85c-0.404,-0.455 -0.809,-0.917 -1.204,-1.392c-10.305,-12.246 -12.892,-25.433 -5.817,-29.504l0.083,-0.046l0.084,-0.05Z" style="fill:#f900e1;"/><path d="M817.054,1470.53c8.058,-0.142 11.979,12.675 8.75,28.692c-0.075,0.387 -0.158,0.771 -0.241,1.154l-11.425,56.712l-0.05,0c-0.138,0.875 -0.296,1.767 -0.476,2.663c-3.229,16.016 -12.391,29.229 -20.491,29.579l-0.096,0c-8.121,0.25 -12.083,-12.604 -8.846,-28.683c0.179,-0.9 0.379,-1.788 0.596,-2.667l-0.029,0l11.287,-56.029c0.104,-0.609 0.217,-1.221 0.342,-1.838c3.225,-16.016 12.392,-29.229 20.487,-29.575l0.192,-0.008Z" style="fill:#ffe500;"/><path d="M607.417,1389.48c4.158,-5.833 22.379,-6.429 40.775,-1.316c0.446,0.121 0.887,0.25 1.321,0.375l65.137,18.104l-0.025,0.037c1.025,0.25 2.058,0.521 3.092,0.809c18.391,5.112 30.066,14.016 26.141,19.916l-0.05,0.071c-4.062,5.896 -22.354,6.521 -40.821,1.388c-1.033,-0.288 -2.045,-0.588 -3.029,-0.896l-0.016,0.021l-64.354,-17.888c-0.709,-0.179 -1.417,-0.366 -2.125,-0.562c-18.396,-5.113 -30.067,-14.021 -26.142,-19.921l0.046,-0.067l0.05,-0.071Z" style="fill:#ffe500;"/><path d="M602.079,1475.18c2.784,5.313 -10.937,16.446 -30.721,24.909c-0.479,0.204 -0.954,0.404 -1.429,0.604l-70.05,29.962l-0.017,-0.033c-1.066,0.491 -2.158,0.975 -3.27,1.45c-19.779,8.462 -38.209,11.079 -41.242,5.875l-0.033,-0.063c-2.921,-5.283 10.829,-16.47 30.687,-24.966c1.113,-0.475 2.217,-0.934 3.313,-1.371l-0.009,-0.021l69.205,-29.604c0.741,-0.329 1.495,-0.663 2.258,-0.988c19.783,-8.462 38.212,-11.079 41.242,-5.875l0.033,0.059l0.033,0.062Z" style="fill:#fff;"/><path d="M1165.96,1332.47c8.058,-0.146 11.979,12.671 8.754,28.687c-0.079,0.388 -0.163,0.771 -0.246,1.155l-11.425,56.712l-0.05,0.004c-0.138,0.875 -0.296,1.763 -0.475,2.663c-3.225,16.016 -12.392,29.229 -20.492,29.575l-0.096,0.004c-8.121,0.246 -12.083,-12.608 -8.846,-28.688c0.184,-0.895 0.384,-1.787 0.601,-2.666l-0.034,0.004l11.288,-56.033c0.104,-0.605 0.216,-1.217 0.341,-1.838c3.225,-16.012 12.392,-29.229 20.492,-29.575l0.092,-0.004l0.096,-0Z" style="fill:#ffe500;"/><path d="M1003.96,1353.53c2.779,5.308 -10.942,16.446 -30.725,24.904c-0.475,0.208 -0.955,0.409 -1.43,0.604l-70.05,29.967l-0.016,-0.033c-1.067,0.487 -2.159,0.97 -3.267,1.445c-19.783,8.463 -38.212,11.08 -41.242,5.88l-0.037,-0.063c-2.921,-5.287 10.829,-16.475 30.692,-24.971c1.108,-0.475 2.212,-0.929 3.312,-1.366l-0.012,-0.021l69.204,-29.604c0.746,-0.334 1.496,-0.663 2.258,-0.992c19.783,-8.458 38.213,-11.079 41.242,-5.875l0.037,0.062l0.034,0.063Z" style="fill:#fff;"/><path d="M1148.11,609.671c7.205,-3.917 21.359,2.804 31.663,15.05c0.246,0.296 0.492,0.596 0.733,0.887l36.479,43.375l-0.046,0.025c0.601,0.65 1.192,1.317 1.771,2.005c10.3,12.25 12.888,25.437 5.813,29.508l-0.083,0.046c-7.18,4.016 -21.405,-2.709 -31.746,-15.005c-0.579,-0.687 -1.129,-1.379 -1.659,-2.066l-0.029,0.012l-36.041,-42.85c-0.409,-0.454 -0.809,-0.916 -1.209,-1.387c-10.3,-12.25 -12.887,-25.438 -5.812,-29.509l0.166,-0.091Z" style="fill:#f900e1;"/><path d="M1353.16,578.858c8.059,-0.146 11.979,12.671 8.754,28.688c-0.079,0.387 -0.162,0.771 -0.245,1.154l-11.425,56.712l-0.05,0.005c-0.134,0.875 -0.296,1.762 -0.475,2.662c-3.225,16.013 -12.392,29.229 -20.492,29.575l-0.092,0.004c-8.125,0.246 -12.087,-12.608 -8.85,-28.687c0.184,-0.9 0.384,-1.788 0.6,-2.667l-0.033,0l11.287,-56.029c0.105,-0.608 0.217,-1.221 0.342,-1.837c3.229,-16.017 12.392,-29.23 20.492,-29.576l0.096,-0.004l0.091,0Z" style="fill:#ffe500;"/><path d="M1160.57,527.6c-2.734,6.125 -21.142,9.383 -41.205,7.275c-0.483,-0.05 -0.966,-0.104 -1.441,-0.162l-71.034,-7.463l0.017,-0.037c-1.108,-0.084 -2.229,-0.184 -3.358,-0.305c-20.059,-2.108 -34.246,-8.787 -31.767,-14.937l0.029,-0.075c2.621,-6.167 21.096,-9.458 41.238,-7.346c1.125,0.121 2.233,0.254 3.316,0.4l0.009,-0.025l70.179,7.371c0.767,0.067 1.537,0.142 2.308,0.221c20.063,2.108 34.25,8.791 31.771,14.941l-0.029,0.071l-0.033,0.071Z" style="fill:#fff;"/><path d="M1502.9,601.746c7.209,-3.917 21.363,2.804 31.663,15.05c0.25,0.296 0.496,0.596 0.733,0.892l36.479,43.37l-0.042,0.025c0.601,0.65 1.188,1.321 1.767,2.005c10.3,12.25 12.892,25.437 5.817,29.508l-0.083,0.046c-7.18,4.016 -21.405,-2.709 -31.746,-15.005c-0.579,-0.687 -1.134,-1.379 -1.663,-2.066l-0.029,0.012l-36.042,-42.85c-0.404,-0.454 -0.808,-0.916 -1.204,-1.387c-10.304,-12.25 -12.891,-25.438 -5.816,-29.509l0.166,-0.091Z" style="fill:#f900e1;"/><path d="M1696.95,834.054c7.204,-3.912 21.362,2.804 31.662,15.054c0.25,0.296 0.496,0.592 0.734,0.888l36.479,43.371l-0.042,0.025c0.596,0.65 1.188,1.321 1.767,2.008c10.3,12.25 12.891,25.433 5.816,29.504l-0.083,0.05c-7.179,4.013 -21.404,-2.712 -31.746,-15.008c-0.579,-0.688 -1.133,-1.375 -1.662,-2.067l-0.029,0.017l-36.042,-42.85c-0.404,-0.454 -0.808,-0.917 -1.204,-1.392c-10.304,-12.246 -12.892,-25.433 -5.817,-29.504l0.083,-0.046l0.084,-0.05Z" style="fill:#f900e1;"/><path d="M1613.63,726.383c8.059,-0.145 11.975,12.671 8.75,28.688c-0.079,0.387 -0.158,0.771 -0.241,1.154l-11.429,56.712l-0.046,0.005c-0.138,0.875 -0.296,1.762 -0.479,2.662c-3.225,16.013 -12.392,29.229 -20.488,29.575l-0.096,0.004c-8.121,0.246 -12.087,-12.608 -8.846,-28.687c0.18,-0.9 0.38,-1.788 0.596,-2.667l-0.033,0.004l11.292,-56.033c0.1,-0.604 0.216,-1.221 0.337,-1.837c3.229,-16.013 12.392,-29.23 20.492,-29.576l0.096,-0.004l0.095,0Z" style="fill:#ffe500;"/><path d="M1524.31,768.987c-2.733,6.125 -21.145,9.384 -41.208,7.276c-0.483,-0.05 -0.967,-0.105 -1.442,-0.163l-71.033,-7.462l0.017,-0.038c-1.109,-0.083 -2.229,-0.183 -3.354,-0.304c-20.063,-2.104 -34.25,-8.788 -31.771,-14.938l0.029,-0.075c2.621,-6.166 21.1,-9.458 41.237,-7.341c1.125,0.116 2.234,0.25 3.317,0.396l0.008,-0.025l70.18,7.37c0.766,0.067 1.537,0.142 2.312,0.221c20.058,2.109 34.246,8.792 31.767,14.942l-0.059,0.142Z" style="fill:#fff;"/><path d="M1672.78,1017.2c7.204,-3.913 21.358,2.804 31.658,15.054c0.25,0.296 0.496,0.592 0.734,0.888l36.483,43.37l-0.046,0.025c0.6,0.65 1.192,1.321 1.767,2.009c10.304,12.25 12.891,25.437 5.817,29.504l-0.084,0.05c-7.179,4.013 -21.404,-2.708 -31.746,-15.004c-0.579,-0.688 -1.133,-1.379 -1.658,-2.071l-0.029,0.017l-36.042,-42.85c-0.408,-0.455 -0.812,-0.917 -1.208,-1.392c-10.3,-12.246 -12.892,-25.433 -5.817,-29.504l0.083,-0.046l0.088,-0.05Z" style="fill:#f900e1;"/><path d="M1672.78,1017.2c7.204,-3.913 21.358,2.804 31.658,15.054c0.25,0.296 0.496,0.592 0.734,0.888l36.483,43.37l-0.046,0.025c0.6,0.65 1.192,1.321 1.767,2.009c10.304,12.25 12.891,25.437 5.817,29.504l-0.084,0.05c-7.179,4.013 -21.404,-2.708 -31.746,-15.004c-0.579,-0.688 -1.133,-1.379 -1.658,-2.071l-0.029,0.017l-36.042,-42.85c-0.408,-0.455 -0.812,-0.917 -1.208,-1.392c-10.3,-12.246 -12.892,-25.433 -5.817,-29.504l0.083,-0.046l0.088,-0.05Z" style="fill:#f900e1;"/><path d="M1550.4,1042.12c8.054,-0.146 11.975,12.671 8.75,28.687c-0.079,0.388 -0.158,0.775 -0.246,1.155l-11.425,56.712l-0.05,0.004c-0.133,0.875 -0.292,1.763 -0.475,2.663c-3.225,16.016 -12.391,29.229 -20.487,29.575l-0.096,0.004c-8.121,0.246 -12.088,-12.608 -8.846,-28.688c0.179,-0.895 0.379,-1.787 0.596,-2.666l-0.034,0.004l11.288,-56.033c0.104,-0.605 0.217,-1.217 0.342,-1.838c3.229,-16.012 12.391,-29.229 20.491,-29.575l0.096,-0.004l0.096,-0Z" style="fill:#ffe500;"/><path d="M1684.81,962.113c-2.733,6.125 -21.145,9.379 -41.204,7.275c-0.487,-0.055 -0.967,-0.105 -1.446,-0.163l-71.029,-7.462l0.017,-0.038c-1.113,-0.083 -2.234,-0.187 -3.359,-0.304c-20.058,-2.108 -34.25,-8.788 -31.77,-14.938l0.029,-0.075c2.621,-6.17 21.1,-9.458 41.237,-7.345c1.125,0.12 2.234,0.254 3.317,0.4l0.012,-0.025l70.175,7.37c0.767,0.067 1.538,0.138 2.313,0.221c20.058,2.109 34.25,8.788 31.767,14.938l-0.03,0.075l-0.029,0.071Z" style="fill:#fff;"/><path d="M1260.45,1295.08c7.204,-3.916 21.358,2.804 31.662,15.05c0.25,0.296 0.492,0.596 0.734,0.892l36.479,43.371l-0.042,0.025c0.596,0.65 1.188,1.316 1.767,2.004c10.3,12.25 12.891,25.437 5.816,29.508l-0.083,0.046c-7.179,4.017 -21.404,-2.708 -31.746,-15.004c-0.579,-0.688 -1.133,-1.379 -1.662,-2.067l-0.029,0.013l-36.042,-42.85c-0.404,-0.455 -0.808,-0.917 -1.204,-1.388c-10.304,-12.25 -12.892,-25.437 -5.817,-29.508l0.167,-0.092Z" style="fill:#f900e1;"/><path d="M963.192,1414.18c7.204,-3.916 21.358,2.8 31.662,15.05c0.25,0.296 0.496,0.592 0.733,0.888l36.48,43.371l-0.042,0.025c0.596,0.65 1.187,1.32 1.767,2.008c10.3,12.25 12.891,25.437 5.816,29.504l-0.083,0.05c-7.179,4.013 -21.404,-2.708 -31.746,-15.004c-0.579,-0.688 -1.133,-1.379 -1.662,-2.071l-0.03,0.017l-36.041,-42.85c-0.404,-0.454 -0.809,-0.917 -1.204,-1.392c-10.305,-12.246 -12.892,-25.433 -5.817,-29.504l0.167,-0.092Z" style="fill:#f900e1;"/><path d="M1498.96,1247.97c8.058,-0.142 11.979,12.675 8.754,28.687c-0.079,0.388 -0.163,0.775 -0.246,1.159l-11.425,56.712l-0.05,0c-0.138,0.875 -0.296,1.767 -0.475,2.663c-3.229,16.016 -12.392,29.229 -20.492,29.579l-0.096,-0c-8.121,0.25 -12.083,-12.604 -8.846,-28.684c0.184,-0.9 0.38,-1.787 0.6,-2.666l-0.033,-0l11.288,-56.03c0.104,-0.608 0.216,-1.22 0.341,-1.837c3.225,-16.017 12.392,-29.229 20.488,-29.575l0.192,-0.008Z" style="fill:#ffe500;"/><path d="M1464.94,1239.57c-2.734,6.121 -21.146,9.379 -41.204,7.271c-0.488,-0.05 -0.971,-0.104 -1.446,-0.159l-71.03,-7.462l0.013,-0.038c-1.108,-0.083 -2.229,-0.187 -3.354,-0.304c-20.063,-2.108 -34.25,-8.791 -31.771,-14.941l0.029,-0.071c2.621,-6.171 21.1,-9.463 41.238,-7.346c1.125,0.117 2.233,0.25 3.316,0.396l0.013,-0.025l70.175,7.375c0.766,0.066 1.537,0.137 2.312,0.221c20.059,2.104 34.246,8.787 31.767,14.937l-0.029,0.071l-0.029,0.075Z" style="fill:#fff;"/><path d="M841.896,598.083c7.204,-3.912 21.358,2.805 31.658,15.055c0.25,0.295 0.496,0.591 0.734,0.887l36.483,43.371l-0.046,0.025c0.6,0.65 1.192,1.321 1.767,2.008c10.304,12.246 12.891,25.434 5.816,29.504l-0.083,0.05c-7.179,4.013 -21.404,-2.712 -31.746,-15.008c-0.579,-0.687 -1.133,-1.375 -1.658,-2.067l-0.029,0.017l-36.042,-42.85c-0.408,-0.454 -0.813,-0.921 -1.208,-1.392c-10.3,-12.245 -12.892,-25.433 -5.817,-29.504l0.083,-0.05l0.088,-0.046Z" style="fill:#f900e1;"/><path d="M1029.87,606.063c8.058,-0.146 11.979,12.67 8.75,28.687c-0.075,0.388 -0.159,0.771 -0.242,1.154l-11.425,56.713l-0.05,-0c-0.137,0.875 -0.296,1.766 -0.475,2.662c-3.229,16.017 -12.392,29.229 -20.492,29.579l-0.095,0.005c-8.121,0.245 -12.084,-12.609 -8.846,-28.688c0.183,-0.9 0.379,-1.787 0.6,-2.667l-0.034,0l11.288,-56.029c0.104,-0.608 0.217,-1.221 0.342,-1.837c3.225,-16.017 12.391,-29.229 20.487,-29.575l0.096,-0.004l0.096,-0Z" style="fill:#ffe500;"/><path d="M388.429,914.542c7.204,-3.913 21.358,2.804 31.663,15.054c0.25,0.296 0.491,0.592 0.733,0.887l36.479,43.371l-0.046,0.025c0.6,0.65 1.192,1.321 1.771,2.009c10.3,12.245 12.888,25.433 5.813,29.504l-0.084,0.05c-7.179,4.012 -21.4,-2.713 -31.745,-15.009c-0.576,-0.687 -1.13,-1.375 -1.659,-2.066l-0.029,0.016l-36.042,-42.85c-0.408,-0.454 -0.808,-0.92 -1.208,-1.391c-10.3,-12.246 -12.888,-25.434 -5.813,-29.504l0.084,-0.05l0.083,-0.046Z" style="fill:#f900e1;"/><path d="M511.783,751.608c8.059,-0.141 11.98,12.671 8.755,28.688c-0.08,0.387 -0.163,0.775 -0.246,1.158l-11.425,56.713l-0.05,-0c-0.138,0.875 -0.296,1.762 -0.475,2.662c-3.229,16.017 -12.392,29.229 -20.492,29.575l-0.096,0.004c-8.121,0.246 -12.083,-12.604 -8.846,-28.683c0.184,-0.9 0.384,-1.792 0.6,-2.667l-0.033,0l11.288,-56.033c0.104,-0.604 0.216,-1.217 0.341,-1.833c3.225,-16.017 12.392,-29.229 20.492,-29.575l0.187,-0.009Z" style="fill:#ffe500;"/><path d="M358.3,1062.33c8.058,-0.146 11.979,12.671 8.75,28.688c-0.075,0.387 -0.158,0.774 -0.242,1.154l-11.425,56.712l-0.05,0.004c-0.137,0.875 -0.296,1.763 -0.475,2.663c-3.229,16.016 -12.391,29.229 -20.491,29.575l-0.096,0.004c-8.121,0.246 -12.084,-12.608 -8.846,-28.688c0.179,-0.895 0.379,-1.787 0.596,-2.666l-0.029,0.004l11.287,-56.033c0.104,-0.604 0.217,-1.217 0.342,-1.838c3.225,-16.012 12.392,-29.229 20.487,-29.575l0.096,-0.004l0.096,0Z" style="fill:#ffe500;"/><path d="M760.296,587.567c2.779,5.312 -10.942,16.446 -30.725,24.908c-0.475,0.204 -0.954,0.404 -1.429,0.604l-70.05,29.963l-0.017,-0.034c-1.067,0.492 -2.158,0.975 -3.267,1.45c-19.783,8.463 -38.212,11.079 -41.241,5.875l-0.038,-0.062c-2.921,-5.283 10.829,-16.471 30.692,-24.967c1.108,-0.475 2.217,-0.933 3.312,-1.371l-0.012,-0.02l69.208,-29.605c0.742,-0.329 1.496,-0.662 2.259,-0.987c19.779,-8.463 38.208,-11.079 41.237,-5.875l0.038,0.058l0.033,0.063Z" style="fill:#fff;"/><path d="M768.454,696.142c2.779,5.312 -10.942,16.446 -30.721,24.908c-0.479,0.204 -0.958,0.404 -1.433,0.6l-70.046,29.967l-0.021,-0.034c-1.066,0.492 -2.158,0.975 -3.266,1.45c-19.784,8.459 -38.213,11.08 -41.242,5.875l-0.037,-0.062c-2.921,-5.288 10.833,-16.475 30.691,-24.971c1.108,-0.471 2.217,-0.929 3.313,-1.367l-0.013,-0.02l69.209,-29.605c0.741,-0.333 1.495,-0.662 2.258,-0.987c19.779,-8.463 38.208,-11.079 41.237,-5.879l0.038,0.062l0.033,0.063Z" style="fill:#fff;"/><path d="M406.371,1206.85c7.204,-3.912 21.358,2.804 31.658,15.054c0.25,0.296 0.496,0.592 0.734,0.888l36.483,43.371l-0.046,0.025c0.6,0.65 1.192,1.32 1.767,2.008c10.304,12.25 12.891,25.433 5.816,29.504l-0.083,0.05c-7.179,4.013 -21.404,-2.708 -31.746,-15.008c-0.579,-0.683 -1.133,-1.375 -1.658,-2.067l-0.029,0.017l-36.042,-42.85c-0.408,-0.454 -0.812,-0.917 -1.208,-1.392c-10.3,-12.246 -12.892,-25.433 -5.817,-29.504l0.083,-0.046l0.088,-0.05Z" style="fill:#f900e1;"/><path d="M430.592,1383.58c8.058,-0.146 11.979,12.671 8.75,28.688c-0.079,0.387 -0.159,0.771 -0.242,1.154l-11.425,56.712l-0.05,0.005c-0.137,0.875 -0.296,1.762 -0.479,2.662c-3.225,16.017 -12.388,29.229 -20.488,29.575l-0.095,0.004c-8.121,0.246 -12.088,-12.608 -8.846,-28.687c0.179,-0.896 0.379,-1.788 0.596,-2.667l-0.03,0.004l11.288,-56.033c0.1,-0.604 0.216,-1.217 0.341,-1.838c3.225,-16.012 12.388,-29.229 20.488,-29.575l0.096,-0.004l0.096,0Z" style="fill:#ffe500;"/><path d="M368.563,1305.85c2.779,5.308 -10.942,16.446 -30.725,24.909c-0.475,0.204 -0.955,0.404 -1.43,0.599l-70.05,29.967l-0.016,-0.033c-1.067,0.487 -2.159,0.971 -3.267,1.446c-19.783,8.462 -38.212,11.083 -41.242,5.879l-0.037,-0.063c-2.921,-5.287 10.829,-16.475 30.692,-24.97c1.108,-0.475 2.212,-0.93 3.312,-1.367l-0.012,-0.021l69.208,-29.604c0.742,-0.333 1.492,-0.663 2.254,-0.988c19.783,-8.462 38.213,-11.083 41.242,-5.879l0.037,0.063l0.034,0.062Z" style="fill:#fff;"/><path d="M388.083,983.017c2.784,5.312 -10.941,16.446 -30.721,24.908c-0.479,0.204 -0.958,0.404 -1.429,0.604l-70.05,29.963l-0.016,-0.034c-1.071,0.492 -2.163,0.975 -3.271,1.45c-19.784,8.463 -38.209,11.08 -41.242,5.875l-0.033,-0.062c-2.921,-5.284 10.829,-16.471 30.687,-24.967c1.109,-0.475 2.217,-0.933 3.313,-1.371l-0.013,-0.02l69.209,-29.605c0.741,-0.329 1.495,-0.662 2.258,-0.987c19.779,-8.463 38.208,-11.079 41.242,-5.875l0.033,0.058l0.033,0.063Z" style="fill:#fff;"/><path d="M1155.89,1723.97c-47.005,14.412 -92.596,1.779 -101.746,-28.188c-9.15,-29.966 21.583,-65.996 68.587,-80.408c47.005,-14.409 92.596,-1.779 101.746,28.187c9.15,29.967 -21.579,65.996 -68.587,80.409Z" style="fill:#391a01;"/><path d="M1476.42,1551.89c-47.463,14.554 -93.425,2.037 -102.575,-27.93c-9.15,-29.97 21.954,-66.112 69.417,-80.662c47.462,-14.554 93.425,-2.038 102.579,27.929c9.15,29.971 -21.954,66.113 -69.421,80.663Z" style="fill:#391a01;"/><path d="M1051.87,1688.07l170.1,-52.15l-30.346,-99.379l-170.1,52.15l30.346,99.379Z" style="fill:#391a01;"/><path d="M800.621,1767.17c-47.004,14.408 -93.238,-0.325 -103.179,-32.883c-9.942,-32.559 20.146,-70.692 67.15,-85.104c47.008,-14.413 93.241,0.325 103.183,32.883c9.942,32.558 -20.15,70.692 -67.154,85.104Z" style="fill:#391a01;"/><path d="M696.592,1731.28l170.1,-52.15l-27.017,-88.479l-170.1,52.15l27.017,88.479Z" style="fill:#391a01;"/><path d="M1371.81,1521.14l172.166,-52.784l-21.8,-71.4l-172.171,52.784l21.804,71.4Z" style="fill:#391a01;"/><path d="M203.646,1026.12c120.808,283.121 308.729,386.308 618.204,519.204c165.829,47.825 424.537,119.542 559.5,91.933c-63.021,31.679 -130.754,59.054 -202.375,81.104c-470.867,144.959 -932.413,5.18 -1030.04,-311.945c-38.066,-123.646 -15.225,-256.113 54.713,-380.296Z" style="fill-opacity:0.04;"/></svg>