<?xml version="1.0" encoding="UTF-8" standalone="no"?><!DOCTYPE svg PUBLIC "-//W3C//DTD SVG 1.1//EN" "http://www.w3.org/Graphics/SVG/1.1/DTD/svg11.dtd"><svg width="100%" height="100%" viewBox="0 0 1140 1146" version="1.1" xmlns="http://www.w3.org/2000/svg" xmlns:xlink="http://www.w3.org/1999/xlink" xml:space="preserve" xmlns:serif="http://www.serif.com/" style="fill-rule:evenodd;clip-rule:evenodd;stroke-linejoin:round;stroke-miterlimit:2;"><path d="M569.641,67.466c314.397,-0 569.643,241.597 569.643,539.178c0,297.581 -255.246,539.181 -569.643,539.181c-314.394,0 -569.641,-241.6 -569.641,-539.181c-0,-297.582 255.247,-539.178 569.641,-539.178Zm12.74,309.396c152.488,0 276.285,99.285 276.285,221.575c-0,122.291 -123.797,221.575 -276.285,221.575c-152.484,0 -276.281,-99.284 -276.281,-221.575c-0,-122.29 123.797,-221.575 276.281,-221.575Z" style="fill:#b9b9b9;"/><path d="M571.794,0c303.525,0 549.947,232.328 549.947,518.491c-0,286.162 -246.422,518.49 -549.947,518.49c-303.525,0 -549.947,-232.328 -549.947,-518.49c-0,-286.163 246.422,-518.491 549.947,-518.491Zm-4.694,261.903c166.262,0 301.244,108.575 301.244,242.313c-0,133.737 -134.982,242.312 -301.244,242.312c-166.263,0 -301.247,-108.575 -301.247,-242.312c0,-133.738 134.984,-242.313 301.247,-242.313Z" style="fill:#b2b2b2;"/></svg>