<?xml version="1.0" encoding="UTF-8" standalone="no"?><!DOCTYPE svg PUBLIC "-//W3C//DTD SVG 1.1//EN" "http://www.w3.org/Graphics/SVG/1.1/DTD/svg11.dtd"><svg width="100%" height="100%" viewBox="0 0 2084 2084" version="1.1" xmlns="http://www.w3.org/2000/svg" xmlns:xlink="http://www.w3.org/1999/xlink" xml:space="preserve" xmlns:serif="http://www.serif.com/" style="fill-rule:evenodd;clip-rule:evenodd;stroke-linejoin:round;stroke-miterlimit:2;"><path d="M1797.03,919.513c86.384,492.07 -207.903,955.538 -656.766,1034.34c-448.864,78.799 -883.419,-256.719 -969.802,-748.789c-86.383,-492.065 207.908,-955.533 656.772,-1034.33c448.863,-78.798 883.413,256.72 969.796,748.785Zm-463.185,101.869c41.897,238.661 -73.846,458.709 -258.306,491.091c-184.46,32.383 -368.232,-135.085 -410.13,-373.746c-41.897,-238.657 73.847,-458.705 258.307,-491.087c184.46,-32.383 368.232,135.085 410.129,373.742Z" style="fill:#e6d19a;"/><path d="M1899.38,905.019c83.396,475.054 -199.334,922.254 -630.974,998.03c-431.64,75.775 -849.784,-248.386 -933.181,-723.44c-83.396,-475.055 199.334,-922.255 630.974,-998.03c431.64,-75.776 849.784,248.385 933.181,723.44Zm-396.337,62.005c45.682,260.221 -81.002,500.234 -282.728,535.647c-201.726,35.413 -402.585,-147.099 -448.268,-407.32c-45.682,-260.221 81.001,-500.239 282.727,-535.652c201.726,-35.414 402.586,147.103 448.269,407.325Z" style="fill:#7e9bff;"/><path d="M453.498,1313.16c8.62,49.103 -14.682,94.287 -52.004,100.839c-37.322,6.552 -74.621,-27.994 -83.241,-77.096c-8.62,-49.103 14.682,-94.287 52.004,-100.839c37.322,-6.552 74.621,27.994 83.241,77.096Z" style="fill:#e6d19a;"/><path d="M399.79,1414.23l-31.195,-177.696l-140.561,24.676l31.194,177.695l140.562,-24.675Z" style="fill:#e6d19a;"/><path d="M390.526,959.105c8.62,49.103 -14.682,94.287 -52.004,100.839c-37.322,6.552 -74.62,-27.994 -83.24,-77.097c-8.621,-49.102 14.682,-94.286 52.003,-100.838c37.322,-6.552 74.621,27.994 83.241,77.096Z" style="fill:#e6d19a;"/><path d="M336.819,1060.18l-31.195,-177.695l-132.628,23.283l31.194,177.695l132.629,-23.283Z" style="fill:#e6d19a;"/><path d="M578.854,688.885c3.606,7.646 -8.689,21.693 -27.533,31.429c-0.455,0.236 -0.91,0.467 -1.361,0.692l-66.721,34.467l-0.023,-0.046c-1.013,0.571 -2.051,1.131 -3.107,1.679c-18.84,9.731 -37.168,11.501 -41.009,3.983l-0.045,-0.088c-3.743,-7.621 8.577,-21.748 27.488,-31.517c1.06,-0.549 2.116,-1.067 3.166,-1.564l-0.015,-0.027l65.914,-34.058c0.705,-0.386 1.425,-0.769 2.151,-1.144c18.84,-9.735 37.163,-11.505 41.01,-3.983l0.04,0.089l0.045,0.088Z" style="fill:#f900e1;"/><path d="M587.069,850.881c-1.664,8.263 -19.801,11.422 -40.589,7.045c-0.504,-0.103 -1.005,-0.217 -1.495,-0.327l-73.617,-15.497l0.01,-0.052c-1.147,-0.197 -2.305,-0.423 -3.47,-0.667c-20.792,-4.376 -36.443,-14.646 -35.042,-22.969l0.017,-0.099c1.539,-8.337 19.733,-11.536 40.605,-7.143c1.167,0.249 2.316,0.511 3.448,0.791l0.005,-0.031l72.729,15.31c0.793,0.148 1.589,0.305 2.391,0.472c20.792,4.377 36.443,14.652 35.042,22.97l-0.034,0.197Z" style="fill:#ffe500;"/><path d="M744.337,641.543c6.885,4.65 3.488,23.356 -7.622,41.858c-0.271,0.451 -0.543,0.892 -0.812,1.328l-39.351,65.518l-0.044,-0.027c-0.577,1.034 -1.172,2.071 -1.796,3.113c-11.115,18.498 -25.782,29.861 -32.805,25.447l-0.083,-0.056c-6.995,-4.555 -3.616,-23.339 7.545,-41.911c0.62,-1.036 1.257,-2.055 1.9,-3.045l-0.027,-0.016l38.878,-64.729c0.404,-0.712 0.823,-1.426 1.251,-2.141c11.111,-18.498 25.778,-29.86 32.801,-25.446l0.083,0.056l0.082,0.051Z" style="fill:#ffe500;"/><path d="M630.349,630.345c-7.779,2.495 -19.585,-12.307 -26.405,-33.137c-0.167,-0.505 -0.327,-1.006 -0.479,-1.509l-24.144,-73.763l0.045,-0.018c-0.411,-1.127 -0.807,-2.273 -1.192,-3.445c-6.816,-20.831 -6.094,-39.885 1.605,-42.643l0.091,-0.031c7.778,-2.636 19.654,12.199 26.498,33.111c0.38,1.168 0.739,2.33 1.073,3.487l0.032,-0.011l23.853,72.876c0.278,0.783 0.549,1.577 0.811,2.378c6.815,20.831 6.088,39.886 -1.605,42.643l-0.183,0.062Z" style="fill:#fff;"/><path d="M692.273,1217.55c-1.664,8.264 -19.797,11.427 -40.584,7.049c-0.505,-0.108 -1.005,-0.217 -1.495,-0.327l-73.619,-15.502l0.011,-0.052c-1.148,-0.197 -2.304,-0.417 -3.474,-0.661c-20.787,-4.377 -36.439,-14.652 -35.042,-22.969l0.022,-0.1c1.539,-8.337 19.733,-11.536 40.601,-7.142c1.17,0.243 2.319,0.51 3.447,0.791l0.009,-0.037l72.73,15.315c0.792,0.143 1.588,0.301 2.391,0.473c20.787,4.377 36.442,14.646 35.042,22.969l-0.018,0.094l-0.021,0.099Z" style="fill:#ffe500;"/><path d="M701.301,1050.18c-7.779,2.495 -19.59,-12.307 -26.405,-33.138c-0.166,-0.505 -0.327,-1.006 -0.483,-1.508l-24.144,-73.762l0.05,-0.019c-0.411,-1.123 -0.812,-2.273 -1.192,-3.441c-6.821,-20.835 -6.093,-39.884 1.6,-42.642l0.092,-0.031c7.782,-2.642 19.652,12.195 26.496,33.106c0.385,1.168 0.745,2.335 1.079,3.486l0.032,-0.01l23.852,72.875c0.274,0.784 0.545,1.579 0.807,2.38c6.82,20.83 6.093,39.884 -1.601,42.641l-0.183,0.063Z" style="fill:#fff;"/><path d="M1668.17,1247.61c3.606,7.646 -8.694,21.693 -27.533,31.429c-0.455,0.236 -0.91,0.467 -1.366,0.693l-66.716,34.466l-0.023,-0.046c-1.013,0.571 -2.051,1.131 -3.107,1.679c-18.84,9.731 -37.168,11.501 -41.009,3.983l-0.045,-0.088c-3.743,-7.621 8.572,-21.747 27.488,-31.517c1.061,-0.549 2.116,-1.067 3.166,-1.564l-0.015,-0.027l65.914,-34.058c0.705,-0.386 1.42,-0.768 2.147,-1.143c18.844,-9.736 37.167,-11.506 41.01,-3.983l0.089,0.176Z" style="fill:#f900e1;"/><path d="M1662.34,1459.73c-1.663,8.268 -19.796,11.426 -40.588,7.05c-0.5,-0.109 -1,-0.218 -1.496,-0.328l-73.618,-15.501l0.011,-0.048c-1.143,-0.202 -2.304,-0.422 -3.469,-0.666c-20.792,-4.376 -36.444,-14.652 -35.042,-22.969l0.016,-0.099c1.54,-8.337 19.734,-11.536 40.606,-7.144c1.165,0.244 2.315,0.512 3.448,0.792l0.004,-0.031l72.734,15.309c0.789,0.148 1.584,0.306 2.386,0.473c20.792,4.376 36.443,14.647 35.042,22.969l-0.016,0.099l-0.018,0.094Z" style="fill:#ffe500;"/><path d="M1775.64,1265.86c-7.604,-3.207 -7.742,-22.286 -0.286,-42.698c0.182,-0.491 0.367,-0.982 0.549,-1.468l26.404,-72.265l0.047,0.017c0.369,-1.134 0.762,-2.272 1.183,-3.42c7.457,-20.407 19.711,-34.497 27.406,-31.542l0.089,0.035c7.691,3.096 7.86,22.245 0.374,42.733c-0.416,1.147 -0.85,2.272 -1.299,3.369l0.032,0.015l-26.085,71.398c-0.266,0.782 -0.541,1.567 -0.826,2.353c-7.457,20.407 -19.711,34.497 -27.41,31.548l-0.09,-0.04l-0.088,-0.035Z" style="fill:#fff;"/><path d="M1597.06,1611.6c3.607,7.646 -8.689,21.693 -27.528,31.428c-0.459,0.237 -0.914,0.468 -1.365,0.694l-66.722,34.466l-0.023,-0.046c-1.012,0.571 -2.046,1.13 -3.106,1.679c-18.839,9.736 -37.164,11.501 -41.005,3.982l-0.045,-0.088c-3.743,-7.621 8.573,-21.747 27.489,-31.516c1.055,-0.549 2.111,-1.067 3.16,-1.564l-0.014,-0.027l65.919,-34.059c0.704,-0.385 1.419,-0.768 2.146,-1.143c18.839,-9.735 37.167,-11.506 41.01,-3.982l0.044,0.088l0.04,0.088Z" style="fill:#f900e1;"/><path d="M1240.01,1794.84c3.601,7.646 -8.693,21.698 -27.533,31.429c-0.455,0.236 -0.91,0.467 -1.365,0.693l-66.716,34.47l-0.023,-0.046c-1.014,0.566 -2.052,1.127 -3.107,1.675c-18.844,9.736 -37.168,11.506 -41.01,3.983l-0.045,-0.088c-3.743,-7.622 8.573,-21.743 27.489,-31.517c1.06,-0.549 2.115,-1.067 3.165,-1.564l-0.014,-0.028l65.913,-34.057c0.705,-0.386 1.42,-0.769 2.147,-1.143c18.844,-9.737 37.168,-11.502 41.01,-3.983l0.089,0.176Z" style="fill:#f900e1;"/><path d="M1403.98,1716.7c-1.664,8.263 -19.797,11.421 -40.589,7.045c-0.5,-0.109 -1,-0.218 -1.495,-0.327l-73.618,-15.497l0.011,-0.052c-1.143,-0.198 -2.305,-0.423 -3.47,-0.667c-20.787,-4.377 -36.443,-14.646 -35.042,-22.969l0.017,-0.099c1.539,-8.337 19.733,-11.536 40.605,-7.143c1.166,0.249 2.32,0.51 3.448,0.791l0.004,-0.031l72.734,15.309c0.789,0.149 1.589,0.306 2.387,0.473c20.791,4.377 36.443,14.652 35.042,22.97l-0.034,0.197Z" style="fill:#ffe500;"/><path d="M1367.28,1622.34c-7.599,-3.208 -7.736,-22.287 -0.279,-42.695c0.18,-0.495 0.361,-0.986 0.549,-1.467l26.398,-72.27l0.048,0.022c0.369,-1.133 0.766,-2.277 1.182,-3.419c7.457,-20.407 19.711,-34.497 27.411,-31.548l0.088,0.035c7.692,3.101 7.856,22.246 0.374,42.733c-0.42,1.148 -0.854,2.273 -1.298,3.374l0.027,0.016l-26.084,71.397c-0.262,0.777 -0.538,1.562 -0.827,2.349c-7.456,20.412 -19.71,34.502 -27.406,31.547l-0.093,-0.034l-0.09,-0.04Z" style="fill:#fff;"/><path d="M999.349,1757.83c3.605,7.64 -8.689,21.692 -27.534,31.423c-0.455,0.236 -0.91,0.468 -1.361,0.693l-66.72,34.471l-0.023,-0.046c-1.013,0.571 -2.051,1.131 -3.107,1.675c-18.84,9.735 -37.168,11.506 -41.01,3.987l-0.045,-0.093c-3.743,-7.621 8.578,-21.743 27.493,-31.517c1.056,-0.543 2.111,-1.066 3.161,-1.563l-0.014,-0.028l65.913,-34.057c0.705,-0.386 1.426,-0.765 2.151,-1.144c18.841,-9.731 37.164,-11.501 41.01,-3.983l0.04,0.089l0.046,0.093Z" style="fill:#f900e1;"/><path d="M999.349,1757.83c3.605,7.64 -8.689,21.692 -27.534,31.423c-0.455,0.236 -0.91,0.468 -1.361,0.693l-66.72,34.471l-0.023,-0.046c-1.013,0.571 -2.051,1.131 -3.107,1.675c-18.84,9.735 -37.168,11.506 -41.01,3.987l-0.045,-0.093c-3.743,-7.621 8.578,-21.743 27.493,-31.517c1.056,-0.543 2.111,-1.066 3.161,-1.563l-0.014,-0.028l65.913,-34.057c0.705,-0.386 1.426,-0.765 2.151,-1.144c18.841,-9.731 37.164,-11.501 41.01,-3.983l0.04,0.089l0.046,0.093Z" style="fill:#f900e1;"/><path d="M994.049,1630.79c-1.664,8.263 -19.796,11.426 -40.588,7.05c-0.5,-0.109 -1,-0.218 -1.496,-0.327l-73.618,-15.502l0.01,-0.052c-1.142,-0.198 -2.303,-0.417 -3.468,-0.662c-20.792,-4.376 -36.444,-14.651 -35.042,-22.969l0.016,-0.099c1.539,-8.337 19.733,-11.536 40.606,-7.143c1.165,0.244 2.315,0.511 3.448,0.791l0.003,-0.036l72.735,15.314c0.788,0.144 1.583,0.302 2.386,0.473c20.792,4.377 36.443,14.647 35.042,22.97l-0.017,0.094l-0.017,0.098Z" style="fill:#ffe500;"/><path d="M1070.64,1773.84c-7.604,-3.208 -7.741,-22.287 -0.285,-42.699c0.181,-0.49 0.367,-0.982 0.55,-1.462l26.403,-72.271l0.046,0.017c0.371,-1.128 0.763,-2.271 1.183,-3.419c7.457,-20.407 19.711,-34.497 27.407,-31.542l0.088,0.034c7.691,3.097 7.861,22.246 0.374,42.734c-0.416,1.147 -0.85,2.272 -1.298,3.374l0.031,0.01l-26.084,71.402c-0.266,0.778 -0.542,1.562 -0.827,2.349c-7.456,20.407 -19.71,34.497 -27.41,31.548l-0.088,-0.035l-0.09,-0.04Z" style="fill:#fff;"/><path d="M720.773,1316.84c3.605,7.64 -8.689,21.692 -27.534,31.424c-0.454,0.236 -0.909,0.467 -1.361,0.692l-66.72,34.472l-0.023,-0.047c-1.013,0.571 -2.046,1.131 -3.107,1.675c-18.84,9.735 -37.168,11.506 -41.01,3.983l-0.045,-0.088c-3.743,-7.622 8.578,-21.744 27.493,-31.518c1.057,-0.543 2.111,-1.066 3.161,-1.563l-0.014,-0.028l65.914,-34.057c0.704,-0.386 1.424,-0.77 2.15,-1.144c18.841,-9.731 37.169,-11.501 41.01,-3.983l0.045,0.088l0.041,0.094Z" style="fill:#f900e1;"/><path d="M629.148,1004.36c3.606,7.646 -8.689,21.692 -27.529,31.428c-0.458,0.237 -0.914,0.468 -1.365,0.693l-66.72,34.472l-0.023,-0.047c-1.013,0.566 -2.047,1.126 -3.107,1.675c-18.84,9.736 -37.163,11.505 -41.006,3.982l-0.044,-0.088c-3.743,-7.621 8.573,-21.743 27.488,-31.517c1.056,-0.548 2.111,-1.066 3.161,-1.563l-0.014,-0.027l65.918,-34.059c0.705,-0.386 1.42,-0.768 2.146,-1.143c18.84,-9.735 37.168,-11.506 41.01,-3.983l0.045,0.088l0.04,0.089Z" style="fill:#f900e1;"/><path d="M729.144,1564.33c-1.664,8.263 -19.797,11.421 -40.585,7.044c-0.504,-0.104 -1.004,-0.212 -1.495,-0.328l-73.617,-15.496l0.005,-0.052c-1.142,-0.198 -2.299,-0.418 -3.47,-0.666c-20.787,-4.378 -36.438,-14.648 -35.042,-22.97l0.018,-0.094c1.544,-8.337 19.737,-11.541 40.606,-7.143c1.17,0.243 2.319,0.505 3.447,0.786l0.009,-0.031l72.73,15.314c0.792,0.143 1.588,0.301 2.391,0.473c20.787,4.377 36.442,14.646 35.041,22.964l-0.017,0.099l-0.021,0.1Z" style="fill:#ffe500;"/><path d="M748.278,1530.04c-7.604,-3.207 -7.741,-22.286 -0.284,-42.694c0.18,-0.495 0.361,-0.986 0.548,-1.467l26.403,-72.27l0.048,0.022c0.369,-1.134 0.762,-2.277 1.183,-3.42c7.452,-20.406 19.711,-34.497 27.405,-31.547l0.089,0.035c7.692,3.101 7.86,22.245 0.375,42.738c-0.417,1.142 -0.851,2.267 -1.299,3.369l0.032,0.015l-26.085,71.397c-0.267,0.778 -0.542,1.563 -0.831,2.35c-7.452,20.411 -19.706,34.501 -27.406,31.547l-0.089,-0.035l-0.089,-0.04Z" style="fill:#fff;"/><path d="M1754.31,934.69c3.606,7.646 -8.689,21.693 -27.533,31.429c-0.455,0.236 -0.91,0.467 -1.361,0.693l-66.721,34.471l-0.022,-0.046c-1.014,0.566 -2.047,1.125 -3.108,1.674c-18.839,9.736 -37.167,11.506 -41.009,3.983l-0.045,-0.088c-3.743,-7.621 8.578,-21.743 27.493,-31.517c1.056,-0.549 2.111,-1.067 3.161,-1.564l-0.015,-0.027l65.914,-34.058c0.705,-0.386 1.425,-0.769 2.151,-1.144c18.84,-9.735 37.169,-11.501 41.01,-3.982l0.045,0.088l0.04,0.088Z" style="fill:#f900e1;"/><path d="M1700.27,1126.72c-1.663,8.268 -19.796,11.426 -40.588,7.049c-0.5,-0.108 -1,-0.217 -1.496,-0.327l-73.618,-15.501l0.011,-0.048c-1.148,-0.202 -2.304,-0.422 -3.469,-0.666c-20.792,-4.377 -36.444,-14.652 -35.042,-22.97l0.016,-0.098c1.54,-8.337 19.734,-11.536 40.606,-7.144c1.165,0.244 2.315,0.511 3.448,0.791l0.004,-0.031l72.729,15.31c0.794,0.148 1.589,0.306 2.391,0.473c20.792,4.376 36.444,14.651 35.042,22.969l-0.016,0.099l-0.018,0.094Z" style="fill:#ffe500;"/><path d="M1433.35,448.978c3.602,7.646 -8.694,21.693 -27.533,31.429c-0.459,0.237 -0.914,0.468 -1.365,0.693l-66.722,34.467l-0.023,-0.047c-1.012,0.571 -2.046,1.131 -3.101,1.679c-18.844,9.736 -37.169,11.501 -41.01,3.983l-0.045,-0.088c-3.743,-7.622 8.573,-21.748 27.489,-31.517c1.055,-0.548 2.111,-1.066 3.161,-1.563l-0.015,-0.028l65.919,-34.058c0.704,-0.386 1.42,-0.769 2.146,-1.143c18.839,-9.736 37.167,-11.506 41.01,-3.983l0.089,0.176Z" style="fill:#f900e1;"/><path d="M1623.98,586.247c-1.659,8.262 -19.796,11.426 -40.584,7.049c-0.504,-0.108 -1.005,-0.217 -1.495,-0.328l-73.618,-15.501l0.011,-0.048c-1.148,-0.201 -2.305,-0.422 -3.47,-0.666c-20.792,-4.377 -36.444,-14.652 -35.042,-22.97l0.017,-0.098c1.539,-8.337 19.733,-11.536 40.606,-7.144c1.165,0.244 2.315,0.511 3.443,0.792l0.008,-0.036l72.73,15.314c0.794,0.148 1.589,0.306 2.391,0.473c20.787,4.377 36.443,14.646 35.042,22.969l-0.017,0.099l-0.022,0.095Z" style="fill:#ffe500;"/><path d="M1241.6,408.228c-1.664,8.263 -19.797,11.421 -40.589,7.045c-0.504,-0.103 -1.004,-0.212 -1.495,-0.327l-73.618,-15.497l0.011,-0.052c-1.148,-0.197 -2.304,-0.418 -3.47,-0.667c-20.792,-4.376 -36.443,-14.646 -35.042,-22.969l0.018,-0.094c1.539,-8.337 19.732,-11.541 40.605,-7.144c1.165,0.245 2.314,0.507 3.447,0.787l0.004,-0.031l72.73,15.314c0.793,0.144 1.589,0.301 2.391,0.473c20.792,4.376 36.443,14.647 35.042,22.965l-0.034,0.197Z" style="fill:#ffe500;"/><path d="M1787.26,851.803c-7.784,2.491 -19.59,-12.306 -26.406,-33.142c-0.165,-0.5 -0.327,-1.006 -0.482,-1.503l-24.144,-73.763l0.05,-0.019c-0.417,-1.126 -0.813,-2.277 -1.193,-3.445c-6.82,-20.831 -6.093,-39.885 1.6,-42.642l0.092,-0.031c7.778,-2.636 19.653,12.199 26.497,33.111c0.385,1.167 0.744,2.329 1.078,3.481l0.027,-0.01l23.858,72.88c0.274,0.784 0.545,1.578 0.807,2.379c6.82,20.83 6.093,39.885 -1.601,42.642l-0.183,0.062Z" style="fill:#fff;"/><path d="M1639.4,852.899c-7.779,2.49 -19.59,-12.312 -26.405,-33.143c-0.166,-0.5 -0.328,-1.006 -0.483,-1.503l-24.144,-73.762l0.05,-0.019c-0.412,-1.128 -0.813,-2.278 -1.193,-3.446c-6.82,-20.83 -6.093,-39.885 1.601,-42.642l0.091,-0.031c7.782,-2.642 19.653,12.195 26.498,33.111c0.384,1.168 0.744,2.33 1.077,3.481l0.032,-0.01l23.854,72.88c0.273,0.784 0.543,1.574 0.806,2.38c6.82,20.83 6.093,39.884 -1.6,42.641l-0.184,0.063Z" style="fill:#fff;"/><path d="M1036.2,447.805c3.606,7.641 -8.689,21.692 -27.534,31.424c-0.454,0.236 -0.909,0.467 -1.36,0.692l-66.721,34.472l-0.023,-0.047c-1.012,0.571 -2.046,1.131 -3.107,1.675c-18.839,9.736 -37.168,11.506 -41.009,3.988l-0.046,-0.093c-3.743,-7.621 8.578,-21.743 27.494,-31.518c1.056,-0.543 2.111,-1.066 3.16,-1.563l-0.014,-0.027l65.914,-34.058c0.705,-0.386 1.425,-0.764 2.151,-1.144c18.84,-9.73 37.168,-11.501 41.01,-3.983l0.044,0.088l0.041,0.094Z" style="fill:#f900e1;"/><path d="M793.021,460.79c-1.663,8.268 -19.796,11.427 -40.588,7.05c-0.5,-0.109 -1,-0.218 -1.496,-0.327l-73.617,-15.497l0.01,-0.052c-1.142,-0.198 -2.304,-0.422 -3.469,-0.667c-20.792,-4.376 -36.444,-14.651 -35.042,-22.969l0.016,-0.099c1.539,-8.337 19.733,-11.536 40.606,-7.143c1.166,0.249 2.315,0.511 3.448,0.791l0.004,-0.031l72.734,15.309c0.789,0.149 1.584,0.307 2.386,0.473c20.792,4.377 36.444,14.652 35.042,22.97l-0.017,0.099l-0.017,0.093Z" style="fill:#ffe500;"/><path d="M911.818,402.45c-7.779,2.49 -19.585,-12.307 -26.406,-33.142c-0.165,-0.501 -0.327,-1.007 -0.482,-1.504l-24.14,-73.763l0.046,-0.018c-0.412,-1.127 -0.813,-2.277 -1.193,-3.446c-6.82,-20.83 -6.093,-39.884 1.605,-42.642l0.087,-0.031c7.783,-2.636 19.653,12.2 26.502,33.111c0.38,1.168 0.74,2.33 1.073,3.482l0.032,-0.011l23.853,72.881c0.279,0.783 0.549,1.577 0.811,2.378c6.816,20.831 6.089,39.885 -1.605,42.643l-0.183,0.062Z" style="fill:#fff;"/><path d="M1341.36,444.047c-7.78,2.49 -19.591,-12.312 -26.406,-33.143c-0.165,-0.5 -0.327,-1.006 -0.482,-1.503l-24.145,-73.762l0.051,-0.019c-0.412,-1.128 -0.813,-2.278 -1.193,-3.446c-6.82,-20.83 -6.093,-39.884 1.6,-42.642l0.092,-0.031c7.783,-2.637 19.652,12.195 26.497,33.111c0.385,1.168 0.744,2.33 1.078,3.481l0.032,-0.01l23.853,72.88c0.274,0.784 0.543,1.574 0.806,2.38c6.82,20.83 6.094,39.884 -1.6,42.641l-0.183,0.063Z" style="fill:#fff;"/><path d="M168.242,1181.04c-8.545,-49.119 18.942,-94.979 61.34,-102.347c42.403,-7.368 83.76,26.523 92.3,75.642c8.545,49.114 -18.943,94.975 -61.34,102.347c-42.398,7.367 -83.756,-26.528 -92.3,-75.642Z" style="fill:#7e9bff;"/><path d="M325.727,1520.91c-8.624,-49.594 18.796,-95.841 61.193,-103.213c42.398,-7.367 83.824,26.914 92.453,76.513c8.624,49.594 -18.796,95.841 -61.193,103.213c-42.398,7.367 -83.824,-26.914 -92.453,-76.513Z" style="fill:#7e9bff;"/><path d="M240.472,1076.87l30.917,177.744l140.603,-24.441l-30.911,-177.74l-140.609,24.437Z" style="fill:#7e9bff;"/><path d="M192.022,814.199c-8.54,-49.119 21.923,-95.492 67.989,-103.498c46.067,-8.007 90.398,25.367 98.944,74.486c8.539,49.115 -21.923,95.492 -67.99,103.498c-46.066,8.007 -90.399,-25.371 -98.943,-74.486Z" style="fill:#7e9bff;"/><path d="M264.252,710.032l30.917,177.744l125.18,-21.759l-30.917,-177.744l-125.18,21.759Z" style="fill:#7e9bff;"/><path d="M391.179,1415.8l31.29,179.902l101.021,-17.558l-31.291,-179.902l-101.02,17.558Z" style="fill:#7e9bff;"/><path d="M1325.92,252.217c-408.49,104.821 -590.525,290.429 -840.517,598.569c-102.513,166.682 -258.552,426.913 -252.542,567.017c-28.066,-66.676 -49.261,-137.896 -62.4,-212.743c-86.383,-492.065 207.908,-955.533 656.772,-1034.33c175.009,-30.723 347.844,1.539 498.687,81.489Z" style="fill-opacity:0.04;"/></svg>