<?xml version="1.0" encoding="UTF-8" standalone="no"?><!DOCTYPE svg PUBLIC "-//W3C//DTD SVG 1.1//EN" "http://www.w3.org/Graphics/SVG/1.1/DTD/svg11.dtd"><svg width="100%" height="100%" viewBox="0 0 500 500" version="1.1" xmlns="http://www.w3.org/2000/svg" xmlns:xlink="http://www.w3.org/1999/xlink" xml:space="preserve" xmlns:serif="http://www.serif.com/" style="fill-rule:evenodd;clip-rule:evenodd;stroke-linejoin:round;stroke-miterlimit:2;"><path d="M198.39,169.006c116.049,-38.532 229.651,-11.43 253.529,60.483c23.878,71.914 -50.953,161.582 -167.002,200.114c-116.049,38.532 -229.652,11.431 -253.53,-60.483c-23.877,-71.914 50.954,-161.582 167.003,-200.114Zm29.528,73.207c56.285,-18.688 109.948,-9.868 119.761,19.686c9.812,29.553 -27.917,68.719 -84.202,87.407c-56.285,18.689 -109.948,9.868 -119.761,-19.685c-9.812,-29.553 27.917,-68.719 84.202,-87.408Z" style="fill:#e6d19a;"/><path d="M193.77,152.438c112.037,-37.2 221.638,-11.256 244.6,57.898c22.962,69.155 -49.356,155.501 -161.393,192.701c-112.036,37.2 -221.637,11.256 -244.599,-57.898c-22.962,-69.155 49.356,-155.501 161.392,-192.701Zm19.283,63.867c61.37,-20.377 119.907,-10.681 130.638,21.637c10.731,32.319 -30.382,75.102 -91.752,95.479c-61.371,20.377 -119.908,10.682 -130.639,-21.637c-10.731,-32.319 30.382,-75.102 91.753,-95.479Z" style="fill:#fff4d7;"/><path d="M307.39,376.575c11.581,-3.845 22.594,-2.112 24.58,3.867c1.985,5.98 -5.805,13.956 -17.385,17.801c-11.581,3.845 -22.595,2.112 -24.58,-3.867c-1.986,-5.979 5.805,-13.956 17.385,-17.801Z" style="fill:#e6d19a;"/><path d="M332.044,380.719l-41.908,13.915l7.478,22.52l41.907,-13.914l-7.477,-22.521Z" style="fill:#e6d19a;"/><path d="M223.899,404.438c11.581,-3.845 22.594,-2.112 24.58,3.867c1.985,5.979 -5.805,13.956 -17.386,17.801c-11.58,3.845 -22.594,2.112 -24.579,-3.867c-1.986,-5.98 5.804,-13.956 17.385,-17.801Z" style="fill:#e6d19a;"/><path d="M248.553,408.582l-41.908,13.915l7.055,21.248l41.908,-13.914l-7.055,-21.249Z" style="fill:#e6d19a;"/><path d="M279.229,431.147c-11.585,3.833 -22.807,1.427 -25.045,-5.37c-2.238,-6.796 5.351,-15.426 16.935,-19.259c11.585,-3.832 22.807,-1.426 25.045,5.37c2.238,6.797 -5.351,15.426 -16.935,19.259Z" style="fill:#fff4d7;"/><path d="M358.266,388.024c-11.698,3.87 -23.012,1.495 -25.25,-5.302c-2.237,-6.796 5.443,-15.456 17.14,-19.326c11.698,-3.87 23.011,-1.495 25.249,5.302c2.238,6.796 -5.442,15.456 -17.139,19.326Z" style="fill:#fff4d7;"/><path d="M253.626,424.028l41.923,-13.87l-7.422,-22.538l-41.922,13.869l7.421,22.539Z" style="fill:#fff4d7;"/><path d="M191.704,444.992c-11.585,3.832 -22.964,0.949 -25.395,-6.435c-2.432,-7.384 5,-16.491 16.584,-20.324c11.585,-3.833 22.964,-0.949 25.396,6.435c2.431,7.384 -5,16.491 -16.585,20.324Z" style="fill:#fff4d7;"/><path d="M166.102,437.873l41.922,-13.87l-6.607,-20.066l-41.923,13.87l6.608,20.066Z" style="fill:#fff4d7;"/><path d="M332.516,382.096l42.432,-14.039l-5.332,-16.193l-42.432,14.039l5.332,16.193Z" style="fill:#fff4d7;"/><path d="M45.064,280.995c29.605,63.833 75.834,85.518 151.986,112.706c40.818,9.186 104.499,22.85 137.753,15.015c-15.538,7.983 -32.235,15.027 -49.886,20.887c-116.049,38.532 -229.652,11.431 -253.53,-60.483c-9.31,-28.039 -3.614,-58.778 13.677,-88.125Z" style="fill-opacity:0.04;"/></svg>