<?xml version="1.0" encoding="UTF-8" standalone="no"?><!DOCTYPE svg PUBLIC "-//W3C//DTD SVG 1.1//EN" "http://www.w3.org/Graphics/SVG/1.1/DTD/svg11.dtd"><svg width="100%" height="100%" viewBox="0 0 8684 8684" version="1.1" xmlns="http://www.w3.org/2000/svg" xmlns:xlink="http://www.w3.org/1999/xlink" xml:space="preserve" xmlns:serif="http://www.serif.com/" style="fill-rule:evenodd;clip-rule:evenodd;stroke-linejoin:round;stroke-miterlimit:2;"><ellipse cx="4158.61" cy="4117.32" rx="3164.69" ry="2995.43" style="fill:#e6d19a;"/><ellipse cx="4196.29" cy="3644.67" rx="3004.05" ry="2526.39" style="fill:#7399c1;"/><path d="M2856.58,2076.94c28.508,-8.071 69.446,44.671 91.579,118.091c0.538,1.771 1.059,3.559 1.563,5.313l78.366,260l-0.171,0.05c1.338,3.975 2.638,8.037 3.888,12.154c22.137,73.437 17.137,140.017 -11.075,149.029l-0.329,0.104c-28.509,8.592 -69.688,-44.271 -91.913,-117.987c-1.25,-4.133 -2.396,-8.229 -3.471,-12.275l-0.104,0.033l-77.429,-256.891c-0.904,-2.759 -1.791,-5.555 -2.642,-8.384c-22.133,-73.437 -17.15,-140.016 11.08,-149.029l0.658,-0.208Z" style="fill:#f900e1;"/><ellipse cx="4227.54" cy="2195.57" rx="591.971" ry="579.567" style="fill:#fff0f3;"/><path d="M2882.29,5054.54c122.375,-1203.95 671.441,-2113.37 1329.42,-2113.37c657.979,-0 1207.05,909.421 1329.42,2113.37l-2658.85,-0Z" style="fill:#fff0f3;"/><path d="M4116.56,5401.25c18.488,-23.142 82.463,-4.029 143.159,42.846c1.475,1.146 2.916,2.275 4.358,3.421l214.896,166.025l-0.121,0.154c3.417,2.45 6.821,4.983 10.242,7.625c60.675,46.875 95.329,103.958 77.604,127.687l-0.208,0.279c-18.213,23.575 -82.45,4.48 -143.367,-42.587c-3.421,-2.621 -6.738,-5.296 -9.967,-7.967l-0.071,0.088l-212.308,-164.029c-2.342,-1.721 -4.688,-3.492 -7.029,-5.296c-60.696,-46.892 -95.333,-103.975 -77.604,-127.709l0.208,-0.279l0.208,-0.258Z" style="fill:#f900e1;"/><path d="M6392.38,3191.88c18.492,-23.142 82.467,-4.029 143.158,42.846c1.459,1.146 2.917,2.275 4.342,3.421l214.896,166.025l-0.104,0.154c3.404,2.45 6.825,4.983 10.225,7.625c60.695,46.875 95.35,103.958 77.62,127.687l-0.208,0.28c-18.208,23.575 -82.446,4.479 -143.383,-42.588c-3.404,-2.621 -6.721,-5.296 -9.95,-7.967l-0.067,0.088l-212.329,-164.029c-2.325,-1.721 -4.688,-3.492 -7.013,-5.296c-60.695,-46.892 -95.345,-103.975 -77.62,-127.708l0.208,-0.28l0.225,-0.258Z" style="fill:#f900e1;"/><path d="M2374.56,3648.72c18.488,-23.142 82.463,-4.012 143.159,42.863c1.458,1.145 2.916,2.275 4.341,3.42l214.913,166.025l-0.121,0.138c3.417,2.45 6.821,5 10.225,7.642c60.692,46.875 95.346,103.958 77.621,127.691l-0.208,0.275c-18.213,23.559 -82.45,4.479 -143.388,-42.587c-3.4,-2.638 -6.717,-5.292 -9.946,-7.967l-0.071,0.088l-212.325,-164.03c-2.325,-1.716 -4.671,-3.487 -7.012,-5.295c-60.696,-46.892 -95.334,-103.975 -77.625,-127.709l0.229,-0.275l0.208,-0.279Z" style="fill:#f900e1;"/><path d="M5247.21,1779.08c27.45,11.129 27.363,77.9 -0.279,149.446c-0.658,1.717 -1.333,3.438 -2.029,5.138l-97.867,253.316l-0.171,-0.071c-1.37,3.98 -2.829,7.971 -4.391,11.979c-27.642,71.546 -72.467,121.026 -100.263,110.801l-0.329,-0.121c-27.779,-10.729 -27.812,-77.742 -0.054,-149.567c1.546,-4.008 3.146,-7.95 4.792,-11.821l-0.105,-0.037l96.705,-250.275c0.97,-2.729 1.995,-5.471 3.07,-8.229c27.642,-71.546 72.467,-121.025 100.263,-110.8l0.658,0.241Z" style="fill:#ffe500;"/><path d="M2247.5,2156.53c27.446,11.129 27.363,77.9 -0.279,149.442c-0.659,1.721 -1.334,3.437 -2.029,5.142l-97.867,253.312l-0.171,-0.067c-1.371,3.959 -2.829,7.967 -4.392,11.98c-27.641,71.529 -72.466,121.025 -100.279,110.795l-0.312,-0.12c-27.779,-10.73 -27.813,-77.759 -0.071,-149.567c1.562,-4.008 3.162,-7.967 4.808,-11.821l-0.104,-0.033l96.704,-250.279c0.971,-2.725 1.996,-5.488 3.054,-8.23c27.638,-71.546 72.484,-121.025 100.28,-110.8l0.658,0.246Z" style="fill:#ffe500;"/><path d="M6276.83,4750.54c24.459,16.721 10.171,81.945 -32.05,145.975c-1.025,1.541 -2.05,3.071 -3.07,4.579l-149.517,226.704l-0.138,-0.087c-2.187,3.575 -4.479,7.17 -6.841,10.762c-42.221,64.029 -96.563,102.85 -121.546,86.946l-0.292,-0.192c-24.862,-16.387 -10.629,-81.875 31.75,-146.162c2.363,-3.575 4.775,-7.1 7.209,-10.521l-0.088,-0.071l147.692,-223.975c1.541,-2.467 3.141,-4.929 4.754,-7.396c42.225,-64.029 96.562,-102.846 121.546,-86.946l0.591,0.384Z" style="fill:#ffe500;"/><path d="M6378.62,3723.3c24.446,16.717 10.175,81.942 -32.05,145.971c-1.025,1.546 -2.05,3.071 -3.071,4.583l-149.517,226.7l-0.154,-0.087c-2.187,3.579 -4.462,7.171 -6.825,10.766c-42.221,64.025 -96.562,102.846 -121.541,86.946l-0.296,-0.191c-24.863,-16.392 -10.625,-81.892 31.75,-146.163c2.362,-3.596 4.775,-7.104 7.208,-10.521l-0.087,-0.071l147.691,-223.975c1.546,-2.466 3.125,-4.933 4.755,-7.395c42.225,-64.03 96.562,-102.85 121.545,-86.946l0.592,0.383Z" style="fill:#ffe500;"/><path d="M5115.46,5193.42c29.338,-4.167 62.792,53.612 74.809,129.358c0.295,1.838 0.57,3.663 0.833,5.467l42.567,268.212l-0.171,0.017c0.796,4.133 1.546,8.317 2.221,12.571c12.012,75.746 -1.909,141.041 -31.075,146.162l-0.35,0.071c-29.409,4.671 -63.088,-53.283 -75.155,-129.325c-0.679,-4.233 -1.266,-8.454 -1.77,-12.621l-0.121,0.017l-42.067,-264.983c-0.521,-2.863 -1.008,-5.746 -1.475,-8.663c-12.033,-75.746 1.892,-141.058 31.075,-146.179l0.346,-0.054l0.333,-0.05Z" style="fill:#ffe500;"/><path d="M2865.78,5275.42c25.067,-15.78 79.2,23.316 121.109,87.554c1.008,1.546 1.996,3.104 2.987,4.65l148.35,227.45l-0.158,0.104c2.433,3.421 4.812,6.942 7.171,10.554c41.896,64.238 55.85,129.533 31.304,146.129l-0.296,0.192c-24.929,16.267 -79.325,-22.883 -121.387,-87.363c-2.363,-3.608 -4.621,-7.22 -6.788,-10.816l-0.104,0.071l-146.563,-224.721c-1.65,-2.396 -3.283,-4.829 -4.9,-7.309c-41.908,-64.22 -55.85,-129.533 -31.316,-146.112l0.587,-0.383l0.004,-0Z" style="fill:#ffe500;"/><path d="M2646.89,2950.58c27.45,11.125 27.362,77.896 -0.275,149.442c-0.663,1.737 -1.338,3.454 -2.034,5.141l-97.862,253.313l-0.175,-0.067c-1.371,3.975 -2.829,7.967 -4.392,11.979c-27.642,71.546 -72.467,121.025 -100.279,110.796l-0.313,-0.121c-27.779,-10.729 -27.812,-77.741 -0.07,-149.566c1.562,-4.009 3.162,-7.95 4.812,-11.821l-0.104,-0.038l96.7,-250.258c0.971,-2.742 1.996,-5.487 3.054,-8.246c27.642,-71.546 72.483,-121.025 100.279,-110.8l0.659,0.242l-0,0.004Z" style="fill:#ffe500;"/><path d="M5866.25,2889.95c3.871,29.354 -54.237,62.271 -130.087,73.558c-1.821,0.275 -3.663,0.538 -5.467,0.779l-268.596,40.001l-0.033,-0.192c-4.134,0.766 -8.334,1.479 -12.588,2.104c-75.85,11.3 -141.025,-3.25 -145.866,-32.467l-0.055,-0.346c-4.391,-29.462 53.871,-62.57 130.034,-73.908c4.254,-0.642 8.475,-1.196 12.641,-1.666l-0.016,-0.121l265.379,-39.517c2.867,-0.483 5.746,-0.954 8.683,-1.387c75.85,-11.3 141.021,3.245 145.867,32.466l0.104,0.692l0,0.004Z" style="fill:#fff;"/><path d="M5929.38,3647.05c-21.404,20.467 -82.275,-6.996 -136.179,-61.546c-1.304,-1.321 -2.588,-2.637 -3.854,-3.958l-190.888,-193.163l0.125,-0.12c-3.058,-2.88 -6.096,-5.851 -9.117,-8.921c-53.904,-54.534 -80.658,-115.729 -59.929,-136.896l0.242,-0.242c21.179,-20.937 82.308,6.529 136.425,61.304c3.037,3.054 5.971,6.13 8.817,9.217l0.087,-0.088l188.579,190.834c2.1,2.033 4.184,4.083 6.267,6.183c53.904,54.546 80.642,115.746 59.912,136.909l-0.487,0.487Z" style="fill:#fff;"/><path d="M2414.98,4690.12c-21.408,20.471 -82.275,-6.996 -136.179,-61.546c-1.304,-1.316 -2.587,-2.637 -3.854,-3.958l-190.887,-193.158l0.12,-0.121c-3.054,-2.884 -6.091,-5.871 -9.129,-8.925c-53.908,-54.55 -80.646,-115.729 -59.916,-136.892l0.245,-0.242c21.18,-20.937 82.309,6.525 136.421,61.284c3.042,3.054 5.975,6.146 8.821,9.237l0.088,-0.087l188.575,190.833c2.1,2.013 4.183,4.079 6.266,6.179c53.909,54.55 80.646,115.729 59.917,136.892l-0.246,0.262l-0.242,0.242Z" style="fill:#fff;"/><path d="M1537.88,2438.63c721.667,2216.8 1979.83,3744.41 3903.11,4417.62c-392.013,164.863 -825.971,256.513 -1282.38,256.513c-1746.63,-0 -3164.67,-1342.23 -3164.67,-2995.45c-0,-621.942 200.675,-1199.86 543.941,-1678.7l0,0.012Z" style="fill-opacity:0.04;"/></svg>