<?xml version="1.0" encoding="UTF-8" standalone="no"?><!DOCTYPE svg PUBLIC "-//W3C//DTD SVG 1.1//EN" "http://www.w3.org/Graphics/SVG/1.1/DTD/svg11.dtd"><svg width="100%" height="100%" viewBox="0 0 1563 3384" version="1.1" xmlns="http://www.w3.org/2000/svg" xmlns:xlink="http://www.w3.org/1999/xlink" xml:space="preserve" xmlns:serif="http://www.serif.com/" style="fill-rule:evenodd;clip-rule:evenodd;stroke-linecap:round;stroke-linejoin:round;stroke-miterlimit:1.5;"><rect id="Artboard1" x="0" y="0" width="1562.5" height="3383.33" style="fill:none;"/><clipPath id="_clip1"><rect id="Artboard11" serif:id="Artboard1" x="0" y="0" width="1562.5" height="3383.33"/></clipPath><g clip-path="url(#_clip1)"><rect x="-1683.16" y="-190.989" width="10667.5" height="6155.22" style="fill:#00364d;"/><path d="M1075.96,635.107c163.487,-83.998 360.766,-26.563 440.272,128.18c79.506,154.742 11.325,348.57 -152.162,432.568c-163.486,83.999 -360.765,26.564 -440.271,-128.179c-79.506,-154.743 -11.325,-348.57 152.161,-432.569Z" style="fill:#e6d19a;"/><path d="M1079.32,632.957c155.187,-79.734 335.621,-38.51 402.678,92.002c67.056,130.512 -4.495,301.206 -159.683,380.941c-155.187,79.735 -335.621,38.51 -402.678,-92.002c-67.056,-130.512 4.495,-301.206 159.683,-380.941Z" style="fill:#723529;"/><path d="M893.987,884.389c174.157,172.788 365.387,255.266 577.783,225.786c-28.765,34.284 -64.976,63.732 -107.695,85.681c-163.486,83.999 -360.765,26.561 -440.271,-128.182c-29.91,-58.214 -38.92,-121.958 -29.818,-183.286l0.001,0.001Z" style="fill-opacity:0.04;"/><ellipse cx="441.765" cy="1527.12" rx="362.395" ry="343.013" style="fill:#e6d19a;"/><ellipse cx="446.079" cy="1473" rx="343.999" ry="289.302" style="fill:#c29ae6;"/><path d="M387.038,1246.77c3.264,-0.924 7.952,5.115 10.487,13.523c0.061,0.203 0.121,0.407 0.179,0.608l8.974,29.773l-0.02,0.006c0.153,0.456 0.302,0.921 0.445,1.392c2.535,8.409 1.962,16.034 -1.268,17.065l-0.038,0.012c-3.264,0.984 -7.98,-5.069 -10.525,-13.511c-0.143,-0.473 -0.274,-0.942 -0.397,-1.405l-0.012,0.004l-8.867,-29.417c-0.103,-0.316 -0.205,-0.637 -0.302,-0.961c-2.535,-8.409 -1.964,-16.033 1.268,-17.065l0.076,-0.024Z" style="fill:#f900e1;"/><path d="M430.163,1618.26c2.117,-2.65 9.443,-0.461 16.393,4.907c0.169,0.131 0.334,0.26 0.499,0.391l24.608,19.012l-0.014,0.018c0.392,0.28 0.782,0.571 1.173,0.873c6.949,5.367 10.917,11.904 8.887,14.622l-0.024,0.032c-2.085,2.699 -9.441,0.513 -16.417,-4.877c-0.392,-0.3 -0.772,-0.606 -1.142,-0.913l-0.007,0.01l-24.312,-18.783c-0.269,-0.197 -0.537,-0.399 -0.806,-0.606c-6.95,-5.37 -10.916,-11.907 -8.886,-14.624l0.024,-0.032l0.024,-0.03Z" style="fill:#f900e1;"/><path d="M697.56,1421.15c2.117,-2.65 9.443,-0.461 16.394,4.907c0.167,0.131 0.334,0.26 0.497,0.392l24.608,19.011l-0.012,0.018c0.389,0.281 0.781,0.571 1.171,0.873c6.95,5.368 10.918,11.904 8.888,14.622l-0.024,0.032c-2.085,2.7 -9.441,0.513 -16.419,-4.877c-0.39,-0.3 -0.769,-0.606 -1.139,-0.912l-0.008,0.01l-24.314,-18.784c-0.266,-0.196 -0.537,-0.399 -0.803,-0.606c-6.95,-5.37 -10.918,-11.906 -8.889,-14.624l0.024,-0.032l0.026,-0.03Z" style="fill:#f900e1;"/><path d="M280.313,1457.3c2.117,-2.65 9.443,-0.459 16.393,4.909c0.167,0.131 0.334,0.26 0.497,0.391l24.611,19.012l-0.014,0.016c0.391,0.28 0.781,0.573 1.171,0.875c6.95,5.367 10.918,11.904 8.888,14.622l-0.024,0.032c-2.085,2.697 -9.441,0.513 -16.419,-4.877c-0.39,-0.302 -0.769,-0.606 -1.139,-0.913l-0.008,0.01l-24.314,-18.783c-0.266,-0.197 -0.535,-0.399 -0.803,-0.606c-6.95,-5.37 -10.917,-11.907 -8.889,-14.624l0.026,-0.032l0.024,-0.032Z" style="fill:#f900e1;"/><path d="M473.977,1232.61c3.143,1.274 3.133,8.921 -0.032,17.113c-0.075,0.197 -0.153,0.394 -0.232,0.589l-11.207,29.007l-0.02,-0.007c-0.157,0.455 -0.324,0.912 -0.503,1.371c-3.165,8.193 -8.298,13.859 -11.481,12.688l-0.037,-0.014c-3.181,-1.228 -3.185,-8.902 -0.006,-17.127c0.177,-0.459 0.359,-0.91 0.548,-1.354l-0.012,-0.004l11.074,-28.66c0.111,-0.312 0.228,-0.626 0.352,-0.942c3.165,-8.193 8.298,-13.859 11.481,-12.688l0.075,0.028Z" style="fill:#ffe500;"/><path d="M222.92,1302.59c3.143,1.274 3.133,8.92 -0.032,17.113c-0.076,0.197 -0.153,0.394 -0.233,0.588l-11.206,29.008l-0.02,-0.008c-0.157,0.453 -0.324,0.913 -0.503,1.372c-3.165,8.191 -8.298,13.859 -11.483,12.688l-0.036,-0.014c-3.181,-1.229 -3.185,-8.905 -0.008,-17.127c0.179,-0.46 0.362,-0.913 0.551,-1.354l-0.012,-0.004l11.073,-28.66c0.112,-0.312 0.229,-0.628 0.35,-0.942c3.165,-8.193 8.3,-13.859 11.483,-12.688l0.076,0.028Z" style="fill:#ffe500;"/><path d="M684.328,1599.63c2.801,1.915 1.165,9.384 -3.67,16.716c-0.118,0.177 -0.235,0.351 -0.352,0.524l-17.121,25.96l-0.016,-0.009c-0.251,0.409 -0.513,0.821 -0.784,1.232c-4.835,7.332 -11.057,11.777 -13.918,9.956l-0.034,-0.022c-2.847,-1.876 -1.217,-9.375 3.636,-16.737c0.271,-0.41 0.547,-0.813 0.825,-1.205l-0.01,-0.008l16.913,-25.648c0.177,-0.282 0.36,-0.564 0.545,-0.847c4.834,-7.331 11.057,-11.777 13.918,-9.956l0.068,0.044Z" style="fill:#ffe500;"/><path d="M695.983,1482c2.8,1.914 1.165,9.383 -3.669,16.715c-0.118,0.177 -0.235,0.352 -0.352,0.525l-17.121,25.96l-0.018,-0.01c-0.251,0.41 -0.511,0.821 -0.782,1.233c-4.835,7.332 -11.057,11.777 -13.918,9.956l-0.034,-0.022c-2.847,-1.877 -1.217,-9.377 3.636,-16.737c0.271,-0.412 0.547,-0.813 0.825,-1.205l-0.01,-0.008l16.913,-25.648c0.177,-0.282 0.358,-0.564 0.545,-0.847c4.834,-7.332 11.057,-11.777 13.918,-9.956l0.067,0.044Z" style="fill:#ffe500;"/><path d="M551.337,1650.35c3.359,-0.477 7.19,6.139 8.566,14.813c0.034,0.211 0.066,0.42 0.095,0.627l4.875,30.713l-0.02,0.002c0.092,0.473 0.177,0.952 0.255,1.439c1.376,8.674 -0.219,16.151 -3.559,16.738l-0.04,0.008c-3.367,0.535 -7.224,-6.102 -8.606,-14.809c-0.077,-0.485 -0.145,-0.968 -0.203,-1.446l-0.014,0.002l-4.817,-30.343c-0.059,-0.328 -0.115,-0.658 -0.169,-0.992c-1.377,-8.674 0.217,-16.153 3.559,-16.74l0.04,-0.006l0.038,-0.006Z" style="fill:#ffe500;"/><path d="M293.72,1659.74c2.871,-1.807 9.07,2.67 13.869,10.026c0.115,0.177 0.229,0.356 0.342,0.532l16.988,26.046l-0.018,0.012c0.278,0.392 0.551,0.795 0.821,1.209c4.797,7.355 6.396,14.833 3.584,16.733l-0.033,0.022c-2.855,1.863 -9.084,-2.62 -13.901,-10.004c-0.27,-0.413 -0.529,-0.827 -0.777,-1.238l-0.012,0.007l-16.783,-25.733c-0.189,-0.274 -0.376,-0.553 -0.561,-0.837c-4.799,-7.354 -6.395,-14.833 -3.586,-16.731l0.067,-0.044Z" style="fill:#ffe500;"/><path d="M268.655,1393.52c3.143,1.275 3.133,8.921 -0.032,17.114c-0.075,0.198 -0.153,0.395 -0.233,0.588l-11.206,29.008l-0.02,-0.008c-0.157,0.455 -0.324,0.912 -0.503,1.372c-3.165,8.192 -8.298,13.858 -11.483,12.687l-0.036,-0.014c-3.181,-1.228 -3.185,-8.902 -0.008,-17.127c0.179,-0.459 0.362,-0.91 0.551,-1.354l-0.012,-0.004l11.073,-28.657c0.112,-0.314 0.229,-0.629 0.35,-0.945c3.165,-8.192 8.3,-13.858 11.483,-12.687l0.076,0.027Z" style="fill:#ffe500;"/><path d="M637.31,1386.57c0.443,3.362 -6.211,7.131 -14.897,8.423c-0.208,0.032 -0.419,0.062 -0.626,0.09l-30.757,4.58l-0.004,-0.021c-0.473,0.087 -0.954,0.169 -1.441,0.24c-8.686,1.294 -16.149,-0.372 -16.704,-3.718l-0.006,-0.039c-0.503,-3.374 6.169,-7.165 14.891,-8.463c0.487,-0.074 0.97,-0.138 1.447,-0.191l-0.002,-0.014l30.389,-4.525c0.328,-0.056 0.658,-0.109 0.994,-0.159c8.686,-1.294 16.149,0.372 16.704,3.718l0.012,0.079Z" style="fill:#fff;"/><path d="M644.541,1473.27c-2.452,2.344 -9.422,-0.801 -15.595,-7.047c-0.149,-0.152 -0.296,-0.303 -0.441,-0.454l-21.859,-22.119l0.014,-0.014c-0.35,-0.33 -0.698,-0.67 -1.044,-1.022c-6.172,-6.244 -9.236,-13.252 -6.862,-15.675l0.027,-0.028c2.426,-2.398 9.426,0.747 15.623,7.02c0.348,0.349 0.684,0.701 1.01,1.055l0.009,-0.01l21.595,21.853c0.24,0.233 0.479,0.467 0.717,0.708c6.173,6.246 9.235,13.254 6.861,15.678l-0.055,0.055Z" style="fill:#fff;"/><path d="M242.098,1592.72c-2.451,2.344 -9.421,-0.802 -15.594,-7.048c-0.149,-0.151 -0.296,-0.302 -0.441,-0.453l-21.859,-22.119l0.014,-0.014c-0.35,-0.33 -0.698,-0.672 -1.046,-1.022c-6.173,-6.247 -9.234,-13.253 -6.86,-15.676l0.027,-0.028c2.426,-2.397 9.426,0.748 15.623,7.018c0.347,0.35 0.683,0.704 1.009,1.058l0.01,-0.01l21.595,21.852c0.24,0.231 0.479,0.468 0.717,0.708c6.173,6.247 9.235,13.252 6.861,15.676l-0.028,0.03l-0.028,0.028Z" style="fill:#fff;"/><ellipse cx="446.079" cy="1473" rx="343.999" ry="289.302" style="fill:#c29ae6;"/><path d="M387.038,1246.77c3.264,-0.924 7.952,5.115 10.487,13.523c0.061,0.203 0.121,0.407 0.179,0.608l8.974,29.773l-0.02,0.006c0.153,0.456 0.302,0.921 0.445,1.392c2.535,8.409 1.962,16.034 -1.268,17.065l-0.038,0.012c-3.264,0.984 -7.98,-5.069 -10.525,-13.511c-0.143,-0.473 -0.274,-0.942 -0.397,-1.405l-0.012,0.004l-8.867,-29.417c-0.103,-0.316 -0.205,-0.637 -0.302,-0.961c-2.535,-8.409 -1.964,-16.033 1.268,-17.065l0.076,-0.024Z" style="fill:#f900e1;"/><path d="M430.163,1618.26c2.117,-2.65 9.443,-0.461 16.393,4.907c0.169,0.131 0.334,0.26 0.499,0.391l24.608,19.012l-0.014,0.018c0.392,0.28 0.782,0.571 1.173,0.873c6.949,5.367 10.917,11.904 8.887,14.622l-0.024,0.032c-2.085,2.699 -9.441,0.513 -16.417,-4.877c-0.392,-0.3 -0.772,-0.606 -1.142,-0.913l-0.007,0.01l-24.312,-18.783c-0.269,-0.197 -0.537,-0.399 -0.806,-0.606c-6.95,-5.37 -10.916,-11.907 -8.886,-14.624l0.024,-0.032l0.024,-0.03Z" style="fill:#f900e1;"/><path d="M697.56,1421.15c2.117,-2.65 9.443,-0.461 16.394,4.907c0.167,0.131 0.334,0.26 0.497,0.392l24.608,19.011l-0.012,0.018c0.389,0.281 0.781,0.571 1.171,0.873c6.95,5.368 10.918,11.904 8.888,14.622l-0.024,0.032c-2.085,2.7 -9.441,0.513 -16.419,-4.877c-0.39,-0.3 -0.769,-0.606 -1.139,-0.912l-0.008,0.01l-24.314,-18.784c-0.266,-0.196 -0.537,-0.399 -0.803,-0.606c-6.95,-5.37 -10.918,-11.906 -8.889,-14.624l0.024,-0.032l0.026,-0.03Z" style="fill:#f900e1;"/><path d="M280.313,1457.3c2.117,-2.65 9.443,-0.459 16.393,4.909c0.167,0.131 0.334,0.26 0.497,0.391l24.611,19.012l-0.014,0.016c0.391,0.28 0.781,0.573 1.171,0.875c6.95,5.367 10.918,11.904 8.888,14.622l-0.024,0.032c-2.085,2.697 -9.441,0.513 -16.419,-4.877c-0.39,-0.302 -0.769,-0.606 -1.139,-0.913l-0.008,0.01l-24.314,-18.783c-0.266,-0.197 -0.535,-0.399 -0.803,-0.606c-6.95,-5.37 -10.917,-11.907 -8.889,-14.624l0.026,-0.032l0.024,-0.032Z" style="fill:#f900e1;"/><path d="M473.977,1232.61c3.143,1.274 3.133,8.921 -0.032,17.113c-0.075,0.197 -0.153,0.394 -0.232,0.589l-11.207,29.007l-0.02,-0.007c-0.157,0.455 -0.324,0.912 -0.503,1.371c-3.165,8.193 -8.298,13.859 -11.481,12.688l-0.037,-0.014c-3.181,-1.228 -3.185,-8.902 -0.006,-17.127c0.177,-0.459 0.359,-0.91 0.548,-1.354l-0.012,-0.004l11.074,-28.66c0.111,-0.312 0.228,-0.626 0.352,-0.942c3.165,-8.193 8.298,-13.859 11.481,-12.688l0.075,0.028Z" style="fill:#ffe500;"/><path d="M222.92,1302.59c3.143,1.274 3.133,8.92 -0.032,17.113c-0.076,0.197 -0.153,0.394 -0.233,0.588l-11.206,29.008l-0.02,-0.008c-0.157,0.453 -0.324,0.913 -0.503,1.372c-3.165,8.191 -8.298,13.859 -11.483,12.688l-0.036,-0.014c-3.181,-1.229 -3.185,-8.905 -0.008,-17.127c0.179,-0.46 0.362,-0.913 0.551,-1.354l-0.012,-0.004l11.073,-28.66c0.112,-0.312 0.229,-0.628 0.35,-0.942c3.165,-8.193 8.3,-13.859 11.483,-12.688l0.076,0.028Z" style="fill:#ffe500;"/><path d="M684.328,1599.63c2.801,1.915 1.165,9.384 -3.67,16.716c-0.118,0.177 -0.235,0.351 -0.352,0.524l-17.121,25.96l-0.016,-0.009c-0.251,0.409 -0.513,0.821 -0.784,1.232c-4.835,7.332 -11.057,11.777 -13.918,9.956l-0.034,-0.022c-2.847,-1.876 -1.217,-9.375 3.636,-16.737c0.271,-0.41 0.547,-0.813 0.825,-1.205l-0.01,-0.008l16.913,-25.648c0.177,-0.282 0.36,-0.564 0.545,-0.847c4.834,-7.331 11.057,-11.777 13.918,-9.956l0.068,0.044Z" style="fill:#ffe500;"/><path d="M695.983,1482c2.8,1.914 1.165,9.383 -3.669,16.715c-0.118,0.177 -0.235,0.352 -0.352,0.525l-17.121,25.96l-0.018,-0.01c-0.251,0.41 -0.511,0.821 -0.782,1.233c-4.835,7.332 -11.057,11.777 -13.918,9.956l-0.034,-0.022c-2.847,-1.877 -1.217,-9.377 3.636,-16.737c0.271,-0.412 0.547,-0.813 0.825,-1.205l-0.01,-0.008l16.913,-25.648c0.177,-0.282 0.358,-0.564 0.545,-0.847c4.834,-7.332 11.057,-11.777 13.918,-9.956l0.067,0.044Z" style="fill:#ffe500;"/><path d="M551.337,1650.35c3.359,-0.477 7.19,6.139 8.566,14.813c0.034,0.211 0.066,0.42 0.095,0.627l4.875,30.713l-0.02,0.002c0.092,0.473 0.177,0.952 0.255,1.439c1.376,8.674 -0.219,16.151 -3.559,16.738l-0.04,0.008c-3.367,0.535 -7.224,-6.102 -8.606,-14.809c-0.077,-0.485 -0.145,-0.968 -0.203,-1.446l-0.014,0.002l-4.817,-30.343c-0.059,-0.328 -0.115,-0.658 -0.169,-0.992c-1.377,-8.674 0.217,-16.153 3.559,-16.74l0.04,-0.006l0.038,-0.006Z" style="fill:#ffe500;"/><path d="M293.72,1659.74c2.871,-1.807 9.07,2.67 13.869,10.026c0.115,0.177 0.229,0.356 0.342,0.532l16.988,26.046l-0.018,0.012c0.278,0.392 0.551,0.795 0.821,1.209c4.797,7.355 6.396,14.833 3.584,16.733l-0.033,0.022c-2.855,1.863 -9.084,-2.62 -13.901,-10.004c-0.27,-0.413 -0.529,-0.827 -0.777,-1.238l-0.012,0.007l-16.783,-25.733c-0.189,-0.274 -0.376,-0.553 -0.561,-0.837c-4.799,-7.354 -6.395,-14.833 -3.586,-16.731l0.067,-0.044Z" style="fill:#ffe500;"/><path d="M268.655,1393.52c3.143,1.275 3.133,8.921 -0.032,17.114c-0.075,0.198 -0.153,0.395 -0.233,0.588l-11.206,29.008l-0.02,-0.008c-0.157,0.455 -0.324,0.912 -0.503,1.372c-3.165,8.192 -8.298,13.858 -11.483,12.687l-0.036,-0.014c-3.181,-1.228 -3.185,-8.902 -0.008,-17.127c0.179,-0.459 0.362,-0.91 0.551,-1.354l-0.012,-0.004l11.073,-28.657c0.112,-0.314 0.229,-0.629 0.35,-0.945c3.165,-8.192 8.3,-13.858 11.483,-12.687l0.076,0.027Z" style="fill:#ffe500;"/><path d="M637.31,1386.57c0.443,3.362 -6.211,7.131 -14.897,8.423c-0.208,0.032 -0.419,0.062 -0.626,0.09l-30.757,4.58l-0.004,-0.021c-0.473,0.087 -0.954,0.169 -1.441,0.24c-8.686,1.294 -16.149,-0.372 -16.704,-3.718l-0.006,-0.039c-0.503,-3.374 6.169,-7.165 14.891,-8.463c0.487,-0.074 0.97,-0.138 1.447,-0.191l-0.002,-0.014l30.389,-4.525c0.328,-0.056 0.658,-0.109 0.994,-0.159c8.686,-1.294 16.149,0.372 16.704,3.718l0.012,0.079Z" style="fill:#fff;"/><path d="M644.541,1473.27c-2.452,2.344 -9.422,-0.801 -15.595,-7.047c-0.149,-0.152 -0.296,-0.303 -0.441,-0.454l-21.859,-22.119l0.014,-0.014c-0.35,-0.33 -0.698,-0.67 -1.044,-1.022c-6.172,-6.244 -9.236,-13.252 -6.862,-15.675l0.027,-0.028c2.426,-2.398 9.426,0.747 15.623,7.02c0.348,0.349 0.684,0.701 1.01,1.055l0.009,-0.01l21.595,21.853c0.24,0.233 0.479,0.467 0.717,0.708c6.173,6.246 9.235,13.254 6.861,15.678l-0.055,0.055Z" style="fill:#fff;"/><path d="M242.098,1592.72c-2.451,2.344 -9.421,-0.802 -15.594,-7.048c-0.149,-0.151 -0.296,-0.302 -0.441,-0.453l-21.859,-22.119l0.014,-0.014c-0.35,-0.33 -0.698,-0.672 -1.046,-1.022c-6.173,-6.247 -9.234,-13.253 -6.86,-15.676l0.027,-0.028c2.426,-2.397 9.426,0.748 15.623,7.018c0.347,0.35 0.683,0.704 1.009,1.058l0.01,-0.01l21.595,21.852c0.24,0.231 0.479,0.468 0.717,0.708c6.173,6.247 9.235,13.252 6.861,15.676l-0.028,0.03l-0.028,0.028Z" style="fill:#fff;"/><path d="M329.646,1601.65l224.883,-292.715" style="fill:none;stroke:#feb7ee;stroke-width:65.81px;"/><path d="M588.43,1567.9l-285.459,-234.024" style="fill:none;stroke:#feb7ee;stroke-width:63.46px;"/><path d="M141.66,1334.89c82.639,253.85 226.714,428.779 446.953,505.872c-44.891,18.879 -94.584,29.374 -146.848,29.374c-200.01,-0 -362.393,-153.701 -362.393,-343.015c0,-71.22 22.98,-137.399 62.288,-192.231Z" style="fill-opacity:0.04;"/><path d="M835.762,356.466c72.533,206.871 -27.549,430.558 -223.355,499.212c-195.806,68.653 -413.663,-43.559 -486.196,-250.429c-72.532,-206.868 27.552,-430.557 223.358,-499.21c195.806,-68.654 413.661,43.559 486.193,250.427Zm-200.641,79.763c35.18,100.335 -1.588,204.698 -82.054,232.911c-80.466,28.213 -174.355,-30.339 -209.535,-130.674c-35.179,-100.334 1.589,-204.696 82.055,-232.909c80.466,-28.213 174.355,30.338 209.534,130.672Z" style="fill:#e6d19a;"/><path d="M880.651,342.318c70.024,199.717 -25.995,415.46 -214.287,481.479c-188.293,66.019 -398.013,-42.525 -468.038,-242.242c-70.024,-199.717 25.995,-415.46 214.287,-481.479c188.292,-66.019 398.013,42.526 468.038,242.242Zm-173.413,57.334c38.357,109.399 -1.943,223.265 -89.941,254.119c-87.998,30.853 -190.581,-32.914 -228.938,-142.314c-38.358,-109.399 1.942,-223.266 89.94,-254.12c87.998,-30.854 190.581,32.916 228.939,142.315Z" style="fill:#ff7c8c;"/><path d="M260.522,630.422c7.238,20.643 -0.103,42.037 -16.384,47.745c-16.281,5.708 -35.375,-6.417 -42.613,-27.06c-7.238,-20.643 0.104,-42.037 16.385,-47.745c16.28,-5.709 35.374,6.416 42.612,27.06Z" style="fill:#e6d19a;"/><path d="M243.39,678.397l-26.193,-74.705l-61.317,21.499l26.193,74.705l61.317,-21.499Z" style="fill:#e6d19a;"/><path d="M207.967,481.635c7.238,20.643 -0.104,42.037 -16.384,47.746c-16.281,5.708 -35.375,-6.417 -42.613,-27.06c-7.238,-20.643 0.104,-42.037 16.384,-47.746c16.281,-5.708 35.375,6.417 42.613,27.06Z" style="fill:#e6d19a;"/><path d="M190.835,529.613l-26.193,-74.705l-57.856,20.286l26.193,74.704l57.856,-20.285Z" style="fill:#e6d19a;"/><path d="M273.826,349.931c2.142,3.04 -2.405,10.079 -10.183,15.75c-0.188,0.137 -0.376,0.273 -0.563,0.405l-27.542,20.077l-0.013,-0.018c-0.415,0.325 -0.842,0.648 -1.277,0.967c-7.778,5.669 -15.872,7.844 -18.111,4.877l-0.026,-0.035c-2.202,-3.019 2.351,-10.095 10.157,-15.785c0.438,-0.32 0.875,-0.625 1.312,-0.922l-0.009,-0.01l27.209,-19.838c0.289,-0.222 0.586,-0.444 0.886,-0.662c7.776,-5.67 15.869,-7.845 18.11,-4.877l0.024,0.036l0.026,0.035Z" style="fill:#f900e1;"/><path d="M288.639,419.588c-0.178,3.713 -8.092,6.476 -17.711,6.173c-0.233,-0.006 -0.466,-0.017 -0.693,-0.027l-34.067,-1.072l0.001,-0.023c-0.527,0.002 -1.062,-0.007 -1.601,-0.023c-9.621,-0.303 -17.343,-3.557 -17.287,-7.276l0.001,-0.044c0.117,-3.735 8.053,-6.52 17.712,-6.217c0.54,0.018 1.073,0.044 1.6,0.079l-0,-0.014l33.655,1.058c0.366,0.004 0.734,0.011 1.105,0.022c9.621,0.302 17.344,3.559 17.287,7.275l-0.002,0.089Z" style="fill:#ffe500;"/><path d="M344.757,316.684c3.406,1.488 3.169,9.866 -0.54,18.747c-0.091,0.216 -0.183,0.428 -0.273,0.638l-13.139,31.449l-0.022,-0.009c-0.187,0.493 -0.383,0.989 -0.591,1.489c-3.712,8.88 -9.506,14.936 -12.958,13.56l-0.041,-0.018c-3.448,-1.439 -3.224,-9.849 0.503,-18.764c0.207,-0.497 0.422,-0.988 0.642,-1.467l-0.013,-0.005l12.981,-31.07c0.133,-0.34 0.272,-0.682 0.414,-1.025c3.71,-8.879 9.505,-14.935 12.956,-13.559l0.041,0.018l0.04,0.016Z" style="fill:#ffe500;"/><path d="M292.889,320.577c-3.316,1.68 -9.626,-3.836 -14.114,-12.35c-0.109,-0.207 -0.216,-0.412 -0.318,-0.619l-15.892,-30.15l0.019,-0.012c-0.262,-0.457 -0.518,-0.924 -0.771,-1.403c-4.486,-8.515 -5.472,-16.838 -2.21,-18.625l0.039,-0.021c3.305,-1.741 9.648,3.784 14.153,12.332c0.251,0.478 0.492,0.954 0.721,1.431l0.013,-0.008l15.7,29.789c0.179,0.318 0.355,0.642 0.527,0.97c4.487,8.515 5.47,16.838 2.21,18.625l-0.077,0.041Z" style="fill:#fff;"/><path d="M360.993,570.602c-0.179,3.713 -8.09,6.477 -17.709,6.174c-0.234,-0.008 -0.466,-0.017 -0.693,-0.027l-34.067,-1.074l0.001,-0.023c-0.528,0.002 -1.062,-0.004 -1.603,-0.02c-9.619,-0.303 -17.342,-3.56 -17.287,-7.276l0.003,-0.045c0.117,-3.735 8.054,-6.52 17.71,-6.216c0.541,0.016 1.075,0.043 1.6,0.078l0.001,-0.016l33.656,1.061c0.366,0.001 0.733,0.008 1.105,0.021c9.619,0.303 17.343,3.557 17.287,7.276l-0.002,0.042l-0.002,0.045Z" style="fill:#ffe500;"/><path d="M353.541,497.29c-3.316,1.679 -9.628,-3.836 -14.114,-12.351c-0.109,-0.206 -0.216,-0.411 -0.32,-0.617l-15.892,-30.151l0.021,-0.012c-0.261,-0.456 -0.52,-0.924 -0.77,-1.401c-4.489,-8.517 -5.472,-16.838 -2.213,-18.625l0.039,-0.021c3.307,-1.743 9.648,3.783 14.153,12.33c0.253,0.478 0.494,0.956 0.723,1.43l0.014,-0.007l15.699,29.789c0.177,0.319 0.353,0.643 0.525,0.97c4.489,8.514 5.472,16.838 2.213,18.625l-0.078,0.041Z" style="fill:#fff;"/><path d="M800.541,508.716c2.142,3.04 -2.407,10.08 -10.184,15.75c-0.187,0.138 -0.375,0.273 -0.564,0.406l-27.541,20.077l-0.013,-0.019c-0.415,0.326 -0.842,0.649 -1.277,0.968c-7.777,5.668 -15.872,7.844 -18.111,4.876l-0.026,-0.034c-2.201,-3.02 2.349,-10.095 10.158,-15.786c0.437,-0.319 0.875,-0.625 1.311,-0.921l-0.008,-0.011l27.208,-19.838c0.29,-0.222 0.584,-0.443 0.884,-0.661c7.778,-5.671 15.871,-7.846 18.11,-4.877l0.053,0.07Z" style="fill:#f900e1;"/><path d="M812.503,601.2c-0.178,3.715 -8.09,6.477 -17.711,6.175c-0.232,-0.009 -0.464,-0.018 -0.693,-0.027l-34.067,-1.074l0.001,-0.021c-0.526,-0.001 -1.062,-0.007 -1.601,-0.023c-9.621,-0.303 -17.344,-3.559 -17.287,-7.276l0.001,-0.044c0.117,-3.735 8.053,-6.52 17.712,-6.217c0.539,0.016 1.073,0.044 1.6,0.079l-0,-0.014l33.657,1.058c0.364,0.004 0.732,0.011 1.103,0.022c9.621,0.302 17.343,3.557 17.287,7.275l-0.001,0.045l-0.001,0.042Z" style="fill:#ffe500;"/><path d="M849.971,508.386c-3.629,-0.808 -5.001,-9.076 -3.061,-18.505c0.047,-0.227 0.097,-0.454 0.145,-0.679l6.871,-33.382l0.023,0.004c0.087,-0.521 0.185,-1.045 0.295,-1.575c1.941,-9.427 6.466,-16.481 10.119,-15.79l0.042,0.008c3.66,0.753 5.052,9.049 3.104,18.513c-0.108,0.53 -0.225,1.051 -0.351,1.562l0.015,0.004l-6.788,32.981c-0.065,0.36 -0.135,0.721 -0.209,1.084c-1.94,9.427 -6.466,16.482 -10.12,15.793l-0.043,-0.01l-0.042,-0.008Z" style="fill:#fff;"/><path d="M793.671,672.108c2.142,3.04 -2.405,10.079 -10.181,15.75c-0.19,0.138 -0.378,0.273 -0.565,0.405l-27.542,20.078l-0.013,-0.019c-0.415,0.326 -0.84,0.648 -1.277,0.968c-7.777,5.67 -15.87,7.843 -18.109,4.876l-0.026,-0.035c-2.202,-3.019 2.349,-10.094 10.157,-15.785c0.436,-0.319 0.873,-0.625 1.31,-0.921l-0.008,-0.011l27.21,-19.839c0.289,-0.221 0.584,-0.442 0.884,-0.66c7.776,-5.671 15.871,-7.846 18.11,-4.877l0.026,0.035l0.024,0.035Z" style="fill:#f900e1;"/><path d="M646.201,779.027c2.14,3.041 -2.406,10.082 -10.183,15.75c-0.188,0.138 -0.376,0.273 -0.565,0.406l-27.539,20.079l-0.014,-0.019c-0.415,0.324 -0.842,0.647 -1.278,0.966c-7.778,5.671 -15.871,7.846 -18.11,4.876l-0.026,-0.034c-2.202,-3.02 2.349,-10.092 10.157,-15.786c0.438,-0.319 0.875,-0.625 1.312,-0.921l-0.009,-0.011l27.209,-19.838c0.289,-0.222 0.583,-0.443 0.883,-0.661c7.779,-5.671 15.872,-7.844 18.111,-4.877l0.052,0.07Z" style="fill:#f900e1;"/><path d="M714.335,732.533c-0.178,3.713 -8.09,6.475 -17.712,6.173c-0.231,-0.009 -0.463,-0.018 -0.693,-0.027l-34.066,-1.072l0.001,-0.023c-0.526,0.002 -1.062,-0.007 -1.601,-0.023c-9.62,-0.303 -17.343,-3.557 -17.287,-7.276l0,-0.044c0.118,-3.735 8.054,-6.52 17.713,-6.217c0.54,0.018 1.075,0.043 1.6,0.078l-0.001,-0.013l33.658,1.058c0.364,0.004 0.733,0.01 1.102,0.022c9.622,0.302 17.344,3.559 17.287,7.275l-0.001,0.089Z" style="fill:#ffe500;"/><path d="M691.399,694.408c-3.627,-0.809 -4.999,-9.076 -3.059,-18.503c0.047,-0.229 0.095,-0.456 0.146,-0.679l6.868,-33.384l0.023,0.006c0.088,-0.52 0.187,-1.047 0.295,-1.574c1.941,-9.427 6.466,-16.482 10.121,-15.793l0.042,0.008c3.661,0.755 5.05,9.05 3.103,18.513c-0.109,0.53 -0.227,1.052 -0.35,1.564l0.014,0.004l-6.789,32.981c-0.064,0.358 -0.133,0.719 -0.209,1.083c-1.94,9.429 -6.465,16.483 -10.118,15.792l-0.044,-0.007l-0.043,-0.011Z" style="fill:#fff;"/><path d="M535.771,781.446c2.142,3.038 -2.404,10.079 -10.184,15.748c-0.187,0.138 -0.375,0.273 -0.562,0.405l-27.542,20.08l-0.013,-0.019c-0.415,0.326 -0.842,0.649 -1.278,0.966c-7.776,5.67 -15.871,7.846 -18.11,4.878l-0.027,-0.036c-2.201,-3.02 2.352,-10.093 10.16,-15.786c0.436,-0.317 0.873,-0.625 1.309,-0.921l-0.008,-0.011l27.208,-19.838c0.29,-0.222 0.587,-0.441 0.886,-0.662c7.777,-5.668 15.87,-7.843 18.111,-4.876l0.024,0.035l0.026,0.037Z" style="fill:#f900e1;"/><path d="M535.771,781.446c2.142,3.038 -2.404,10.079 -10.184,15.748c-0.187,0.138 -0.375,0.273 -0.562,0.405l-27.542,20.08l-0.013,-0.019c-0.415,0.326 -0.842,0.649 -1.278,0.966c-7.776,5.67 -15.871,7.846 -18.11,4.878l-0.027,-0.036c-2.201,-3.02 2.352,-10.093 10.16,-15.786c0.436,-0.317 0.873,-0.625 1.309,-0.921l-0.008,-0.011l27.208,-19.838c0.29,-0.222 0.587,-0.441 0.886,-0.662c7.777,-5.668 15.87,-7.843 18.111,-4.876l0.024,0.035l0.026,0.037Z" style="fill:#f900e1;"/><path d="M524.668,726.734c-0.179,3.713 -8.09,6.478 -17.711,6.175c-0.232,-0.008 -0.464,-0.017 -0.693,-0.027l-34.067,-1.073l0.001,-0.024c-0.526,0.002 -1.062,-0.004 -1.601,-0.021c-9.621,-0.302 -17.344,-3.559 -17.287,-7.275l0.001,-0.044c0.117,-3.736 8.053,-6.521 17.712,-6.217c0.539,0.016 1.073,0.044 1.6,0.078l-0.001,-0.016l33.658,1.06c0.364,0.002 0.731,0.01 1.103,0.022c9.621,0.303 17.343,3.557 17.287,7.276l-0.002,0.042l-0,0.044Z" style="fill:#ffe500;"/><path d="M568.831,782.919c-3.629,-0.808 -5.002,-9.076 -3.062,-18.505c0.048,-0.227 0.097,-0.454 0.146,-0.677l6.871,-33.384l0.022,0.004c0.089,-0.518 0.186,-1.044 0.296,-1.575c1.94,-9.427 6.466,-16.481 10.118,-15.79l0.042,0.009c3.661,0.753 5.053,9.048 3.104,18.512c-0.107,0.53 -0.225,1.051 -0.35,1.564l0.015,0.002l-6.788,32.983c-0.066,0.358 -0.135,0.72 -0.209,1.083c-1.941,9.427 -6.466,16.481 -10.12,15.793l-0.042,-0.009l-0.043,-0.01Z" style="fill:#fff;"/><path d="M380.591,611.496c2.141,3.039 -2.405,10.079 -10.184,15.749c-0.188,0.137 -0.376,0.272 -0.562,0.405l-27.542,20.079l-0.013,-0.018c-0.415,0.325 -0.84,0.647 -1.278,0.965c-7.777,5.671 -15.871,7.846 -18.111,4.877l-0.026,-0.035c-2.202,-3.019 2.352,-10.093 10.16,-15.786c0.436,-0.317 0.873,-0.625 1.309,-0.921l-0.008,-0.011l27.208,-19.838c0.289,-0.221 0.586,-0.443 0.886,-0.661c7.777,-5.669 15.872,-7.844 18.11,-4.877l0.026,0.035l0.025,0.037Z" style="fill:#f900e1;"/><path d="M318.047,482.948c2.142,3.04 -2.405,10.079 -10.181,15.75c-0.19,0.138 -0.378,0.273 -0.565,0.405l-27.541,20.08l-0.014,-0.019c-0.415,0.324 -0.84,0.646 -1.277,0.966c-7.777,5.67 -15.87,7.845 -18.109,4.876l-0.026,-0.035c-2.202,-3.02 2.349,-10.092 10.157,-15.785c0.436,-0.319 0.873,-0.625 1.31,-0.921l-0.009,-0.011l27.211,-19.839c0.289,-0.221 0.584,-0.442 0.883,-0.661c7.777,-5.67 15.872,-7.846 18.111,-4.876l0.026,0.034l0.024,0.036Z" style="fill:#f900e1;"/><path d="M401.348,718.237c-0.178,3.713 -8.09,6.476 -17.71,6.172c-0.233,-0.006 -0.464,-0.014 -0.693,-0.027l-34.066,-1.071l-0.001,-0.023c-0.526,0.002 -1.059,-0.005 -1.601,-0.023c-9.62,-0.303 -17.341,-3.557 -17.287,-7.275l0.001,-0.042c0.119,-3.737 8.055,-6.524 17.712,-6.218c0.542,0.016 1.075,0.042 1.6,0.077l0.001,-0.015l33.657,1.061c0.365,0.001 0.732,0.009 1.104,0.022c9.619,0.303 17.343,3.557 17.286,7.273l-0.001,0.044l-0.002,0.045Z" style="fill:#ffe500;"/><path d="M407.569,701.888c-3.629,-0.808 -5.002,-9.076 -3.061,-18.503c0.047,-0.229 0.094,-0.455 0.145,-0.679l6.871,-33.384l0.023,0.006c0.088,-0.52 0.185,-1.046 0.295,-1.575c1.939,-9.426 6.466,-16.481 10.118,-15.792l0.043,0.009c3.661,0.755 5.052,9.048 3.104,18.514c-0.108,0.528 -0.226,1.049 -0.351,1.562l0.015,0.004l-6.788,32.981c-0.066,0.358 -0.135,0.72 -0.211,1.083c-1.938,9.429 -6.463,16.483 -10.118,15.792l-0.042,-0.008l-0.043,-0.01Z" style="fill:#fff;"/><path d="M817.657,366.331c2.142,3.04 -2.405,10.079 -10.183,15.75c-0.188,0.138 -0.376,0.273 -0.563,0.405l-27.541,20.08l-0.014,-0.019c-0.415,0.324 -0.84,0.646 -1.277,0.966c-7.777,5.67 -15.872,7.846 -18.111,4.876l-0.026,-0.034c-2.202,-3.02 2.351,-10.093 10.159,-15.786c0.436,-0.319 0.873,-0.625 1.31,-0.921l-0.009,-0.011l27.209,-19.838c0.289,-0.222 0.586,-0.443 0.886,-0.662c7.776,-5.67 15.871,-7.844 18.11,-4.876l0.026,0.034l0.024,0.036Z" style="fill:#f900e1;"/><path d="M806.625,453.801c-0.177,3.715 -8.089,6.477 -17.711,6.175c-0.231,-0.009 -0.463,-0.018 -0.693,-0.027l-34.067,-1.074l0.002,-0.021c-0.528,0 -1.062,-0.006 -1.601,-0.023c-9.621,-0.302 -17.344,-3.559 -17.287,-7.276l0.001,-0.044c0.117,-3.735 8.053,-6.52 17.712,-6.217c0.539,0.017 1.073,0.044 1.6,0.079l-0,-0.014l33.655,1.059c0.366,0.003 0.733,0.01 1.104,0.021c9.622,0.303 17.344,3.559 17.287,7.276l-0,0.044l-0.002,0.042Z" style="fill:#ffe500;"/><path d="M640.401,180.23c2.14,3.041 -2.406,10.08 -10.183,15.751c-0.189,0.138 -0.378,0.273 -0.564,0.405l-27.543,20.078l-0.013,-0.019c-0.415,0.326 -0.84,0.648 -1.275,0.967c-7.779,5.671 -15.872,7.844 -18.111,4.877l-0.026,-0.035c-2.201,-3.019 2.349,-10.094 10.158,-15.785c0.435,-0.319 0.873,-0.625 1.309,-0.921l-0.008,-0.011l27.21,-19.839c0.29,-0.221 0.584,-0.442 0.884,-0.661c7.776,-5.67 15.871,-7.846 18.11,-4.876l0.052,0.069Z" style="fill:#f900e1;"/><path d="M735.289,225.153c-0.177,3.712 -8.09,6.477 -17.709,6.174c-0.234,-0.008 -0.465,-0.017 -0.693,-0.027l-34.067,-1.074l0.002,-0.021c-0.529,0.001 -1.062,-0.006 -1.602,-0.023c-9.621,-0.302 -17.343,-3.559 -17.287,-7.275l0.001,-0.044c0.117,-3.736 8.054,-6.521 17.712,-6.218c0.539,0.017 1.073,0.044 1.598,0.08l0.001,-0.017l33.656,1.061c0.366,0.003 0.734,0.011 1.105,0.021c9.619,0.303 17.343,3.557 17.287,7.276l-0.001,0.044l-0.003,0.043Z" style="fill:#ffe500;"/><path d="M551.645,177.271c-0.178,3.713 -8.09,6.476 -17.712,6.173c-0.233,-0.006 -0.464,-0.014 -0.692,-0.027l-34.067,-1.071l0.001,-0.024c-0.528,0.003 -1.061,-0.004 -1.601,-0.023c-9.621,-0.302 -17.343,-3.556 -17.287,-7.275l0.001,-0.042c0.118,-3.736 8.053,-6.523 17.713,-6.217c0.539,0.016 1.072,0.042 1.599,0.076l-0,-0.014l33.656,1.061c0.365,0.001 0.732,0.009 1.104,0.022c9.622,0.302 17.343,3.556 17.286,7.273l-0.001,0.088Z" style="fill:#ffe500;"/><path d="M826.731,327.838c-3.318,1.678 -9.627,-3.836 -14.114,-12.353c-0.109,-0.204 -0.216,-0.411 -0.32,-0.615l-15.891,-30.151l0.021,-0.012c-0.264,-0.457 -0.521,-0.926 -0.771,-1.403c-4.489,-8.515 -5.472,-16.838 -2.213,-18.625l0.039,-0.021c3.306,-1.74 9.649,3.785 14.153,12.332c0.253,0.478 0.494,0.954 0.723,1.428l0.011,-0.006l15.703,29.79c0.176,0.319 0.352,0.643 0.525,0.97c4.488,8.514 5.472,16.838 2.212,18.625l-0.078,0.041Z" style="fill:#fff;"/><path d="M760.525,339.665c-3.316,1.678 -9.628,-3.837 -14.114,-12.352c-0.109,-0.205 -0.216,-0.412 -0.32,-0.616l-15.891,-30.15l0.021,-0.012c-0.262,-0.458 -0.521,-0.926 -0.772,-1.404c-4.488,-8.514 -5.471,-16.837 -2.212,-18.625l0.039,-0.02c3.307,-1.744 9.648,3.782 14.153,12.332c0.253,0.477 0.494,0.954 0.723,1.428l0.013,-0.008l15.701,29.791c0.176,0.319 0.351,0.641 0.525,0.97c4.488,8.515 5.472,16.838 2.212,18.625l-0.078,0.041Z" style="fill:#fff;"/><path d="M462.287,210.214c2.141,3.038 -2.405,10.079 -10.184,15.748c-0.187,0.137 -0.375,0.273 -0.562,0.405l-27.542,20.079l-0.013,-0.018c-0.415,0.326 -0.84,0.648 -1.278,0.965c-7.777,5.671 -15.871,7.846 -18.11,4.879l-0.027,-0.037c-2.201,-3.019 2.352,-10.092 10.16,-15.786c0.436,-0.316 0.873,-0.624 1.309,-0.921l-0.008,-0.01l27.208,-19.838c0.29,-0.222 0.587,-0.442 0.886,-0.662c7.777,-5.668 15.872,-7.844 18.11,-4.877l0.026,0.035l0.025,0.038Z" style="fill:#f900e1;"/><path d="M354.163,234.519c-0.177,3.716 -8.089,6.478 -17.711,6.176c-0.231,-0.009 -0.463,-0.018 -0.693,-0.028l-34.066,-1.071l0.001,-0.024c-0.526,0.002 -1.062,-0.006 -1.601,-0.022c-9.622,-0.303 -17.344,-3.559 -17.287,-7.276l0,-0.044c0.118,-3.736 8.054,-6.521 17.713,-6.217c0.54,0.018 1.073,0.044 1.6,0.078l-0.001,-0.013l33.658,1.057c0.364,0.004 0.731,0.012 1.102,0.023c9.622,0.302 17.344,3.559 17.287,7.275l-0,0.044l-0.002,0.042Z" style="fill:#ffe500;"/><path d="M403.41,200.085c-3.316,1.678 -9.625,-3.836 -14.114,-12.353c-0.109,-0.204 -0.216,-0.411 -0.32,-0.615l-15.889,-30.151l0.019,-0.012c-0.262,-0.457 -0.521,-0.925 -0.772,-1.403c-4.488,-8.514 -5.472,-16.838 -2.21,-18.625l0.037,-0.02c3.308,-1.742 9.648,3.784 14.155,12.331c0.251,0.478 0.492,0.954 0.72,1.428l0.014,-0.007l15.701,29.791c0.178,0.318 0.354,0.642 0.527,0.97c4.486,8.515 5.469,16.838 2.21,18.625l-0.078,0.041Z" style="fill:#fff;"/><path d="M598.827,185.153c-3.317,1.678 -9.628,-3.838 -14.115,-12.353c-0.108,-0.204 -0.215,-0.411 -0.319,-0.615l-15.892,-30.151l0.022,-0.012c-0.262,-0.457 -0.521,-0.925 -0.772,-1.403c-4.488,-8.514 -5.472,-16.838 -2.212,-18.625l0.039,-0.02c3.308,-1.742 9.648,3.782 14.153,12.332c0.253,0.477 0.494,0.953 0.722,1.427l0.014,-0.007l15.7,29.791c0.177,0.319 0.352,0.641 0.525,0.97c4.489,8.515 5.472,16.838 2.213,18.625l-0.078,0.041Z" style="fill:#fff;"/><path d="M123.568,594.998c-7.205,-20.656 1.966,-42.665 20.467,-49.117c18.502,-6.453 39.37,5.077 46.574,25.733c7.204,20.654 -1.967,42.663 -20.467,49.117c-18.5,6.452 -39.369,-5.079 -46.574,-25.733Z" style="fill:#ff7c8c;"/><path d="M217.518,730.372c-7.273,-20.856 1.841,-43.027 20.341,-49.481c18.5,-6.452 39.426,5.241 46.702,26.099c7.273,20.856 -1.841,43.027 -20.341,49.481c-18.5,6.452 -39.426,-5.242 -46.702,-26.099Z" style="fill:#ff7c8c;"/><path d="M148.791,544.255l26.072,74.747l61.351,-21.4l-26.069,-74.746l-61.354,21.399Z" style="fill:#ff7c8c;"/><path d="M109.024,434.004c-7.203,-20.657 3.267,-43.117 23.368,-50.127c20.101,-7.011 42.267,4.065 49.473,24.721c7.202,20.655 -3.267,43.116 -23.368,50.127c-20.101,7.011 -42.268,-4.067 -49.473,-24.721Z" style="fill:#ff7c8c;"/><path d="M134.247,383.261l26.072,74.747l54.622,-19.052l-26.072,-74.747l-54.622,19.052Z" style="fill:#ff7c8c;"/><path d="M239.637,679.74l26.388,75.655l44.08,-15.374l-26.388,-75.655l-44.08,15.374Z" style="fill:#ff7c8c;"/><path d="M578.723,103.107c-175.919,76.844 -244.771,171.353 -335.668,324.246c-34.503,80.192 -86.574,205.083 -74.254,265.411c-17.162,-26.775 -31.557,-56.049 -42.59,-87.515c-72.532,-206.868 27.552,-430.557 223.358,-499.21c76.343,-26.768 156.04,-26.04 229.154,-2.932Z" style="fill-opacity:0.04;"/><path d="M880.651,342.318c70.024,199.717 -25.995,415.46 -214.287,481.479c-188.293,66.019 -398.013,-42.525 -468.038,-242.242c-70.024,-199.717 25.995,-415.46 214.287,-481.479c188.292,-66.019 398.013,42.526 468.038,242.242Zm-173.413,57.334c38.357,109.399 -1.943,223.265 -89.941,254.119c-87.998,30.853 -190.581,-32.914 -228.938,-142.314c-38.358,-109.399 1.942,-223.266 89.94,-254.12c87.998,-30.854 190.581,32.916 228.939,142.315Z" style="fill:#ff7c8c;"/><path d="M260.522,630.422c7.238,20.643 -0.103,42.037 -16.384,47.745c-16.281,5.708 -35.375,-6.417 -42.613,-27.06c-7.238,-20.643 0.104,-42.037 16.385,-47.745c16.28,-5.709 35.374,6.416 42.612,27.06Z" style="fill:#e6d19a;"/><path d="M243.39,678.397l-26.193,-74.705l-61.317,21.499l26.193,74.705l61.317,-21.499Z" style="fill:#e6d19a;"/><path d="M207.967,481.635c7.238,20.643 -0.104,42.037 -16.384,47.746c-16.281,5.708 -35.375,-6.417 -42.613,-27.06c-7.238,-20.643 0.104,-42.037 16.384,-47.746c16.281,-5.708 35.375,6.417 42.613,27.06Z" style="fill:#e6d19a;"/><path d="M190.835,529.613l-26.193,-74.705l-57.856,20.286l26.193,74.704l57.856,-20.285Z" style="fill:#e6d19a;"/><path d="M273.826,349.931c2.142,3.04 -2.405,10.079 -10.183,15.75c-0.188,0.137 -0.376,0.273 -0.563,0.405l-27.542,20.077l-0.013,-0.018c-0.415,0.325 -0.842,0.648 -1.277,0.967c-7.778,5.669 -15.872,7.844 -18.111,4.877l-0.026,-0.035c-2.202,-3.019 2.351,-10.095 10.157,-15.785c0.438,-0.32 0.875,-0.625 1.312,-0.922l-0.009,-0.01l27.209,-19.838c0.289,-0.222 0.586,-0.444 0.886,-0.662c7.776,-5.67 15.869,-7.845 18.11,-4.877l0.024,0.036l0.026,0.035Z" style="fill:#f900e1;"/><path d="M288.639,419.588c-0.178,3.713 -8.092,6.476 -17.711,6.173c-0.233,-0.006 -0.466,-0.017 -0.693,-0.027l-34.067,-1.072l0.001,-0.023c-0.527,0.002 -1.062,-0.007 -1.601,-0.023c-9.621,-0.303 -17.343,-3.557 -17.287,-7.276l0.001,-0.044c0.117,-3.735 8.053,-6.52 17.712,-6.217c0.54,0.018 1.073,0.044 1.6,0.079l-0,-0.014l33.655,1.058c0.366,0.004 0.734,0.011 1.105,0.022c9.621,0.302 17.344,3.559 17.287,7.275l-0.002,0.089Z" style="fill:#ffe500;"/><path d="M344.757,316.684c3.406,1.488 3.169,9.866 -0.54,18.747c-0.091,0.216 -0.183,0.428 -0.273,0.638l-13.139,31.449l-0.022,-0.009c-0.187,0.493 -0.383,0.989 -0.591,1.489c-3.712,8.88 -9.506,14.936 -12.958,13.56l-0.041,-0.018c-3.448,-1.439 -3.224,-9.849 0.503,-18.764c0.207,-0.497 0.422,-0.988 0.642,-1.467l-0.013,-0.005l12.981,-31.07c0.133,-0.34 0.272,-0.682 0.414,-1.025c3.71,-8.879 9.505,-14.935 12.956,-13.559l0.041,0.018l0.04,0.016Z" style="fill:#ffe500;"/><path d="M292.889,320.577c-3.316,1.68 -9.626,-3.836 -14.114,-12.35c-0.109,-0.207 -0.216,-0.412 -0.318,-0.619l-15.892,-30.15l0.019,-0.012c-0.262,-0.457 -0.518,-0.924 -0.771,-1.403c-4.486,-8.515 -5.472,-16.838 -2.21,-18.625l0.039,-0.021c3.305,-1.741 9.648,3.784 14.153,12.332c0.251,0.478 0.492,0.954 0.721,1.431l0.013,-0.008l15.7,29.789c0.179,0.318 0.355,0.642 0.527,0.97c4.487,8.515 5.47,16.838 2.21,18.625l-0.077,0.041Z" style="fill:#fff;"/><path d="M360.993,570.602c-0.179,3.713 -8.09,6.477 -17.709,6.174c-0.234,-0.008 -0.466,-0.017 -0.693,-0.027l-34.067,-1.074l0.001,-0.023c-0.528,0.002 -1.062,-0.004 -1.603,-0.02c-9.619,-0.303 -17.342,-3.56 -17.287,-7.276l0.003,-0.045c0.117,-3.735 8.054,-6.52 17.71,-6.216c0.541,0.016 1.075,0.043 1.6,0.078l0.001,-0.016l33.656,1.061c0.366,0.001 0.733,0.008 1.105,0.021c9.619,0.303 17.343,3.557 17.287,7.276l-0.002,0.042l-0.002,0.045Z" style="fill:#ffe500;"/><path d="M353.541,497.29c-3.316,1.679 -9.628,-3.836 -14.114,-12.351c-0.109,-0.206 -0.216,-0.411 -0.32,-0.617l-15.892,-30.151l0.021,-0.012c-0.261,-0.456 -0.52,-0.924 -0.77,-1.401c-4.489,-8.517 -5.472,-16.838 -2.213,-18.625l0.039,-0.021c3.307,-1.743 9.648,3.783 14.153,12.33c0.253,0.478 0.494,0.956 0.723,1.43l0.014,-0.007l15.699,29.789c0.177,0.319 0.353,0.643 0.525,0.97c4.489,8.514 5.472,16.838 2.213,18.625l-0.078,0.041Z" style="fill:#fff;"/><path d="M800.541,508.716c2.142,3.04 -2.407,10.08 -10.184,15.75c-0.187,0.138 -0.375,0.273 -0.564,0.406l-27.541,20.077l-0.013,-0.019c-0.415,0.326 -0.842,0.649 -1.277,0.968c-7.777,5.668 -15.872,7.844 -18.111,4.876l-0.026,-0.034c-2.201,-3.02 2.349,-10.095 10.158,-15.786c0.437,-0.319 0.875,-0.625 1.311,-0.921l-0.008,-0.011l27.208,-19.838c0.29,-0.222 0.584,-0.443 0.884,-0.661c7.778,-5.671 15.871,-7.846 18.11,-4.877l0.053,0.07Z" style="fill:#f900e1;"/><path d="M812.503,601.2c-0.178,3.715 -8.09,6.477 -17.711,6.175c-0.232,-0.009 -0.464,-0.018 -0.693,-0.027l-34.067,-1.074l0.001,-0.021c-0.526,-0.001 -1.062,-0.007 -1.601,-0.023c-9.621,-0.303 -17.344,-3.559 -17.287,-7.276l0.001,-0.044c0.117,-3.735 8.053,-6.52 17.712,-6.217c0.539,0.016 1.073,0.044 1.6,0.079l-0,-0.014l33.657,1.058c0.364,0.004 0.732,0.011 1.103,0.022c9.621,0.302 17.343,3.557 17.287,7.275l-0.001,0.045l-0.001,0.042Z" style="fill:#ffe500;"/><path d="M849.971,508.386c-3.629,-0.808 -5.001,-9.076 -3.061,-18.505c0.047,-0.227 0.097,-0.454 0.145,-0.679l6.871,-33.382l0.023,0.004c0.087,-0.521 0.185,-1.045 0.295,-1.575c1.941,-9.427 6.466,-16.481 10.119,-15.79l0.042,0.008c3.66,0.753 5.052,9.049 3.104,18.513c-0.108,0.53 -0.225,1.051 -0.351,1.562l0.015,0.004l-6.788,32.981c-0.065,0.36 -0.135,0.721 -0.209,1.084c-1.94,9.427 -6.466,16.482 -10.12,15.793l-0.043,-0.01l-0.042,-0.008Z" style="fill:#fff;"/><path d="M793.671,672.108c2.142,3.04 -2.405,10.079 -10.181,15.75c-0.19,0.138 -0.378,0.273 -0.565,0.405l-27.542,20.078l-0.013,-0.019c-0.415,0.326 -0.84,0.648 -1.277,0.968c-7.777,5.67 -15.87,7.843 -18.109,4.876l-0.026,-0.035c-2.202,-3.019 2.349,-10.094 10.157,-15.785c0.436,-0.319 0.873,-0.625 1.31,-0.921l-0.008,-0.011l27.21,-19.839c0.289,-0.221 0.584,-0.442 0.884,-0.66c7.776,-5.671 15.871,-7.846 18.11,-4.877l0.026,0.035l0.024,0.035Z" style="fill:#f900e1;"/><path d="M646.201,779.027c2.14,3.041 -2.406,10.082 -10.183,15.75c-0.188,0.138 -0.376,0.273 -0.565,0.406l-27.539,20.079l-0.014,-0.019c-0.415,0.324 -0.842,0.647 -1.278,0.966c-7.778,5.671 -15.871,7.846 -18.11,4.876l-0.026,-0.034c-2.202,-3.02 2.349,-10.092 10.157,-15.786c0.438,-0.319 0.875,-0.625 1.312,-0.921l-0.009,-0.011l27.209,-19.838c0.289,-0.222 0.583,-0.443 0.883,-0.661c7.779,-5.671 15.872,-7.844 18.111,-4.877l0.052,0.07Z" style="fill:#f900e1;"/><path d="M714.335,732.533c-0.178,3.713 -8.09,6.475 -17.712,6.173c-0.231,-0.009 -0.463,-0.018 -0.693,-0.027l-34.066,-1.072l0.001,-0.023c-0.526,0.002 -1.062,-0.007 -1.601,-0.023c-9.62,-0.303 -17.343,-3.557 -17.287,-7.276l0,-0.044c0.118,-3.735 8.054,-6.52 17.713,-6.217c0.54,0.018 1.075,0.043 1.6,0.078l-0.001,-0.013l33.658,1.058c0.364,0.004 0.733,0.01 1.102,0.022c9.622,0.302 17.344,3.559 17.287,7.275l-0.001,0.089Z" style="fill:#ffe500;"/><path d="M691.399,694.408c-3.627,-0.809 -4.999,-9.076 -3.059,-18.503c0.047,-0.229 0.095,-0.456 0.146,-0.679l6.868,-33.384l0.023,0.006c0.088,-0.52 0.187,-1.047 0.295,-1.574c1.941,-9.427 6.466,-16.482 10.121,-15.793l0.042,0.008c3.661,0.755 5.05,9.05 3.103,18.513c-0.109,0.53 -0.227,1.052 -0.35,1.564l0.014,0.004l-6.789,32.981c-0.064,0.358 -0.133,0.719 -0.209,1.083c-1.94,9.429 -6.465,16.483 -10.118,15.792l-0.044,-0.007l-0.043,-0.011Z" style="fill:#fff;"/><path d="M535.771,781.446c2.142,3.038 -2.404,10.079 -10.184,15.748c-0.187,0.138 -0.375,0.273 -0.562,0.405l-27.542,20.08l-0.013,-0.019c-0.415,0.326 -0.842,0.649 -1.278,0.966c-7.776,5.67 -15.871,7.846 -18.11,4.878l-0.027,-0.036c-2.201,-3.02 2.352,-10.093 10.16,-15.786c0.436,-0.317 0.873,-0.625 1.309,-0.921l-0.008,-0.011l27.208,-19.838c0.29,-0.222 0.587,-0.441 0.886,-0.662c7.777,-5.668 15.87,-7.843 18.111,-4.876l0.024,0.035l0.026,0.037Z" style="fill:#f900e1;"/><path d="M535.771,781.446c2.142,3.038 -2.404,10.079 -10.184,15.748c-0.187,0.138 -0.375,0.273 -0.562,0.405l-27.542,20.08l-0.013,-0.019c-0.415,0.326 -0.842,0.649 -1.278,0.966c-7.776,5.67 -15.871,7.846 -18.11,4.878l-0.027,-0.036c-2.201,-3.02 2.352,-10.093 10.16,-15.786c0.436,-0.317 0.873,-0.625 1.309,-0.921l-0.008,-0.011l27.208,-19.838c0.29,-0.222 0.587,-0.441 0.886,-0.662c7.777,-5.668 15.87,-7.843 18.111,-4.876l0.024,0.035l0.026,0.037Z" style="fill:#f900e1;"/><path d="M524.668,726.734c-0.179,3.713 -8.09,6.478 -17.711,6.175c-0.232,-0.008 -0.464,-0.017 -0.693,-0.027l-34.067,-1.073l0.001,-0.024c-0.526,0.002 -1.062,-0.004 -1.601,-0.021c-9.621,-0.302 -17.344,-3.559 -17.287,-7.275l0.001,-0.044c0.117,-3.736 8.053,-6.521 17.712,-6.217c0.539,0.016 1.073,0.044 1.6,0.078l-0.001,-0.016l33.658,1.06c0.364,0.002 0.731,0.01 1.103,0.022c9.621,0.303 17.343,3.557 17.287,7.276l-0.002,0.042l-0,0.044Z" style="fill:#ffe500;"/><path d="M568.831,782.919c-3.629,-0.808 -5.002,-9.076 -3.062,-18.505c0.048,-0.227 0.097,-0.454 0.146,-0.677l6.871,-33.384l0.022,0.004c0.089,-0.518 0.186,-1.044 0.296,-1.575c1.94,-9.427 6.466,-16.481 10.118,-15.79l0.042,0.009c3.661,0.753 5.053,9.048 3.104,18.512c-0.107,0.53 -0.225,1.051 -0.35,1.564l0.015,0.002l-6.788,32.983c-0.066,0.358 -0.135,0.72 -0.209,1.083c-1.941,9.427 -6.466,16.481 -10.12,15.793l-0.042,-0.009l-0.043,-0.01Z" style="fill:#fff;"/><path d="M380.591,611.496c2.141,3.039 -2.405,10.079 -10.184,15.749c-0.188,0.137 -0.376,0.272 -0.562,0.405l-27.542,20.079l-0.013,-0.018c-0.415,0.325 -0.84,0.647 -1.278,0.965c-7.777,5.671 -15.871,7.846 -18.111,4.877l-0.026,-0.035c-2.202,-3.019 2.352,-10.093 10.16,-15.786c0.436,-0.317 0.873,-0.625 1.309,-0.921l-0.008,-0.011l27.208,-19.838c0.289,-0.221 0.586,-0.443 0.886,-0.661c7.777,-5.669 15.872,-7.844 18.11,-4.877l0.026,0.035l0.025,0.037Z" style="fill:#f900e1;"/><path d="M318.047,482.948c2.142,3.04 -2.405,10.079 -10.181,15.75c-0.19,0.138 -0.378,0.273 -0.565,0.405l-27.541,20.08l-0.014,-0.019c-0.415,0.324 -0.84,0.646 -1.277,0.966c-7.777,5.67 -15.87,7.845 -18.109,4.876l-0.026,-0.035c-2.202,-3.02 2.349,-10.092 10.157,-15.785c0.436,-0.319 0.873,-0.625 1.31,-0.921l-0.009,-0.011l27.211,-19.839c0.289,-0.221 0.584,-0.442 0.883,-0.661c7.777,-5.67 15.872,-7.846 18.111,-4.876l0.026,0.034l0.024,0.036Z" style="fill:#f900e1;"/><path d="M401.348,718.237c-0.178,3.713 -8.09,6.476 -17.71,6.172c-0.233,-0.006 -0.464,-0.014 -0.693,-0.027l-34.066,-1.071l-0.001,-0.023c-0.526,0.002 -1.059,-0.005 -1.601,-0.023c-9.62,-0.303 -17.341,-3.557 -17.287,-7.275l0.001,-0.042c0.119,-3.737 8.055,-6.524 17.712,-6.218c0.542,0.016 1.075,0.042 1.6,0.077l0.001,-0.015l33.657,1.061c0.365,0.001 0.732,0.009 1.104,0.022c9.619,0.303 17.343,3.557 17.286,7.273l-0.001,0.044l-0.002,0.045Z" style="fill:#ffe500;"/><path d="M407.569,701.888c-3.629,-0.808 -5.002,-9.076 -3.061,-18.503c0.047,-0.229 0.094,-0.455 0.145,-0.679l6.871,-33.384l0.023,0.006c0.088,-0.52 0.185,-1.046 0.295,-1.575c1.939,-9.426 6.466,-16.481 10.118,-15.792l0.043,0.009c3.661,0.755 5.052,9.048 3.104,18.514c-0.108,0.528 -0.226,1.049 -0.351,1.562l0.015,0.004l-6.788,32.981c-0.066,0.358 -0.135,0.72 -0.211,1.083c-1.938,9.429 -6.463,16.483 -10.118,15.792l-0.042,-0.008l-0.043,-0.01Z" style="fill:#fff;"/><path d="M817.657,366.331c2.142,3.04 -2.405,10.079 -10.183,15.75c-0.188,0.138 -0.376,0.273 -0.563,0.405l-27.541,20.08l-0.014,-0.019c-0.415,0.324 -0.84,0.646 -1.277,0.966c-7.777,5.67 -15.872,7.846 -18.111,4.876l-0.026,-0.034c-2.202,-3.02 2.351,-10.093 10.159,-15.786c0.436,-0.319 0.873,-0.625 1.31,-0.921l-0.009,-0.011l27.209,-19.838c0.289,-0.222 0.586,-0.443 0.886,-0.662c7.776,-5.67 15.871,-7.844 18.11,-4.876l0.026,0.034l0.024,0.036Z" style="fill:#f900e1;"/><path d="M806.625,453.801c-0.177,3.715 -8.089,6.477 -17.711,6.175c-0.231,-0.009 -0.463,-0.018 -0.693,-0.027l-34.067,-1.074l0.002,-0.021c-0.528,0 -1.062,-0.006 -1.601,-0.023c-9.621,-0.302 -17.344,-3.559 -17.287,-7.276l0.001,-0.044c0.117,-3.735 8.053,-6.52 17.712,-6.217c0.539,0.017 1.073,0.044 1.6,0.079l-0,-0.014l33.655,1.059c0.366,0.003 0.733,0.01 1.104,0.021c9.622,0.303 17.344,3.559 17.287,7.276l-0,0.044l-0.002,0.042Z" style="fill:#ffe500;"/><path d="M640.401,180.23c2.14,3.041 -2.406,10.08 -10.183,15.751c-0.189,0.138 -0.378,0.273 -0.564,0.405l-27.543,20.078l-0.013,-0.019c-0.415,0.326 -0.84,0.648 -1.275,0.967c-7.779,5.671 -15.872,7.844 -18.111,4.877l-0.026,-0.035c-2.201,-3.019 2.349,-10.094 10.158,-15.785c0.435,-0.319 0.873,-0.625 1.309,-0.921l-0.008,-0.011l27.21,-19.839c0.29,-0.221 0.584,-0.442 0.884,-0.661c7.776,-5.67 15.871,-7.846 18.11,-4.876l0.052,0.069Z" style="fill:#f900e1;"/><path d="M735.289,225.153c-0.177,3.712 -8.09,6.477 -17.709,6.174c-0.234,-0.008 -0.465,-0.017 -0.693,-0.027l-34.067,-1.074l0.002,-0.021c-0.529,0.001 -1.062,-0.006 -1.602,-0.023c-9.621,-0.302 -17.343,-3.559 -17.287,-7.275l0.001,-0.044c0.117,-3.736 8.054,-6.521 17.712,-6.218c0.539,0.017 1.073,0.044 1.598,0.08l0.001,-0.017l33.656,1.061c0.366,0.003 0.734,0.011 1.105,0.021c9.619,0.303 17.343,3.557 17.287,7.276l-0.001,0.044l-0.003,0.043Z" style="fill:#ffe500;"/><path d="M551.645,177.271c-0.178,3.713 -8.09,6.476 -17.712,6.173c-0.233,-0.006 -0.464,-0.014 -0.692,-0.027l-34.067,-1.071l0.001,-0.024c-0.528,0.003 -1.061,-0.004 -1.601,-0.023c-9.621,-0.302 -17.343,-3.556 -17.287,-7.275l0.001,-0.042c0.118,-3.736 8.053,-6.523 17.713,-6.217c0.539,0.016 1.072,0.042 1.599,0.076l-0,-0.014l33.656,1.061c0.365,0.001 0.732,0.009 1.104,0.022c9.622,0.302 17.343,3.556 17.286,7.273l-0.001,0.088Z" style="fill:#ffe500;"/><path d="M826.731,327.838c-3.318,1.678 -9.627,-3.836 -14.114,-12.353c-0.109,-0.204 -0.216,-0.411 -0.32,-0.615l-15.891,-30.151l0.021,-0.012c-0.264,-0.457 -0.521,-0.926 -0.771,-1.403c-4.489,-8.515 -5.472,-16.838 -2.213,-18.625l0.039,-0.021c3.306,-1.74 9.649,3.785 14.153,12.332c0.253,0.478 0.494,0.954 0.723,1.428l0.011,-0.006l15.703,29.79c0.176,0.319 0.352,0.643 0.525,0.97c4.488,8.514 5.472,16.838 2.212,18.625l-0.078,0.041Z" style="fill:#fff;"/><path d="M760.525,339.665c-3.316,1.678 -9.628,-3.837 -14.114,-12.352c-0.109,-0.205 -0.216,-0.412 -0.32,-0.616l-15.891,-30.15l0.021,-0.012c-0.262,-0.458 -0.521,-0.926 -0.772,-1.404c-4.488,-8.514 -5.471,-16.837 -2.212,-18.625l0.039,-0.02c3.307,-1.744 9.648,3.782 14.153,12.332c0.253,0.477 0.494,0.954 0.723,1.428l0.013,-0.008l15.701,29.791c0.176,0.319 0.351,0.641 0.525,0.97c4.488,8.515 5.472,16.838 2.212,18.625l-0.078,0.041Z" style="fill:#fff;"/><path d="M462.287,210.214c2.141,3.038 -2.405,10.079 -10.184,15.748c-0.187,0.137 -0.375,0.273 -0.562,0.405l-27.542,20.079l-0.013,-0.018c-0.415,0.326 -0.84,0.648 -1.278,0.965c-7.777,5.671 -15.871,7.846 -18.11,4.879l-0.027,-0.037c-2.201,-3.019 2.352,-10.092 10.16,-15.786c0.436,-0.316 0.873,-0.624 1.309,-0.921l-0.008,-0.01l27.208,-19.838c0.29,-0.222 0.587,-0.442 0.886,-0.662c7.777,-5.668 15.872,-7.844 18.11,-4.877l0.026,0.035l0.025,0.038Z" style="fill:#f900e1;"/><path d="M354.163,234.519c-0.177,3.716 -8.089,6.478 -17.711,6.176c-0.231,-0.009 -0.463,-0.018 -0.693,-0.028l-34.066,-1.071l0.001,-0.024c-0.526,0.002 -1.062,-0.006 -1.601,-0.022c-9.622,-0.303 -17.344,-3.559 -17.287,-7.276l0,-0.044c0.118,-3.736 8.054,-6.521 17.713,-6.217c0.54,0.018 1.073,0.044 1.6,0.078l-0.001,-0.013l33.658,1.057c0.364,0.004 0.731,0.012 1.102,0.023c9.622,0.302 17.344,3.559 17.287,7.275l-0,0.044l-0.002,0.042Z" style="fill:#ffe500;"/><path d="M403.41,200.085c-3.316,1.678 -9.625,-3.836 -14.114,-12.353c-0.109,-0.204 -0.216,-0.411 -0.32,-0.615l-15.889,-30.151l0.019,-0.012c-0.262,-0.457 -0.521,-0.925 -0.772,-1.403c-4.488,-8.514 -5.472,-16.838 -2.21,-18.625l0.037,-0.02c3.308,-1.742 9.648,3.784 14.155,12.331c0.251,0.478 0.492,0.954 0.72,1.428l0.014,-0.007l15.701,29.791c0.178,0.318 0.354,0.642 0.527,0.97c4.486,8.515 5.469,16.838 2.21,18.625l-0.078,0.041Z" style="fill:#fff;"/><path d="M598.827,185.153c-3.317,1.678 -9.628,-3.838 -14.115,-12.353c-0.108,-0.204 -0.215,-0.411 -0.319,-0.615l-15.892,-30.151l0.022,-0.012c-0.262,-0.457 -0.521,-0.925 -0.772,-1.403c-4.488,-8.514 -5.472,-16.838 -2.212,-18.625l0.039,-0.02c3.308,-1.742 9.648,3.782 14.153,12.332c0.253,0.477 0.494,0.953 0.722,1.427l0.014,-0.007l15.7,29.791c0.177,0.319 0.352,0.641 0.525,0.97c4.489,8.515 5.472,16.838 2.213,18.625l-0.078,0.041Z" style="fill:#fff;"/><path d="M123.568,594.998c-7.205,-20.656 1.966,-42.665 20.467,-49.117c18.502,-6.453 39.37,5.077 46.574,25.733c7.204,20.654 -1.967,42.663 -20.467,49.117c-18.5,6.452 -39.369,-5.079 -46.574,-25.733Z" style="fill:#ff7c8c;"/><path d="M217.518,730.372c-7.273,-20.856 1.841,-43.027 20.341,-49.481c18.5,-6.452 39.426,5.241 46.702,26.099c7.273,20.856 -1.841,43.027 -20.341,49.481c-18.5,6.452 -39.426,-5.242 -46.702,-26.099Z" style="fill:#ff7c8c;"/><path d="M148.791,544.255l26.072,74.747l61.351,-21.4l-26.069,-74.746l-61.354,21.399Z" style="fill:#ff7c8c;"/><path d="M109.024,434.004c-7.203,-20.657 3.267,-43.117 23.368,-50.127c20.101,-7.011 42.267,4.065 49.473,24.721c7.202,20.655 -3.267,43.116 -23.368,50.127c-20.101,7.011 -42.268,-4.067 -49.473,-24.721Z" style="fill:#ff7c8c;"/><path d="M134.247,383.261l26.072,74.747l54.622,-19.052l-26.072,-74.747l-54.622,19.052Z" style="fill:#ff7c8c;"/><path d="M239.637,679.74l26.388,75.655l44.08,-15.374l-26.388,-75.655l-44.08,15.374Z" style="fill:#ff7c8c;"/><path d="M578.723,103.107c-175.919,76.844 -244.771,171.353 -335.668,324.246c-34.503,80.192 -86.574,205.083 -74.254,265.411c-17.162,-26.775 -31.557,-56.049 -42.59,-87.515c-72.532,-206.868 27.552,-430.557 223.358,-499.21c76.343,-26.768 156.04,-26.04 229.154,-2.932Z" style="fill-opacity:0.04;"/><path d="M910.473,1836.37c246.181,-81.74 487.172,-24.247 537.826,128.307c50.654,152.555 -108.089,342.773 -354.271,424.514c-246.182,81.74 -487.175,24.249 -537.829,-128.307c-50.652,-152.555 108.092,-342.773 354.274,-424.514Zm62.639,155.299c119.401,-39.644 233.24,-20.934 254.056,41.761c20.815,62.692 -59.222,145.778 -178.622,185.422c-119.401,39.646 -233.24,20.933 -254.057,-41.759c-20.815,-62.693 59.222,-145.778 178.623,-185.424Z" style="fill:#e6d19a;"/><path d="M900.672,1801.22c237.671,-78.914 470.174,-23.878 518.885,122.823c48.711,146.703 -104.702,329.874 -342.373,408.789c-237.669,78.914 -470.172,23.878 -518.883,-122.823c-48.711,-146.703 104.702,-329.874 342.371,-408.789Zm40.906,135.486c130.188,-43.227 254.366,-22.659 277.131,45.899c22.764,68.561 -64.452,159.319 -194.64,202.546c-130.19,43.227 -254.368,22.66 -277.132,-45.9c-22.765,-68.56 64.451,-159.318 194.641,-202.545Z" style="fill:#fff4d7;"/><path d="M1141.7,2276.7c24.567,-8.156 47.93,-4.48 52.143,8.203c4.211,12.686 -12.314,29.606 -36.88,37.763c-24.567,8.156 -47.932,4.48 -52.143,-8.203c-4.213,-12.684 12.315,-29.606 36.88,-37.763Z" style="fill:#e6d19a;"/><path d="M1194,2285.49l-88.902,29.519l15.864,47.773l88.899,-29.517l-15.861,-47.775Z" style="fill:#e6d19a;"/><path d="M964.586,2335.8c24.568,-8.157 47.93,-4.481 52.143,8.203c4.211,12.684 -12.314,29.606 -36.882,37.762c-24.565,8.157 -47.93,4.481 -52.141,-8.203c-4.213,-12.686 12.313,-29.606 36.88,-37.762Z" style="fill:#e6d19a;"/><path d="M1016.89,2344.6l-88.902,29.518l14.967,45.075l88.902,-29.517l-14.967,-45.076Z" style="fill:#e6d19a;"/><path d="M1081.96,2392.46c-24.576,8.131 -48.382,3.027 -53.129,-11.392c-4.748,-14.416 11.351,-32.724 35.925,-40.855c24.576,-8.129 48.382,-3.025 53.13,11.392c4.747,14.419 -11.352,32.724 -35.926,40.855Z" style="fill:#fff4d7;"/><path d="M1249.63,2300.99c-24.815,8.209 -48.816,3.171 -53.564,-11.248c-4.746,-14.417 11.547,-32.788 36.36,-40.997c24.816,-8.21 48.815,-3.172 53.562,11.247c4.748,14.417 -11.544,32.788 -36.358,40.998Z" style="fill:#fff4d7;"/><path d="M1027.65,2377.36l88.934,-29.423l-15.745,-47.811l-88.932,29.421l15.743,47.813Z" style="fill:#fff4d7;"/><path d="M896.289,2421.83c-24.576,8.129 -48.715,2.014 -53.872,-13.651c-5.159,-15.664 10.607,-34.983 35.181,-43.114c24.576,-8.131 48.715,-2.013 53.874,13.651c5.157,15.664 -10.607,34.983 -35.183,43.114Z" style="fill:#fff4d7;"/><path d="M841.978,2406.73l88.932,-29.423l-14.016,-42.567l-88.934,29.423l14.018,42.567Z" style="fill:#fff4d7;"/><path d="M1195,2288.41l90.014,-29.782l-11.311,-34.351l-90.014,29.782l11.311,34.351Z" style="fill:#fff4d7;"/><path d="M585.213,2073.94c62.803,135.413 160.871,181.415 322.417,239.091c86.59,19.486 221.68,48.473 292.224,31.852c-32.962,16.935 -68.382,31.878 -105.826,44.309c-246.182,81.74 -487.175,24.249 -537.829,-128.307c-19.75,-59.48 -7.667,-124.689 29.014,-186.945Z" style="fill-opacity:0.04;"/><path d="M449.13,2733.92c83.637,-193.639 300.34,-286.576 483.622,-207.412c183.282,79.165 264.182,300.644 180.545,494.283c-83.637,193.636 -300.341,286.572 -483.624,207.409c-183.281,-79.164 -264.18,-300.643 -180.543,-494.28Zm193.948,74.461c40.566,-93.918 134.649,-143.753 209.968,-111.221c75.319,32.533 103.536,135.191 62.971,229.109c-40.565,93.917 -134.648,143.751 -209.967,111.219c-75.32,-32.532 -103.536,-135.192 -62.972,-229.107Z" style="fill:#e6d19a;"/><path d="M408.151,2714.65c80.746,-186.942 289.392,-276.91 465.641,-200.783c176.249,76.126 253.787,289.704 173.041,476.647c-80.745,186.942 -289.391,276.91 -465.64,200.783c-176.249,-76.126 -253.787,-289.704 -173.042,-476.647Zm160.059,72.564c44.23,-102.402 147.011,-156.654 229.38,-121.076c82.37,35.577 113.333,147.597 69.104,249.999c-44.231,102.401 -147.012,156.656 -229.382,121.078c-82.369,-35.577 -113.332,-147.599 -69.102,-250.001Z" style="fill:#7e9bff;"/><path d="M625.22,2575.99c2.548,-2.512 9.947,0.694 16.555,7.184c0.158,0.158 0.316,0.315 0.472,0.472l23.397,22.981l-0.016,0.014c0.373,0.344 0.748,0.697 1.118,1.061c6.608,6.49 9.947,13.83 7.482,16.422l-0.029,0.031c-2.52,2.566 -9.95,-0.641 -16.584,-7.156c-0.37,-0.363 -0.73,-0.731 -1.081,-1.1l-0.008,0.01l-23.117,-22.703c-0.255,-0.24 -0.51,-0.485 -0.766,-0.734c-6.608,-6.491 -9.946,-13.829 -7.481,-16.423l0.029,-0.03l0.029,-0.029Z" style="fill:#ffe500;"/><path d="M684.797,2538.12c0.468,-3.548 8.276,-5.561 17.475,-4.499c0.224,0.026 0.445,0.053 0.664,0.081l32.578,3.764l-0.003,0.022c0.506,0.04 1.017,0.09 1.535,0.149c9.2,1.062 16.341,4.805 15.989,8.364l-0.004,0.041c-0.412,3.572 -8.246,5.608 -17.481,4.54c-0.516,-0.059 -1.026,-0.128 -1.527,-0.203l-0.002,0.013l-32.187,-3.717c-0.35,-0.032 -0.702,-0.067 -1.056,-0.109c-9.2,-1.062 -16.344,-4.803 -15.991,-8.364l0.004,-0.041l0.006,-0.041Z" style="fill:#f900e1;"/><path d="M858.846,2558.68c0.469,-3.547 8.278,-5.562 17.476,-4.498c0.222,0.025 0.444,0.052 0.664,0.081l32.577,3.762l-0.002,0.022c0.505,0.042 1.017,0.092 1.533,0.151c9.202,1.062 16.344,4.803 15.992,8.364l-0.005,0.041c-0.412,3.572 -8.245,5.606 -17.481,4.54c-0.518,-0.059 -1.027,-0.128 -1.529,-0.204l-0.001,0.014l-32.186,-3.716c-0.349,-0.033 -0.702,-0.068 -1.056,-0.11c-9.201,-1.062 -16.343,-4.804 -15.991,-8.364l0.009,-0.083Z" style="fill:#f900e1;"/><path d="M780.323,2547.13c2.548,-2.51 9.946,0.697 16.554,7.187c0.159,0.157 0.317,0.314 0.473,0.471l23.397,22.98l-0.016,0.016c0.373,0.341 0.747,0.697 1.118,1.06c6.606,6.489 9.947,13.829 7.481,16.422l-0.029,0.031c-2.519,2.566 -9.95,-0.641 -16.584,-7.156c-0.37,-0.365 -0.732,-0.732 -1.08,-1.099l-0.009,0.01l-23.117,-22.703c-0.254,-0.24 -0.512,-0.486 -0.765,-0.735c-6.608,-6.49 -9.946,-13.831 -7.481,-16.423l0.058,-0.061Z" style="fill:#ffe500;"/><path d="M771.679,2589.06c2.038,2.937 -2.384,9.681 -9.906,15.083c-0.182,0.131 -0.364,0.26 -0.545,0.385l-26.635,19.133l-0.013,-0.019c-0.401,0.311 -0.815,0.618 -1.235,0.921c-7.522,5.402 -15.325,7.44 -17.46,4.569l-0.025,-0.033c-2.097,-2.923 2.331,-9.695 9.881,-15.12c0.423,-0.303 0.846,-0.595 1.267,-0.877l-0.006,-0.012l26.315,-18.901c0.279,-0.211 0.563,-0.421 0.854,-0.629c7.523,-5.404 15.325,-7.441 17.458,-4.57l0.027,0.034l0.023,0.036Z" style="fill:#fff;"/><path d="M938.538,2629.01c0.467,-3.545 8.275,-5.56 17.476,-4.495c0.222,0.024 0.443,0.052 0.662,0.08l32.579,3.763l-0.003,0.021c0.506,0.041 1.018,0.091 1.534,0.151c9.199,1.061 16.343,4.803 15.992,8.362l-0.006,0.044c-0.412,3.572 -8.246,5.605 -17.482,4.539c-0.516,-0.061 -1.026,-0.128 -1.527,-0.203l-0.002,0.013l-32.185,-3.716c-0.35,-0.033 -0.703,-0.071 -1.058,-0.11c-9.199,-1.063 -16.342,-4.804 -15.991,-8.364l0.006,-0.041l0.005,-0.044Z" style="fill:#f900e1;"/><path d="M938.538,2629.01c0.467,-3.545 8.275,-5.56 17.476,-4.495c0.222,0.024 0.443,0.052 0.662,0.08l32.579,3.763l-0.003,0.021c0.506,0.041 1.018,0.091 1.534,0.151c9.199,1.061 16.343,4.803 15.992,8.362l-0.006,0.044c-0.412,3.572 -8.246,5.605 -17.482,4.539c-0.516,-0.061 -1.026,-0.128 -1.527,-0.203l-0.002,0.013l-32.185,-3.716c-0.35,-0.033 -0.703,-0.071 -1.058,-0.11c-9.199,-1.063 -16.342,-4.804 -15.991,-8.364l0.006,-0.041l0.005,-0.044Z" style="fill:#f900e1;"/><path d="M910.701,2674.95c2.548,-2.51 9.947,0.695 16.556,7.185c0.158,0.157 0.316,0.314 0.472,0.471l23.396,22.981l-0.015,0.017c0.373,0.341 0.747,0.694 1.118,1.058c6.608,6.49 9.946,13.831 7.481,16.422l-0.029,0.031c-2.519,2.566 -9.949,-0.641 -16.583,-7.156c-0.371,-0.363 -0.731,-0.731 -1.081,-1.099l-0.01,0.011l-23.115,-22.704c-0.256,-0.239 -0.511,-0.484 -0.766,-0.735c-6.608,-6.49 -9.947,-13.829 -7.481,-16.423l0.028,-0.029l0.029,-0.03Z" style="fill:#ffe500;"/><path d="M916.109,2606.4c2.04,2.939 -2.382,9.682 -9.905,15.086c-0.182,0.129 -0.365,0.258 -0.545,0.383l-26.637,19.132l-0.013,-0.017c-0.4,0.309 -0.812,0.617 -1.235,0.921c-7.523,5.402 -15.325,7.44 -17.458,4.569l-0.024,-0.034c-2.098,-2.921 2.329,-9.696 9.881,-15.119c0.421,-0.304 0.844,-0.597 1.267,-0.878l-0.009,-0.01l26.316,-18.903c0.28,-0.211 0.565,-0.421 0.854,-0.629c7.522,-5.403 15.324,-7.44 17.46,-4.57l0.024,0.034l0.024,0.035Z" style="fill:#fff;"/><path d="M992.386,2761.4c2.548,-2.51 9.946,0.696 16.552,7.186c0.161,0.156 0.319,0.313 0.473,0.471l23.397,22.98l-0.014,0.016c0.373,0.342 0.746,0.695 1.118,1.061c6.606,6.489 9.945,13.828 7.481,16.423l-0.028,0.028c-2.522,2.565 -9.953,-0.64 -16.584,-7.156c-0.372,-0.364 -0.733,-0.729 -1.081,-1.097l-0.011,0.009l-23.114,-22.705c-0.258,-0.238 -0.513,-0.483 -0.767,-0.735c-6.607,-6.489 -9.947,-13.829 -7.483,-16.421l0.029,-0.03l0.032,-0.03Z" style="fill:#ffe500;"/><path d="M977.32,2768.91c2.04,2.938 -2.382,9.682 -9.904,15.084c-0.183,0.131 -0.364,0.261 -0.546,0.386l-26.637,19.131l-0.012,-0.019c-0.401,0.311 -0.813,0.619 -1.236,0.921c-7.52,5.403 -15.324,7.44 -17.458,4.57l-0.024,-0.033c-2.098,-2.922 2.329,-9.696 9.881,-15.121c0.421,-0.303 0.844,-0.595 1.267,-0.876l-0.008,-0.013l26.315,-18.9c0.28,-0.21 0.565,-0.421 0.856,-0.629c7.521,-5.404 15.323,-7.442 17.458,-4.57l0.024,0.034l0.024,0.035Z" style="fill:#fff;"/><path d="M1081.66,2894.12l30.685,-70.726l-41.208,-17.879l-30.685,70.726l41.208,17.879Z" style="fill:#7e9bff;"/><path d="M1034.71,2915.38c8.346,-19.323 27.494,-29.667 42.734,-23.084c15.239,6.582 20.836,27.614 12.49,46.936c-8.346,19.323 -27.495,29.667 -42.734,23.084c-15.239,-6.582 -20.836,-27.613 -12.49,-46.936Z" style="fill:#e6d19a;"/><path d="M1078.13,2892.62l-30.202,69.927l57.394,24.79l30.203,-69.926l-57.395,-24.791Z" style="fill:#e6d19a;"/><path d="M974.832,3054.9c8.346,-19.323 27.494,-29.667 42.734,-23.085c15.239,6.582 20.836,27.614 12.49,46.937c-8.346,19.322 -27.495,29.666 -42.734,23.084c-15.239,-6.582 -20.836,-27.614 -12.49,-46.936Z" style="fill:#e6d19a;"/><path d="M1018.25,3032.14l-30.204,69.927l54.156,23.391l30.203,-69.926l-54.155,-23.392Z" style="fill:#e6d19a;"/><path d="M842.338,3105.1c0.468,-3.547 8.276,-5.561 17.477,-4.498c0.222,0.025 0.444,0.052 0.662,0.08l32.578,3.765l-0.002,0.022c0.505,0.04 1.018,0.09 1.534,0.149c9.199,1.064 16.343,4.804 15.991,8.364l-0.004,0.041c-0.412,3.572 -8.248,5.607 -17.481,4.54c-0.518,-0.059 -1.027,-0.129 -1.53,-0.204l-0,0.013l-32.186,-3.716c-0.35,-0.032 -0.703,-0.068 -1.058,-0.109c-9.2,-1.062 -16.342,-4.803 -15.992,-8.365l0.007,-0.04l0.004,-0.042Z" style="fill:#f900e1;"/><path d="M877.296,3046.16c2.548,-2.51 9.948,0.697 16.555,7.187c0.161,0.156 0.318,0.315 0.472,0.471l23.397,22.98l-0.016,0.015c0.375,0.343 0.747,0.697 1.118,1.061c6.608,6.49 9.947,13.829 7.482,16.423l-0.03,0.03c-2.519,2.566 -9.95,-0.641 -16.584,-7.156c-0.369,-0.365 -0.73,-0.731 -1.08,-1.099l-0.009,0.01l-23.115,-22.703c-0.257,-0.24 -0.512,-0.485 -0.767,-0.735c-6.608,-6.49 -9.946,-13.831 -7.482,-16.423l0.059,-0.061Z" style="fill:#ffe500;"/><path d="M770.479,3082.35c-1.438,-3.275 4.194,-9.045 12.611,-12.907c0.205,-0.094 0.409,-0.184 0.609,-0.273l29.808,-13.675l0.01,0.02c0.454,-0.226 0.916,-0.449 1.389,-0.667c8.418,-3.86 16.467,-4.363 18.011,-1.139l0.017,0.039c1.5,3.268 -4.144,9.07 -12.596,12.945c-0.47,0.216 -0.943,0.424 -1.411,0.618l0.006,0.012l-29.449,13.51c-0.315,0.154 -0.636,0.305 -0.961,0.454c-8.416,3.861 -16.465,4.365 -18.009,1.14l-0.017,-0.039l-0.018,-0.038Z" style="fill:#ffe500;"/><path d="M809.706,3113.43c3.441,0.975 4.306,8.992 1.927,17.943c-0.058,0.217 -0.116,0.431 -0.178,0.644l-8.427,31.693l-0.021,-0.005c-0.113,0.495 -0.237,0.992 -0.37,1.497c-2.381,8.949 -7.113,15.478 -10.586,14.615l-0.041,-0.01c-3.474,-0.925 -4.356,-8.971 -1.966,-17.956c0.134,-0.501 0.274,-0.995 0.422,-1.482l-0.014,-0.003l8.326,-31.312c0.082,-0.341 0.168,-0.685 0.26,-1.029c2.381,-8.95 7.115,-15.478 10.586,-14.617l0.082,0.022Z" style="fill:#fff;"/><path d="M924.629,2892.15c2.548,-2.51 9.947,0.695 16.553,7.184c0.16,0.158 0.318,0.316 0.473,0.471l23.396,22.982l-0.016,0.016c0.375,0.342 0.748,0.695 1.12,1.059c6.607,6.489 9.945,13.83 7.482,16.423l-0.031,0.029c-2.519,2.566 -9.95,-0.641 -16.582,-7.155c-0.372,-0.364 -0.732,-0.731 -1.08,-1.099l-0.012,0.011l-23.114,-22.704c-0.258,-0.24 -0.513,-0.484 -0.767,-0.736c-6.606,-6.489 -9.947,-13.828 -7.482,-16.422l0.029,-0.029l0.031,-0.03Z" style="fill:#ffe500;"/><path d="M882.079,2948.87c3.441,0.975 4.307,8.993 1.927,17.942c-0.058,0.218 -0.116,0.432 -0.177,0.646l-8.426,31.692l-0.023,-0.005c-0.113,0.493 -0.235,0.992 -0.37,1.494c-2.379,8.952 -7.112,15.479 -10.584,14.617l-0.04,-0.011c-3.477,-0.924 -4.357,-8.969 -1.968,-17.953c0.133,-0.503 0.274,-0.999 0.421,-1.483l-0.014,-0.004l8.326,-31.311c0.083,-0.341 0.171,-0.685 0.262,-1.029c2.379,-8.95 7.112,-15.479 10.584,-14.617l0.082,0.022Z" style="fill:#fff;"/><path d="M573.352,2649.21c0.468,-3.548 8.278,-5.56 17.477,-4.498c0.222,0.025 0.444,0.052 0.664,0.081l32.576,3.764l-0.002,0.022c0.505,0.04 1.018,0.09 1.534,0.148c9.199,1.064 16.343,4.805 15.991,8.365l-0.004,0.041c-0.412,3.572 -8.246,5.608 -17.481,4.54c-0.518,-0.06 -1.027,-0.129 -1.529,-0.204l-0.001,0.013l-32.186,-3.716c-0.35,-0.032 -0.702,-0.068 -1.056,-0.109c-9.202,-1.063 -16.344,-4.803 -15.991,-8.364l0.008,-0.083Z" style="fill:#f900e1;"/><path d="M538.177,2617.2c2.04,2.938 -2.382,9.682 -9.905,15.086c-0.181,0.129 -0.365,0.258 -0.546,0.385l-26.635,19.13l-0.013,-0.017c-0.402,0.311 -0.813,0.617 -1.236,0.921c-7.523,5.402 -15.325,7.439 -17.457,4.568l-0.025,-0.033c-2.098,-2.921 2.329,-9.696 9.881,-15.12c0.421,-0.304 0.844,-0.596 1.266,-0.875l-0.008,-0.013l26.316,-18.901c0.28,-0.212 0.566,-0.422 0.854,-0.631c7.522,-5.402 15.325,-7.44 17.46,-4.569l0.024,0.035l0.024,0.034Z" style="fill:#fff;"/><path d="M937.443,2850.44c0.467,-3.546 8.275,-5.561 17.476,-4.497c0.222,0.026 0.443,0.053 0.662,0.081l32.579,3.762l-0.003,0.023c0.506,0.04 1.016,0.089 1.534,0.15c9.199,1.062 16.344,4.803 15.991,8.364l-0.004,0.042c-0.413,3.572 -8.247,5.605 -17.484,4.538c-0.515,-0.06 -1.025,-0.127 -1.527,-0.202l-0.001,0.013l-32.185,-3.716c-0.349,-0.032 -0.704,-0.069 -1.058,-0.11c-9.199,-1.064 -16.344,-4.805 -15.991,-8.364l0.004,-0.042l0.007,-0.042Z" style="fill:#f900e1;"/><path d="M897.825,2982.16c0.469,-3.548 8.276,-5.561 17.476,-4.499c0.224,0.026 0.445,0.053 0.664,0.081l32.578,3.763l-0.002,0.021c0.505,0.043 1.015,0.092 1.534,0.151c9.199,1.062 16.341,4.803 15.989,8.364l-0.005,0.041c-0.412,3.572 -8.245,5.606 -17.481,4.54c-0.516,-0.059 -1.025,-0.128 -1.527,-0.203l-0.001,0.013l-32.188,-3.717c-0.349,-0.032 -0.701,-0.067 -1.055,-0.109c-9.2,-1.062 -16.345,-4.803 -15.992,-8.364l0.004,-0.041l0.006,-0.041Z" style="fill:#f900e1;"/><path d="M468.372,2738.76c0.468,-3.548 8.276,-5.561 17.477,-4.499c0.222,0.026 0.443,0.052 0.662,0.081l32.579,3.762l-0.002,0.022c0.504,0.042 1.015,0.092 1.533,0.151c9.199,1.062 16.344,4.803 15.991,8.364l-0.004,0.041c-0.413,3.572 -8.247,5.606 -17.483,4.539c-0.516,-0.058 -1.026,-0.127 -1.527,-0.203l-0.002,0.014l-32.185,-3.716c-0.35,-0.032 -0.704,-0.069 -1.058,-0.11c-9.2,-1.062 -16.343,-4.805 -15.991,-8.364l0.004,-0.042l0.006,-0.04Z" style="fill:#f900e1;"/><path d="M533.227,2684.08c2.549,-2.512 9.947,0.695 16.556,7.184c0.157,0.158 0.316,0.315 0.472,0.472l23.396,22.981l-0.015,0.014c0.374,0.345 0.747,0.697 1.118,1.061c6.608,6.49 9.946,13.83 7.482,16.422l-0.03,0.031c-2.52,2.566 -9.95,-0.641 -16.584,-7.156c-0.371,-0.363 -0.73,-0.731 -1.08,-1.099l-0.009,0.009l-23.115,-22.701c-0.257,-0.242 -0.512,-0.487 -0.767,-0.736c-6.608,-6.49 -9.946,-13.831 -7.482,-16.423l0.03,-0.031l0.028,-0.028Z" style="fill:#ffe500;"/><path d="M472.351,2986.01c0.469,-3.547 8.277,-5.56 17.476,-4.498c0.225,0.026 0.446,0.053 0.664,0.081l32.579,3.765l-0.003,0.022c0.506,0.04 1.016,0.089 1.532,0.148c9.202,1.062 16.343,4.805 15.992,8.364l-0.005,0.041c-0.412,3.572 -8.245,5.608 -17.481,4.54c-0.516,-0.058 -1.025,-0.128 -1.527,-0.203l-0.001,0.013l-32.188,-3.717c-0.349,-0.031 -0.701,-0.067 -1.056,-0.109c-9.199,-1.062 -16.344,-4.802 -15.991,-8.364l0.009,-0.083Z" style="fill:#f900e1;"/><path d="M434.54,2892.34c2.546,-2.511 9.947,0.695 16.554,7.184c0.16,0.158 0.318,0.316 0.472,0.472l23.396,22.981l-0.015,0.014c0.375,0.344 0.747,0.697 1.118,1.061c6.608,6.49 9.947,13.83 7.482,16.422l-0.03,0.031c-2.519,2.566 -9.949,-0.642 -16.583,-7.156c-0.371,-0.364 -0.73,-0.732 -1.079,-1.099l-0.012,0.011l-23.113,-22.704c-0.257,-0.241 -0.512,-0.486 -0.768,-0.735c-6.606,-6.49 -9.947,-13.83 -7.481,-16.423l0.029,-0.031l0.03,-0.028Z" style="fill:#ffe500;"/><path d="M533.203,3046c2.548,-2.51 9.946,0.697 16.554,7.187c0.161,0.156 0.32,0.313 0.473,0.471l23.397,22.98l-0.016,0.016c0.375,0.342 0.748,0.695 1.118,1.06c6.608,6.49 9.947,13.829 7.481,16.423l-0.028,0.029c-2.52,2.566 -9.951,-0.639 -16.584,-7.156c-0.371,-0.364 -0.731,-0.729 -1.081,-1.098l-0.009,0.01l-23.114,-22.704c-0.257,-0.239 -0.512,-0.484 -0.767,-0.735c-6.608,-6.491 -9.948,-13.83 -7.483,-16.422l0.059,-0.061Z" style="fill:#ffe500;"/><path d="M436.842,2760.06c3.442,0.977 4.307,8.993 1.926,17.944c-0.056,0.215 -0.116,0.432 -0.175,0.644l-8.427,31.692l-0.023,-0.005c-0.112,0.495 -0.236,0.994 -0.37,1.496c-2.379,8.95 -7.113,15.479 -10.584,14.617l-0.041,-0.011c-3.474,-0.925 -4.356,-8.971 -1.967,-17.955c0.132,-0.503 0.273,-0.997 0.421,-1.482l-0.013,-0.002l8.325,-31.314c0.083,-0.341 0.171,-0.685 0.262,-1.029c2.379,-8.95 7.113,-15.479 10.584,-14.617l0.082,0.022Z" style="fill:#fff;"/><path d="M491.383,2794.88c3.44,0.977 4.307,8.995 1.926,17.945c-0.057,0.215 -0.116,0.431 -0.176,0.643l-8.426,31.693l-0.023,-0.005c-0.113,0.494 -0.236,0.994 -0.37,1.495c-2.379,8.951 -7.113,15.479 -10.584,14.617l-0.041,-0.011c-3.477,-0.923 -4.357,-8.968 -1.967,-17.954c0.132,-0.503 0.273,-0.997 0.42,-1.482l-0.014,-0.003l8.327,-31.314c0.083,-0.341 0.169,-0.683 0.262,-1.029c2.379,-8.95 7.112,-15.478 10.584,-14.616l0.082,0.021Z" style="fill:#fff;"/><path d="M617.894,3080.99c0.467,-3.546 8.276,-5.56 17.476,-4.496c0.222,0.025 0.444,0.052 0.662,0.08l32.579,3.763l-0.003,0.022c0.506,0.04 1.017,0.089 1.534,0.151c9.199,1.061 16.344,4.803 15.992,8.362l-0.005,0.043c-0.412,3.572 -8.247,5.605 -17.483,4.539c-0.515,-0.06 -1.025,-0.127 -1.527,-0.203l-0.001,0.014l-32.186,-3.716c-0.35,-0.033 -0.703,-0.071 -1.058,-0.111c-9.199,-1.063 -16.343,-4.805 -15.991,-8.364l0.004,-0.041l0.007,-0.043Z" style="fill:#f900e1;"/><path d="M710.233,3134.33c2.549,-2.512 9.947,0.695 16.555,7.184c0.158,0.158 0.317,0.315 0.473,0.472l23.397,22.979l-0.016,0.016c0.373,0.342 0.747,0.697 1.118,1.061c6.608,6.49 9.946,13.83 7.481,16.422l-0.029,0.031c-2.52,2.566 -9.949,-0.641 -16.583,-7.156c-0.37,-0.365 -0.731,-0.731 -1.081,-1.099l-0.009,0.009l-23.117,-22.703c-0.255,-0.24 -0.51,-0.485 -0.765,-0.734c-6.608,-6.49 -9.946,-13.831 -7.482,-16.423l0.03,-0.031l0.028,-0.028Z" style="fill:#ffe500;"/><path d="M652.933,3126.56c3.44,0.976 4.305,8.992 1.926,17.944c-0.057,0.215 -0.117,0.432 -0.176,0.643l-8.429,31.692l-0.02,-0.005c-0.113,0.495 -0.236,0.995 -0.37,1.497c-2.379,8.95 -7.113,15.478 -10.586,14.616l-0.039,-0.01c-3.476,-0.926 -4.357,-8.971 -1.969,-17.956c0.134,-0.501 0.275,-0.996 0.422,-1.48l-0.014,-0.005l8.327,-31.312c0.081,-0.342 0.168,-0.686 0.26,-1.03c2.381,-8.95 7.114,-15.479 10.586,-14.616l0.082,0.022Z" style="fill:#fff;"/><path d="M504.97,3009.65c3.44,0.977 4.307,8.995 1.925,17.944c-0.056,0.216 -0.115,0.432 -0.175,0.644l-8.427,31.692l-0.023,-0.005c-0.113,0.495 -0.235,0.995 -0.369,1.496c-2.379,8.95 -7.113,15.479 -10.584,14.617l-0.041,-0.011c-3.476,-0.926 -4.358,-8.968 -1.967,-17.955c0.133,-0.502 0.273,-0.997 0.42,-1.481l-0.014,-0.004l8.327,-31.313c0.084,-0.341 0.17,-0.682 0.262,-1.029c2.379,-8.95 7.113,-15.479 10.584,-14.617l0.082,0.022Z" style="fill:#fff;"/><path d="M1108.48,3029.77c-8.378,19.31 -29.221,28.895 -46.516,21.391c-17.296,-7.505 -24.536,-29.273 -16.157,-48.582c8.377,-19.309 29.22,-28.894 46.515,-21.392c17.295,7.505 24.534,29.273 16.158,48.583Z" style="fill:#7e9bff;"/><path d="M1130.33,2872.73c-8.46,19.497 -29.369,29.234 -46.664,21.731c-17.295,-7.503 -24.468,-29.425 -16.009,-48.924c8.46,-19.497 29.368,-29.234 46.664,-21.731c17.294,7.504 24.468,29.425 16.009,48.924Z" style="fill:#7e9bff;"/><path d="M1057.54,3049.21l30.316,-69.877l-57.355,-24.883l-30.317,69.875l57.356,24.885Z" style="fill:#7e9bff;"/><path d="M1013.75,3153.13c-8.378,19.31 -30.435,28.366 -49.226,20.213c-18.791,-8.153 -27.245,-30.446 -18.867,-49.757c8.378,-19.308 30.435,-28.367 49.226,-20.214c18.791,8.153 27.244,30.449 18.867,49.758Z" style="fill:#7e9bff;"/><path d="M962.811,3172.57l30.316,-69.877l-51.063,-22.154l-30.317,69.878l51.064,22.153Z" style="fill:#7e9bff;"/><path d="M749.176,3378.95c-1.523,3.412 -11.778,5.227 -22.956,4.053c-0.269,-0.028 -0.538,-0.058 -0.803,-0.09l-39.573,-4.158l0.009,-0.021c-0.618,-0.046 -1.242,-0.102 -1.871,-0.169c-11.175,-1.175 -19.079,-4.896 -17.698,-8.322l0.016,-0.042c1.461,-3.435 11.753,-5.269 22.974,-4.093c0.627,0.068 1.245,0.142 1.848,0.223l0.005,-0.013l39.098,4.106c0.427,0.037 0.856,0.079 1.286,0.123c11.177,1.175 19.081,4.897 17.7,8.324l-0.017,0.04l-0.018,0.039Z" style="fill:#fff;"/></g></svg>