<?xml version="1.0" encoding="UTF-8" standalone="no"?><!DOCTYPE svg PUBLIC "-//W3C//DTD SVG 1.1//EN" "http://www.w3.org/Graphics/SVG/1.1/DTD/svg11.dtd"><svg width="100%" height="100%" viewBox="0 0 2084 2084" version="1.1" xmlns="http://www.w3.org/2000/svg" xmlns:xlink="http://www.w3.org/1999/xlink" xml:space="preserve" xmlns:serif="http://www.serif.com/" style="fill-rule:evenodd;clip-rule:evenodd;stroke-linecap:round;stroke-linejoin:round;stroke-miterlimit:1.5;"><ellipse cx="998.067" cy="988.158" rx="759.525" ry="718.904" style="fill:#e6d19a;"/><ellipse cx="1007.11" cy="874.721" rx="720.971" ry="606.333" style="fill:#ad5b74;"/><path d="M685.578,498.466c6.842,-1.937 16.667,10.721 21.979,28.342c0.129,0.425 0.254,0.854 0.375,1.275l18.808,62.4l-0.041,0.012c0.321,0.954 0.633,1.929 0.933,2.917c5.313,17.625 4.113,33.604 -2.658,35.767l-0.079,0.025c-6.842,2.062 -16.725,-10.625 -22.059,-28.317c-0.3,-0.992 -0.575,-1.975 -0.833,-2.946l-0.025,0.008l-18.583,-61.654c-0.217,-0.662 -0.43,-1.333 -0.634,-2.012c-5.312,-17.625 -4.116,-33.604 2.659,-35.767l0.158,-0.05Z" style="fill:#f900e1;"/><path d="M987.974,1296.3c4.437,-5.554 19.791,-0.967 34.358,10.283c0.354,0.275 0.7,0.546 1.046,0.821l51.575,39.846l-0.029,0.037c0.82,0.588 1.637,1.196 2.458,1.83c14.562,11.25 22.879,24.95 18.625,30.645l-0.05,0.067c-4.371,5.658 -19.788,1.075 -34.408,-10.221c-0.821,-0.629 -1.617,-1.271 -2.392,-1.912l-0.017,0.021l-50.954,-39.367c-0.562,-0.413 -1.125,-0.838 -1.687,-1.271c-14.567,-11.254 -22.88,-24.954 -18.625,-30.65l0.05,-0.067l0.05,-0.062Z" style="fill:#f900e1;"/><path d="M1534.17,766.05c4.438,-5.554 19.792,-0.967 34.358,10.283c0.35,0.275 0.7,0.546 1.042,0.821l51.575,39.846l-0.025,0.037c0.817,0.588 1.638,1.196 2.454,1.83c14.567,11.25 22.884,24.95 18.629,30.645l-0.05,0.067c-4.37,5.658 -19.787,1.075 -34.412,-10.221c-0.817,-0.629 -1.613,-1.271 -2.388,-1.912l-0.016,0.021l-50.959,-39.367c-0.558,-0.413 -1.125,-0.838 -1.683,-1.271c-14.567,-11.254 -22.883,-24.954 -18.629,-30.65l0.05,-0.067l0.054,-0.062Z" style="fill:#f900e1;"/><path d="M563.43,990.628c4.437,-5.554 19.792,-0.962 34.358,10.288c0.35,0.275 0.7,0.545 1.042,0.82l51.579,39.846l-0.029,0.034c0.821,0.587 1.637,1.2 2.454,1.833c14.567,11.25 22.883,24.95 18.629,30.646l-0.05,0.066c-4.371,5.655 -19.787,1.075 -34.412,-10.22c-0.817,-0.634 -1.613,-1.271 -2.388,-1.913l-0.016,0.021l-50.959,-39.367c-0.558,-0.412 -1.121,-0.837 -1.683,-1.271c-14.567,-11.254 -22.879,-24.954 -18.629,-30.65l0.054,-0.066l0.05,-0.067Z" style="fill:#f900e1;"/><path d="M1259.33,426.979c6.588,2.671 6.567,18.696 -0.067,35.867c-0.158,0.412 -0.32,0.825 -0.487,1.233l-23.488,60.796l-0.041,-0.017c-0.329,0.955 -0.679,1.913 -1.054,2.875c-6.634,17.171 -17.392,29.046 -24.063,26.592l-0.079,-0.029c-6.667,-2.575 -6.675,-18.658 -0.013,-35.896c0.371,-0.962 0.755,-1.908 1.15,-2.837l-0.025,-0.009l23.209,-60.066c0.233,-0.655 0.479,-1.313 0.737,-1.975c6.634,-17.171 17.392,-29.046 24.063,-26.592l0.158,0.058Z" style="fill:#ffe500;"/><path d="M539.4,517.567c6.587,2.671 6.567,18.696 -0.067,35.866c-0.158,0.413 -0.32,0.825 -0.487,1.234l-23.488,60.795l-0.041,-0.016c-0.329,0.95 -0.679,1.912 -1.054,2.875c-6.634,17.167 -17.392,29.046 -24.067,26.591l-0.075,-0.029c-6.667,-2.575 -6.675,-18.662 -0.017,-35.896c0.375,-0.962 0.759,-1.912 1.154,-2.837l-0.025,-0.008l23.209,-60.067c0.233,-0.654 0.479,-1.317 0.733,-1.975c6.633,-17.171 17.396,-29.046 24.067,-26.592l0.158,0.059Z" style="fill:#ffe500;"/><path d="M1506.44,1140.13c5.87,4.013 2.441,19.667 -7.692,35.034c-0.246,0.37 -0.492,0.737 -0.737,1.099l-35.884,54.409l-0.033,-0.021c-0.525,0.858 -1.075,1.721 -1.642,2.583c-10.133,15.367 -23.175,24.684 -29.171,20.867l-0.07,-0.046c-5.967,-3.933 -2.551,-19.65 7.62,-35.079c0.567,-0.858 1.146,-1.704 1.73,-2.525l-0.021,-0.017l35.446,-53.754c0.37,-0.592 0.754,-1.183 1.141,-1.775c10.134,-15.367 23.175,-24.683 29.171,-20.867l0.142,0.092Z" style="fill:#ffe500;"/><path d="M1530.87,893.592c5.867,4.012 2.442,19.666 -7.692,35.033c-0.246,0.371 -0.492,0.737 -0.737,1.1l-35.884,54.408l-0.037,-0.021c-0.525,0.859 -1.071,1.721 -1.638,2.584c-10.133,15.366 -23.175,24.683 -29.17,20.867l-0.071,-0.046c-5.967,-3.934 -2.55,-19.654 7.62,-35.079c0.567,-0.863 1.146,-1.705 1.73,-2.525l-0.021,-0.017l35.446,-53.754c0.371,-0.592 0.75,-1.184 1.141,-1.775c10.134,-15.367 23.175,-24.684 29.171,-20.867l0.142,0.092Z" style="fill:#ffe500;"/><path d="M1227.71,1246.42c7.041,-1 15.07,12.867 17.954,31.046c0.071,0.441 0.137,0.879 0.2,1.312l10.216,64.371l-0.041,0.004c0.191,0.992 0.371,1.996 0.533,3.017c2.883,18.179 -0.458,33.85 -7.458,35.079l-0.084,0.017c-7.058,1.121 -15.141,-12.788 -18.037,-31.038c-0.163,-1.016 -0.304,-2.029 -0.425,-3.029l-0.029,0.004l-10.096,-63.596c-0.125,-0.687 -0.242,-1.379 -0.354,-2.079c-2.888,-18.179 0.454,-33.854 7.458,-35.083l0.083,-0.013l0.08,-0.012Z" style="fill:#ffe500;"/><path d="M687.788,1266.1c6.016,-3.787 19.008,5.596 29.066,21.013c0.242,0.371 0.479,0.745 0.717,1.116l35.604,54.588l-0.038,0.025c0.584,0.821 1.155,1.666 1.721,2.533c10.055,15.417 13.404,31.088 7.513,35.071l-0.071,0.046c-5.983,3.904 -19.038,-5.492 -29.133,-20.967c-0.567,-0.866 -1.109,-1.733 -1.629,-2.596l-0.025,0.017l-35.175,-53.933c-0.396,-0.575 -0.788,-1.159 -1.176,-1.754c-10.058,-15.413 -13.404,-31.088 -7.516,-35.067l0.141,-0.092Z" style="fill:#ffe500;"/><path d="M635.254,708.138c6.588,2.67 6.567,18.695 -0.066,35.866c-0.159,0.417 -0.321,0.829 -0.488,1.234l-23.487,60.795l-0.042,-0.016c-0.329,0.954 -0.679,1.912 -1.054,2.875c-6.634,17.171 -17.392,29.046 -24.067,26.591l-0.075,-0.029c-6.667,-2.575 -6.675,-18.658 -0.017,-35.896c0.375,-0.962 0.759,-1.908 1.155,-2.837l-0.025,-0.009l23.208,-60.062c0.233,-0.658 0.479,-1.317 0.733,-1.979c6.634,-17.171 17.396,-29.046 24.067,-26.592l0.158,0.058Z" style="fill:#ffe500;"/><path d="M1067.5,451.084c0.929,7.046 -13.017,14.946 -31.221,17.654c-0.437,0.067 -0.879,0.129 -1.312,0.188l-64.463,9.6l-0.008,-0.046c-0.992,0.183 -2,0.354 -3.021,0.504c-18.204,2.713 -33.846,-0.779 -35.008,-7.792l-0.013,-0.083c-1.054,-7.071 12.929,-15.017 31.208,-17.737c1.021,-0.155 2.034,-0.288 3.034,-0.4l-0.004,-0.03l63.691,-9.483c0.688,-0.117 1.379,-0.229 2.084,-0.333c18.204,-2.713 33.845,0.779 35.008,7.791l0.025,0.167Z" style="fill:#fff;"/><path d="M1463.07,721.242c-5.138,4.913 -19.746,-1.679 -32.684,-14.771c-0.312,-0.316 -0.621,-0.633 -0.925,-0.95l-45.812,-46.358l0.029,-0.029c-0.733,-0.692 -1.463,-1.404 -2.188,-2.142c-12.937,-13.087 -19.358,-27.775 -14.383,-32.854l0.058,-0.058c5.084,-5.025 19.755,1.566 32.742,14.712c0.729,0.734 1.433,1.471 2.117,2.213l0.021,-0.021l45.258,45.8c0.504,0.487 1.004,0.979 1.504,1.483c12.938,13.092 19.354,27.779 14.379,32.859l-0.116,0.116Z" style="fill:#fff;"/><path d="M579.596,1125.63c-5.138,4.913 -19.746,-1.679 -32.683,-14.771c-0.313,-0.316 -0.621,-0.633 -0.925,-0.95l-45.813,-46.358l0.029,-0.029c-0.733,-0.692 -1.462,-1.409 -2.191,-2.142c-12.938,-13.092 -19.355,-27.775 -14.38,-32.854l0.059,-0.058c5.083,-5.025 19.754,1.566 32.741,14.708c0.73,0.733 1.434,1.475 2.117,2.217l0.021,-0.021l45.258,45.8c0.504,0.483 1.004,0.979 1.504,1.483c12.938,13.092 19.355,27.775 14.38,32.854l-0.059,0.063l-0.058,0.058Z" style="fill:#fff;"/><path d="M369.092,585.271c173.2,532.033 475.158,898.658 936.745,1060.23c-94.083,39.567 -198.233,61.563 -307.77,61.563c-419.192,-0 -759.521,-322.134 -759.521,-718.909c-0,-149.266 48.162,-287.966 130.546,-402.887Z" style="fill-opacity:0.04;"/><path d="M1307.79,733.825c0,-58.94 -47.851,-106.792 -106.791,-106.792l-382.731,0c-58.939,0 -106.791,47.852 -106.791,106.792l0,213.582c0,58.939 47.852,106.791 106.791,106.791l382.731,-0c58.94,-0 106.791,-47.852 106.791,-106.791l0,-213.582Z" style="fill:none;stroke:#fff;stroke-width:79.17px;"/><path d="M1296.26,945.692l-546.729,-5.886" style="fill:none;stroke:#fff;stroke-width:79.17px;"/><path d="M997.976,1063.19l71.134,93.993l-142.267,0l71.133,-93.993Z" style="fill:#fff;stroke:#fff;stroke-width:79.17px;"/></svg>