<?xml version="1.0" encoding="UTF-8" standalone="no"?><!DOCTYPE svg PUBLIC "-//W3C//DTD SVG 1.1//EN" "http://www.w3.org/Graphics/SVG/1.1/DTD/svg11.dtd"><svg width="100%" height="100%" viewBox="0 0 1140 1080" version="1.1" xmlns="http://www.w3.org/2000/svg" xmlns:xlink="http://www.w3.org/1999/xlink" xml:space="preserve" xmlns:serif="http://www.serif.com/" style="fill-rule:evenodd;clip-rule:evenodd;stroke-linecap:round;stroke-linejoin:round;stroke-miterlimit:1.5;"><ellipse cx="569.644" cy="539.828" rx="569.644" ry="539.178" style="fill:#e6d19a;"/><ellipse cx="576.425" cy="454.75" rx="540.728" ry="454.75" style="fill:#c29ae6;"/><path d="M483.619,99.141c5.131,-1.453 12.5,8.04 16.484,21.256c0.097,0.319 0.191,0.641 0.281,0.956l14.107,46.8l-0.032,0.01c0.241,0.715 0.475,1.446 0.7,2.187c3.985,13.219 3.085,25.203 -1.993,26.825l-0.06,0.019c-5.131,1.547 -12.544,-7.969 -16.544,-21.238c-0.225,-0.744 -0.431,-1.481 -0.625,-2.209l-0.018,0.006l-13.938,-46.24c-0.162,-0.497 -0.322,-1 -0.475,-1.51c-3.984,-13.219 -3.087,-25.203 1.994,-26.825l0.119,-0.037Z" style="fill:#f900e1;"/><path d="M551.406,683.088c3.328,-4.166 14.844,-0.726 25.769,7.712c0.266,0.206 0.525,0.409 0.784,0.616l38.682,29.884l-0.022,0.028c0.615,0.441 1.228,0.897 1.843,1.372c10.922,8.438 17.16,18.713 13.969,22.984l-0.037,0.05c-3.278,4.244 -14.841,0.807 -25.807,-7.665c-0.615,-0.472 -1.212,-0.953 -1.793,-1.435l-0.013,0.016l-38.215,-29.525c-0.422,-0.309 -0.844,-0.628 -1.266,-0.953c-10.925,-8.441 -17.159,-18.716 -13.969,-22.988l0.038,-0.05l0.037,-0.046Z" style="fill:#f900e1;"/><path d="M971.725,373.247c3.328,-4.166 14.844,-0.725 25.769,7.712c0.262,0.207 0.525,0.41 0.781,0.616l38.681,29.884l-0.019,0.028c0.613,0.441 1.229,0.897 1.841,1.372c10.925,8.438 17.163,18.713 13.972,22.985l-0.037,0.05c-3.279,4.243 -14.841,0.806 -25.81,-7.666c-0.612,-0.472 -1.209,-0.953 -1.791,-1.434l-0.012,0.015l-38.219,-29.525c-0.419,-0.309 -0.844,-0.628 -1.262,-0.953c-10.925,-8.44 -17.163,-18.715 -13.972,-22.987l0.037,-0.05l0.041,-0.047Z" style="fill:#f900e1;"/><path d="M315.859,430.075c3.328,-4.166 14.844,-0.722 25.769,7.716c0.263,0.206 0.525,0.409 0.781,0.615l38.685,29.885l-0.022,0.025c0.615,0.44 1.228,0.9 1.84,1.375c10.925,8.437 17.163,18.712 13.972,22.984l-0.037,0.05c-3.278,4.241 -14.841,0.806 -25.81,-7.666c-0.612,-0.475 -1.209,-0.953 -1.79,-1.434l-0.013,0.016l-38.218,-29.525c-0.419,-0.31 -0.841,-0.629 -1.263,-0.954c-10.925,-8.44 -17.159,-18.715 -13.972,-22.987l0.041,-0.05l0.037,-0.05Z" style="fill:#f900e1;"/><path d="M620.278,76.888c4.941,2.003 4.925,14.021 -0.05,26.9c-0.119,0.309 -0.241,0.618 -0.366,0.925l-17.615,45.596l-0.031,-0.012c-0.247,0.715 -0.51,1.434 -0.791,2.156c-4.975,12.878 -13.044,21.785 -18.047,19.944l-0.059,-0.022c-5,-1.931 -5.007,-13.994 -0.01,-26.922c0.279,-0.722 0.566,-1.431 0.863,-2.128l-0.019,-0.006l17.406,-45.05c0.175,-0.491 0.36,-0.985 0.553,-1.481c4.976,-12.879 13.044,-21.785 18.047,-19.944l0.119,0.044Z" style="fill:#ffe500;"/><path d="M225.644,186.884c4.94,2.004 4.925,14.022 -0.05,26.9c-0.119,0.31 -0.241,0.619 -0.366,0.925l-17.615,45.597l-0.032,-0.012c-0.247,0.712 -0.509,1.434 -0.79,2.156c-4.975,12.875 -13.044,21.784 -18.05,19.944l-0.057,-0.022c-5,-1.931 -5.006,-13.997 -0.012,-26.922c0.281,-0.722 0.569,-1.434 0.866,-2.128l-0.019,-0.006l17.406,-45.05c0.175,-0.491 0.359,-0.988 0.55,-1.482c4.975,-12.878 13.047,-21.784 18.05,-19.943l0.119,0.043Z" style="fill:#ffe500;"/><path d="M950.925,653.806c4.403,3.01 1.831,14.75 -5.769,26.275c-0.184,0.278 -0.369,0.553 -0.553,0.825l-26.912,40.806l-0.025,-0.015c-0.394,0.644 -0.807,1.29 -1.232,1.937c-7.6,11.525 -17.381,18.513 -21.878,15.65l-0.053,-0.034c-4.475,-2.95 -1.912,-14.738 5.716,-26.309c0.425,-0.644 0.859,-1.279 1.297,-1.894l-0.016,-0.013l26.584,-40.315c0.278,-0.444 0.566,-0.888 0.857,-1.332c7.6,-11.525 17.381,-18.512 21.878,-15.65l0.106,0.069Z" style="fill:#ffe500;"/><path d="M969.247,468.903c4.4,3.01 1.831,14.75 -5.769,26.275c-0.184,0.278 -0.369,0.553 -0.553,0.825l-26.913,40.806l-0.028,-0.015c-0.393,0.643 -0.803,1.29 -1.228,1.937c-7.6,11.525 -17.381,18.513 -21.878,15.65l-0.053,-0.034c-4.475,-2.95 -1.913,-14.741 5.716,-26.309c0.425,-0.647 0.859,-1.279 1.296,-1.894l-0.015,-0.013l26.584,-40.315c0.278,-0.444 0.563,-0.888 0.856,-1.332c7.6,-11.525 17.382,-18.512 21.879,-15.65l0.106,0.069Z" style="fill:#ffe500;"/><path d="M741.878,733.525c5.281,-0.75 11.303,9.65 13.466,23.284c0.053,0.332 0.103,0.66 0.15,0.985l7.662,48.278l-0.031,0.003c0.144,0.744 0.278,1.497 0.4,2.263c2.162,13.634 -0.344,25.387 -5.594,26.309l-0.062,0.012c-5.294,0.841 -11.357,-9.59 -13.528,-23.278c-0.122,-0.762 -0.229,-1.522 -0.319,-2.272l-0.022,0.004l-7.572,-47.697c-0.094,-0.516 -0.181,-1.035 -0.265,-1.56c-2.166,-13.634 0.34,-25.39 5.593,-26.312l0.063,-0.01l0.059,-0.009Z" style="fill:#ffe500;"/><path d="M336.934,748.288c4.513,-2.841 14.257,4.196 21.8,15.759c0.182,0.278 0.36,0.559 0.538,0.837l26.703,40.941l-0.028,0.019c0.437,0.615 0.865,1.25 1.29,1.9c7.541,11.562 10.054,23.315 5.635,26.303l-0.053,0.034c-4.488,2.928 -14.278,-4.119 -21.85,-15.725c-0.425,-0.65 -0.832,-1.3 -1.222,-1.947l-0.019,0.013l-26.381,-40.45c-0.297,-0.431 -0.591,-0.869 -0.881,-1.316c-7.544,-11.559 -10.054,-23.315 -5.638,-26.3l0.106,-0.069Z" style="fill:#ffe500;"/><path d="M297.534,329.813c4.941,2.003 4.925,14.021 -0.05,26.9c-0.118,0.312 -0.24,0.621 -0.365,0.925l-17.616,45.596l-0.031,-0.012c-0.247,0.716 -0.509,1.434 -0.791,2.156c-4.975,12.878 -13.043,21.785 -18.05,19.944l-0.056,-0.022c-5,-1.931 -5.006,-13.994 -0.012,-26.922c0.281,-0.722 0.568,-1.431 0.865,-2.128l-0.019,-0.006l17.407,-45.047c0.175,-0.494 0.359,-0.988 0.55,-1.485c4.975,-12.878 13.047,-21.784 18.05,-19.943l0.118,0.043Z" style="fill:#ffe500;"/><path d="M877.019,318.9c0.697,5.284 -9.763,11.209 -23.416,13.241c-0.328,0.05 -0.659,0.097 -0.984,0.14l-48.347,7.2l-0.006,-0.034c-0.744,0.137 -1.5,0.266 -2.266,0.378c-13.653,2.034 -25.384,-0.584 -26.256,-5.844l-0.01,-0.062c-0.79,-5.303 9.697,-11.263 23.407,-13.303c0.765,-0.116 1.525,-0.216 2.275,-0.3l-0.004,-0.022l47.769,-7.113c0.516,-0.087 1.035,-0.172 1.563,-0.25c13.653,-2.034 25.384,0.585 26.256,5.844l0.019,0.125Z" style="fill:#fff;"/><path d="M888.384,455.178c-3.853,3.684 -14.809,-1.259 -24.512,-11.078c-0.235,-0.237 -0.466,-0.475 -0.694,-0.712l-34.359,-34.769l0.022,-0.022c-0.55,-0.519 -1.097,-1.053 -1.641,-1.606c-9.703,-9.816 -14.519,-20.832 -10.788,-24.641l0.044,-0.044c3.813,-3.769 14.816,1.175 24.557,11.035c0.546,0.55 1.074,1.103 1.587,1.659l0.016,-0.016l33.943,34.35c0.378,0.366 0.753,0.735 1.128,1.113c9.704,9.819 14.516,20.834 10.785,24.644l-0.088,0.087Z" style="fill:#fff;"/><path d="M255.791,642.931c-3.854,3.685 -14.81,-1.259 -24.513,-11.078c-0.234,-0.237 -0.465,-0.475 -0.694,-0.712l-34.359,-34.769l0.022,-0.022c-0.55,-0.519 -1.097,-1.056 -1.644,-1.606c-9.703,-9.819 -14.515,-20.832 -10.784,-24.641l0.044,-0.044c3.812,-3.768 14.815,1.175 24.556,11.032c0.547,0.55 1.075,1.106 1.587,1.662l0.016,-0.016l33.944,34.35c0.378,0.363 0.753,0.735 1.128,1.113c9.703,9.819 14.515,20.831 10.784,24.641l-0.044,0.046l-0.043,0.044Z" style="fill:#fff;"/><path d="M393.406,656.969l353.491,-460.116" style="fill:none;stroke:#feb7ee;stroke-width:117.19px;"/><path d="M800.184,603.925l-448.709,-367.859" style="fill:none;stroke:#feb7ee;stroke-width:117.19px;"/><path d="M97.912,237.663c129.9,399.025 356.369,673.993 702.56,795.175c-70.563,29.674 -148.675,46.171 -230.828,46.171c-314.394,0 -569.641,-241.6 -569.641,-539.181c0,-111.95 36.122,-215.975 97.909,-302.166Z" style="fill-opacity:0.04;"/></svg>