<?xml version="1.0" encoding="UTF-8" standalone="no"?><!DOCTYPE svg PUBLIC "-//W3C//DTD SVG 1.1//EN" "http://www.w3.org/Graphics/SVG/1.1/DTD/svg11.dtd"><svg width="100%" height="100%" viewBox="0 0 500 500" version="1.1" xmlns="http://www.w3.org/2000/svg" xmlns:xlink="http://www.w3.org/1999/xlink" xml:space="preserve" xmlns:serif="http://www.serif.com/" style="fill-rule:evenodd;clip-rule:evenodd;stroke-linecap:round;stroke-linejoin:round;stroke-miterlimit:1.5;"><ellipse cx="239.536" cy="237.158" rx="182.286" ry="172.537" style="fill:#e6d19a;"/><ellipse cx="241.706" cy="209.933" rx="173.033" ry="145.52" style="fill:#c29ae6;"/><path d="M212.008,96.138c1.642,-0.465 4,2.573 5.275,6.802c0.031,0.102 0.061,0.205 0.09,0.306l4.514,14.976l-0.01,0.003c0.077,0.229 0.152,0.463 0.224,0.7c1.275,4.23 0.987,8.065 -0.638,8.584l-0.019,0.006c-1.642,0.495 -4.014,-2.55 -5.294,-6.796c-0.072,-0.238 -0.138,-0.474 -0.2,-0.707l-0.006,0.002l-4.46,-14.797c-0.052,-0.159 -0.103,-0.32 -0.152,-0.483c-1.275,-4.23 -0.988,-8.065 0.638,-8.584l0.019,-0.006l0.019,-0.006Z" style="fill:#f900e1;"/><path d="M233.7,283.001c1.065,-1.333 4.75,-0.232 8.246,2.468c0.085,0.066 0.168,0.131 0.251,0.197l12.378,9.563l-0.007,0.009c0.197,0.141 0.393,0.287 0.59,0.439c3.495,2.7 5.491,5.988 4.47,7.355l-0.012,0.016c-1.049,1.358 -4.749,0.258 -8.258,-2.453c-0.197,-0.151 -0.388,-0.305 -0.574,-0.459l-0.004,0.005l-12.229,-9.448c-0.135,-0.099 -0.27,-0.201 -0.405,-0.305c-3.496,-2.701 -5.491,-5.989 -4.47,-7.356l0.012,-0.016l0.012,-0.015Z" style="fill:#f900e1;"/><path d="M368.202,183.852c1.065,-1.333 4.75,-0.232 8.246,2.468c0.084,0.066 0.168,0.131 0.25,0.197l12.378,9.563l-0.006,0.009c0.196,0.141 0.393,0.287 0.589,0.439c3.496,2.7 5.492,5.988 4.471,7.355l-0.012,0.016c-1.049,1.358 -4.749,0.258 -8.259,-2.453c-0.196,-0.151 -0.387,-0.305 -0.573,-0.459l-0.004,0.005l-12.23,-9.448c-0.134,-0.099 -0.27,-0.201 -0.404,-0.305c-3.496,-2.701 -5.492,-5.989 -4.471,-7.356l0.012,-0.016l0.013,-0.015Z" style="fill:#f900e1;"/><path d="M158.325,202.037c1.065,-1.333 4.75,-0.231 8.246,2.469c0.084,0.066 0.168,0.131 0.25,0.197l12.379,9.563l-0.007,0.008c0.197,0.141 0.393,0.288 0.589,0.44c3.496,2.7 5.492,5.988 4.471,7.355l-0.012,0.016c-1.049,1.357 -4.749,0.258 -8.259,-2.453c-0.196,-0.152 -0.387,-0.305 -0.573,-0.459l-0.004,0.005l-12.23,-9.448c-0.134,-0.099 -0.269,-0.201 -0.404,-0.305c-3.496,-2.701 -5.491,-5.989 -4.471,-7.356l0.013,-0.016l0.012,-0.016Z" style="fill:#f900e1;"/><path d="M255.739,89.017c1.581,0.641 1.576,4.487 -0.016,8.608c-0.038,0.099 -0.077,0.198 -0.117,0.296l-5.637,14.591l-0.01,-0.004c-0.079,0.229 -0.163,0.459 -0.253,0.69c-1.592,4.121 -4.174,6.971 -5.775,6.382l-0.019,-0.007c-1.6,-0.618 -1.602,-4.478 -0.003,-8.615c0.089,-0.231 0.181,-0.458 0.276,-0.681l-0.006,-0.002l5.57,-14.416c0.056,-0.157 0.115,-0.315 0.177,-0.474c1.592,-4.121 4.174,-6.971 5.775,-6.382l0.019,0.007l0.019,0.007Z" style="fill:#ffe500;"/><path d="M129.456,124.216c1.581,0.641 1.576,4.487 -0.016,8.608c-0.038,0.099 -0.077,0.198 -0.117,0.296l-5.637,14.591l-0.01,-0.004c-0.079,0.228 -0.163,0.459 -0.253,0.69c-1.592,4.12 -4.174,6.971 -5.776,6.382l-0.018,-0.007c-1.6,-0.618 -1.602,-4.479 -0.004,-8.615c0.09,-0.231 0.182,-0.459 0.277,-0.681l-0.006,-0.002l5.57,-14.416c0.056,-0.157 0.115,-0.316 0.176,-0.474c1.592,-4.121 4.175,-6.971 5.776,-6.382l0.019,0.007l0.019,0.007Z" style="fill:#ffe500;"/><path d="M361.546,273.631c1.409,0.963 0.586,4.72 -1.846,8.408c-0.059,0.089 -0.118,0.177 -0.177,0.264l-8.612,13.058l-0.008,-0.005c-0.126,0.206 -0.258,0.413 -0.394,0.62c-2.432,3.688 -5.562,5.924 -7.001,5.008l-0.017,-0.011c-1.432,-0.944 -0.612,-4.716 1.829,-8.419c0.136,-0.206 0.275,-0.409 0.415,-0.606l-0.005,-0.004l8.507,-12.901c0.089,-0.142 0.181,-0.284 0.274,-0.426c2.432,-3.688 5.562,-5.924 7.001,-5.008l0.017,0.011l0.017,0.011Z" style="fill:#ffe500;"/><path d="M367.409,214.462c1.408,0.963 0.586,4.72 -1.846,8.408c-0.059,0.089 -0.118,0.177 -0.177,0.264l-8.612,13.058l-0.009,-0.005c-0.126,0.206 -0.257,0.413 -0.393,0.62c-2.432,3.688 -5.562,5.924 -7.001,5.008l-0.017,-0.011c-1.432,-0.944 -0.612,-4.717 1.829,-8.419c0.136,-0.207 0.275,-0.409 0.415,-0.606l-0.005,-0.004l8.507,-12.901c0.089,-0.142 0.18,-0.284 0.274,-0.426c2.432,-3.688 5.562,-5.924 7.001,-5.008l0.017,0.011l0.017,0.011Z" style="fill:#ffe500;"/><path d="M294.651,299.141c1.69,-0.24 3.617,3.088 4.309,7.451c0.017,0.106 0.033,0.211 0.048,0.315l2.452,15.449l-0.01,0.001c0.046,0.238 0.089,0.479 0.128,0.724c0.692,4.363 -0.11,8.124 -1.79,8.419l-0.02,0.004c-1.694,0.269 -3.634,-3.069 -4.329,-7.449c-0.039,-0.244 -0.073,-0.487 -0.102,-0.727l-0.007,0.001l-2.423,-15.263c-0.03,-0.165 -0.058,-0.331 -0.085,-0.499c-0.693,-4.363 0.109,-8.125 1.79,-8.42l0.02,-0.003l0.019,-0.003Z" style="fill:#ffe500;"/><path d="M165.069,303.865c1.444,-0.909 4.562,1.343 6.976,5.043c0.058,0.089 0.115,0.179 0.172,0.268l8.545,13.101l-0.009,0.006c0.14,0.197 0.277,0.4 0.413,0.608c2.413,3.7 3.217,7.461 1.803,8.417l-0.017,0.011c-1.436,0.937 -4.569,-1.318 -6.992,-5.032c-0.136,-0.208 -0.266,-0.416 -0.391,-0.623l-0.006,0.004l-8.442,-12.944c-0.095,-0.138 -0.189,-0.278 -0.282,-0.421c-2.414,-3.699 -3.217,-7.461 -1.804,-8.416l0.017,-0.011l0.017,-0.011Z" style="fill:#ffe500;"/><path d="M152.461,169.953c1.581,0.641 1.576,4.487 -0.016,8.608c-0.038,0.1 -0.077,0.199 -0.117,0.296l-5.637,14.591l-0.01,-0.004c-0.079,0.229 -0.163,0.459 -0.253,0.69c-1.592,4.121 -4.174,6.971 -5.776,6.382l-0.018,-0.007c-1.6,-0.618 -1.602,-4.478 -0.004,-8.615c0.09,-0.231 0.182,-0.458 0.277,-0.681l-0.006,-0.002l5.57,-14.415c0.056,-0.158 0.115,-0.316 0.176,-0.475c1.592,-4.121 4.175,-6.971 5.776,-6.382l0.019,0.007l0.019,0.007Z" style="fill:#ffe500;"/><path d="M337.896,166.461c0.223,1.691 -3.124,3.587 -7.493,4.237c-0.105,0.016 -0.211,0.031 -0.315,0.045l-15.471,2.304l-0.002,-0.011c-0.238,0.044 -0.48,0.085 -0.725,0.121c-4.369,0.651 -8.123,-0.187 -8.402,-1.87l-0.003,-0.02c-0.253,-1.697 3.103,-3.604 7.49,-4.257c0.245,-0.037 0.488,-0.069 0.728,-0.096l-0.001,-0.007l15.286,-2.276c0.165,-0.028 0.331,-0.055 0.5,-0.08c4.369,-0.651 8.123,0.187 8.402,1.87l0.003,0.02l0.003,0.02Z" style="fill:#fff;"/><path d="M341.533,210.07c-1.233,1.179 -4.739,-0.403 -7.844,-3.545c-0.075,-0.076 -0.149,-0.152 -0.222,-0.228l-10.995,-11.126l0.007,-0.007c-0.176,-0.166 -0.351,-0.337 -0.525,-0.514c-3.105,-3.141 -4.646,-6.666 -3.452,-7.885l0.014,-0.014c1.22,-1.206 4.741,0.376 7.858,3.531c0.175,0.176 0.344,0.353 0.508,0.531l0.005,-0.005l10.862,10.992c0.121,0.117 0.241,0.235 0.361,0.356c3.105,3.142 4.645,6.667 3.451,7.886l-0.014,0.014l-0.014,0.014Z" style="fill:#fff;"/><path d="M139.103,270.151c-1.233,1.179 -4.739,-0.403 -7.844,-3.545c-0.075,-0.076 -0.149,-0.152 -0.222,-0.228l-10.995,-11.126l0.007,-0.007c-0.176,-0.166 -0.351,-0.338 -0.526,-0.514c-3.105,-3.142 -4.645,-6.666 -3.451,-7.885l0.014,-0.014c1.22,-1.206 4.741,0.376 7.858,3.53c0.175,0.176 0.344,0.354 0.508,0.532l0.005,-0.005l10.862,10.992c0.121,0.116 0.241,0.235 0.361,0.356c3.105,3.142 4.645,6.666 3.451,7.885l-0.014,0.015l-0.014,0.014Z" style="fill:#fff;"/><path d="M183.14,274.643l113.117,-147.237" style="fill:none;stroke:#feb7ee;stroke-width:37.5px;"/><path d="M313.309,257.669l-143.587,-117.715" style="fill:none;stroke:#feb7ee;stroke-width:37.5px;"/><path d="M88.582,140.465c41.568,127.688 114.038,215.678 224.819,254.456c-22.58,9.496 -47.576,14.775 -73.865,14.775c-100.606,-0 -182.285,-77.312 -182.285,-172.538c-0,-35.824 11.559,-69.112 31.331,-96.693Z" style="fill-opacity:0.04;"/></svg>