<?xml version="1.0" encoding="UTF-8" standalone="no"?><!DOCTYPE svg PUBLIC "-//W3C//DTD SVG 1.1//EN" "http://www.w3.org/Graphics/SVG/1.1/DTD/svg11.dtd"><svg width="100%" height="100%" viewBox="0 0 8684 8684" version="1.1" xmlns="http://www.w3.org/2000/svg" xmlns:xlink="http://www.w3.org/1999/xlink" xml:space="preserve" xmlns:serif="http://www.serif.com/" style="fill-rule:evenodd;clip-rule:evenodd;stroke-linecap:round;stroke-linejoin:round;stroke-miterlimit:1.5;"><path d="M1943.97,2866.11c114.008,1525.29 643.104,2292.13 1553.05,3378.65c511.996,470.833 1313.77,1191.6 1799.85,1258c-246.562,58.458 -504.621,89.516 -770.296,89.516c-1746.63,0 -3164.67,-1342.23 -3164.67,-2995.45c0,-644.583 215.571,-1241.89 582.067,-1730.71Z" style="fill-opacity:0.04;"/><ellipse cx="4480.19" cy="4450.81" rx="3215.23" ry="3205.79" style="fill:#e6d19a;"/><ellipse cx="4518.46" cy="3944.96" rx="3052.02" ry="2703.8" style="fill:#c29ae6;"/><path d="M3994.64,1830.62c28.961,-8.639 70.553,47.803 93.04,126.381c0.548,1.897 1.078,3.812 1.586,5.685l79.624,278.258l-0.181,0.059c1.361,4.252 2.681,8.598 3.951,13.004c22.493,78.596 17.413,149.849 -11.249,159.493l-0.338,0.113c-28.961,9.198 -70.802,-47.381 -93.379,-126.275c-1.27,-4.423 -2.433,-8.805 -3.528,-13.134l-0.101,0.036l-78.67,-274.929c-0.915,-2.955 -1.818,-5.946 -2.681,-8.978c-22.487,-78.596 -17.424,-149.849 11.254,-159.493l0.672,-0.22Z" style="fill:#f900e1;"/><path d="M4377.24,5302.59c18.784,-24.77 83.783,-4.317 145.447,45.853c1.501,1.225 2.963,2.432 4.425,3.663l218.332,177.681l-0.124,0.166c3.471,2.622 6.931,5.333 10.402,8.158c61.647,50.169 96.856,111.261 78.845,136.655l-0.209,0.298c-18.502,25.233 -83.766,4.798 -145.661,-45.574c-3.472,-2.806 -6.841,-5.666 -10.121,-8.532l-0.073,0.095l-215.696,-175.547c-2.382,-1.837 -4.764,-3.733 -7.146,-5.666c-61.664,-50.187 -96.85,-111.279 -78.845,-136.679l0.215,-0.298l0.209,-0.273Z" style="fill:#f900e1;"/><path d="M6749.64,3460.37c18.784,-24.77 83.784,-4.311 145.447,45.853c1.479,1.231 2.964,2.438 4.409,3.662l218.326,177.681l-0.107,0.167c3.46,2.622 6.937,5.333 10.391,8.157c61.664,50.17 96.873,111.262 78.862,136.662l-0.209,0.297c-18.508,25.228 -83.767,4.793 -145.679,-45.579c-3.454,-2.807 -6.824,-5.666 -10.109,-8.526l-0.068,0.089l-215.718,-175.547c-2.365,-1.837 -4.764,-3.734 -7.123,-5.666c-61.664,-50.182 -96.873,-111.274 -78.862,-136.674l0.209,-0.297l0.231,-0.279Z" style="fill:#f900e1;"/><path d="M3047.75,3798.25c18.784,-24.769 83.783,-4.292 145.447,45.877c1.485,1.225 2.963,2.432 4.408,3.657l218.349,177.687l-0.124,0.149c3.471,2.616 6.931,5.351 10.386,8.175c61.663,50.164 96.872,111.256 78.861,136.656l-0.208,0.297c-18.502,25.216 -83.767,4.792 -145.679,-45.58c-3.455,-2.824 -6.824,-5.666 -10.104,-8.526l-0.073,0.095l-215.713,-175.546c-2.365,-1.843 -4.747,-3.74 -7.129,-5.672c-61.663,-50.182 -96.85,-111.274 -78.861,-136.674l0.231,-0.297l0.209,-0.298Z" style="fill:#f900e1;"/><path d="M4765.98,1698.31c27.889,11.91 27.798,83.365 -0.282,159.939c-0.672,1.838 -1.36,3.675 -2.066,5.5l-99.424,271.1l-0.175,-0.071c-1.394,4.251 -2.878,8.526 -4.464,12.819c-28.081,76.568 -73.624,129.526 -101.863,118.58l-0.333,-0.13c-28.221,-11.482 -28.26,-83.204 -0.056,-160.07c1.575,-4.293 3.195,-8.509 4.871,-12.653l-0.107,-0.035l98.244,-267.854c0.988,-2.919 2.032,-5.856 3.121,-8.805c28.086,-76.575 73.624,-129.527 101.863,-118.581l0.671,0.261Z" style="fill:#ffe500;"/><path d="M2538.55,2352.31c27.883,11.915 27.798,83.37 -0.282,159.939c-0.672,1.843 -1.36,3.68 -2.066,5.5l-99.424,271.105l-0.18,-0.071c-1.395,4.233 -2.873,8.526 -4.459,12.819c-28.081,76.551 -73.624,129.521 -101.88,118.581l-0.321,-0.131c-28.222,-11.481 -28.256,-83.222 -0.068,-160.07c1.586,-4.293 3.212,-8.526 4.888,-12.652l-0.107,-0.036l98.244,-267.854c0.988,-2.919 2.026,-5.874 3.104,-8.811c28.081,-76.569 73.641,-129.521 101.88,-118.575l0.671,0.256Z" style="fill:#ffe500;"/><path d="M6632.24,5128.48c24.852,17.897 10.335,87.699 -32.562,156.223c-1.038,1.653 -2.083,3.288 -3.121,4.905l-151.899,242.62l-0.141,-0.089c-2.224,3.829 -4.555,7.67 -6.954,11.517c-42.896,68.524 -98.103,110.072 -123.485,93.05l-0.299,-0.202c-25.259,-17.54 -10.792,-87.628 32.262,-156.425c2.399,-3.829 4.849,-7.605 7.321,-11.262l-0.09,-0.077l150.047,-239.7c1.569,-2.64 3.195,-5.28 4.837,-7.92c42.897,-68.524 98.103,-110.067 123.486,-93.05l0.598,0.41Z" style="fill:#ffe500;"/><path d="M6735.66,4029.11c24.834,17.896 10.334,87.699 -32.562,156.223c-1.039,1.653 -2.083,3.288 -3.122,4.905l-151.904,242.62l-0.158,-0.089c-2.218,3.823 -4.532,7.67 -6.931,11.517c-42.897,68.524 -98.103,110.072 -123.486,93.05l-0.299,-0.203c-25.258,-17.539 -10.797,-87.645 32.263,-156.425c2.399,-3.847 4.848,-7.604 7.315,-11.261l-0.085,-0.077l150.048,-239.701c1.569,-2.64 3.177,-5.28 4.831,-7.919c42.897,-68.524 98.109,-110.067 123.491,-93.05l0.599,0.41Z" style="fill:#ffe500;"/><path d="M5452.32,5602.47c29.807,-4.46 63.797,57.376 76.005,138.439c0.3,1.974 0.582,3.924 0.847,5.857l43.247,287.046l-0.175,0.018c0.812,4.423 1.569,8.9 2.257,13.455c12.203,81.063 -1.941,150.943 -31.574,156.425l-0.35,0.071c-29.881,5.001 -64.102,-57.019 -76.356,-138.404c-0.688,-4.53 -1.292,-9.049 -1.8,-13.508l-0.124,0.024l-42.739,-283.592c-0.53,-3.068 -1.021,-6.154 -1.495,-9.275c-12.226,-81.064 1.919,-150.961 31.568,-156.443l0.356,-0.06l0.333,-0.053Z" style="fill:#ffe500;"/><path d="M3166.7,5690.24c25.473,-16.892 80.47,24.948 123.045,93.698c1.027,1.653 2.032,3.324 3.037,4.977l150.719,243.422l-0.158,0.113c2.466,3.657 4.882,7.432 7.281,11.297c42.564,68.744 56.748,138.624 31.806,156.39l-0.3,0.202c-25.331,17.409 -80.589,-24.491 -123.327,-93.496c-2.399,-3.865 -4.696,-7.73 -6.897,-11.577l-0.108,0.078l-148.901,-240.504c-1.677,-2.562 -3.336,-5.166 -4.973,-7.824c-42.58,-68.726 -56.748,-138.624 -31.822,-156.372l0.598,-0.41l-0,0.006Z" style="fill:#ffe500;"/><path d="M2944.32,3202.12c27.889,11.91 27.798,83.365 -0.282,159.94c-0.666,1.855 -1.354,3.692 -2.06,5.499l-99.43,271.1l-0.175,-0.071c-1.394,4.257 -2.873,8.526 -4.464,12.819c-28.081,76.568 -73.619,129.527 -101.879,118.581l-0.317,-0.131c-28.221,-11.481 -28.255,-83.204 -0.067,-160.07c1.586,-4.293 3.206,-8.508 4.882,-12.653l-0.107,-0.035l98.25,-267.836c0.988,-2.937 2.026,-5.874 3.104,-8.829c28.08,-76.569 73.641,-129.521 101.879,-118.575l0.666,0.256l0,0.005Z" style="fill:#ffe500;"/><path d="M6215.1,3137.24c3.934,31.417 -55.105,66.645 -132.166,78.727c-1.852,0.297 -3.72,0.577 -5.554,0.832l-272.884,42.809l-0.034,-0.202c-4.2,0.815 -8.467,1.582 -12.79,2.248c-77.061,12.093 -143.274,-3.473 -148.196,-34.747l-0.057,-0.369c-4.459,-31.53 54.733,-66.966 132.116,-79.095c4.318,-0.69 8.607,-1.284 12.841,-1.784l-0.023,-0.131l269.622,-42.291c2.912,-0.518 5.841,-1.023 8.822,-1.487c77.061,-12.093 143.274,3.479 148.196,34.747l0.107,0.743Z" style="fill:#fff;"/><path d="M6279.24,3947.5c-21.747,21.904 -83.586,-7.485 -138.352,-65.866c-1.327,-1.409 -2.631,-2.824 -3.917,-4.234l-193.932,-206.725l0.124,-0.131c-3.104,-3.086 -6.192,-6.261 -9.262,-9.549c-54.767,-58.363 -81.95,-123.861 -60.891,-146.508l0.249,-0.261c21.521,-22.41 83.625,6.986 138.606,65.61c3.082,3.271 6.062,6.558 8.958,9.864l0.09,-0.095l191.584,204.235c2.133,2.176 4.25,4.37 6.366,6.617c54.772,58.381 81.933,123.873 60.874,146.526l-0.497,0.517Z" style="fill:#fff;"/><path d="M2708.71,5063.82c-21.753,21.91 -83.592,-7.486 -138.358,-65.867c-1.321,-1.409 -2.625,-2.824 -3.917,-4.233l-193.932,-206.726l0.124,-0.131c-3.104,-3.085 -6.191,-6.278 -9.279,-9.548c-54.766,-58.381 -81.927,-123.861 -60.868,-146.508l0.249,-0.262c21.516,-22.403 83.62,6.986 138.6,65.593c3.088,3.27 6.068,6.576 8.958,9.882l0.09,-0.095l191.59,204.234c2.133,2.158 4.25,4.37 6.366,6.618c54.767,58.381 81.927,123.854 60.868,146.508l-0.248,0.273l-0.243,0.262Z" style="fill:#fff;"/><path d="M3485.45,5147.29l1995.2,-2735.71" style="fill:none;stroke:#feb7ee;stroke-width:679.34px;"/><path d="M5781.42,4831.91l-2532.64,-2187.18" style="fill:none;stroke:#feb7ee;stroke-width:679.34px;"/><path d="M1817.6,2654.23c733.192,2372.48 2011.45,4007.36 3965.44,4727.87c-398.277,176.432 -839.163,274.518 -1302.86,274.518c-1774.53,0 -3215.21,-1436.48 -3215.21,-3205.8c-0,-665.62 203.882,-1284.12 552.625,-1796.59l0,0.006Z" style="fill-opacity:0.04;"/></svg>